<svg xmlns="http://www.w3.org/2000/svg" xmlns:xlink="http://www.w3.org/1999/xlink" fill="none" version="1.1" width="32" height="32" viewBox="0 0 32 32"><defs><clipPath id="master_svg0_1_67725"><rect x="0" y="0" width="32" height="32" rx="0"/></clipPath></defs><g clip-path="url(#master_svg0_1_67725)"><g><path d="M17.536064563465118,0.909278C17.995064563465117,0.6412450000000001,18.51716456346512,0.5000000000000001,19.048664563465117,0.5C19.580264563465118,0.5000000000000001,20.10226456346512,0.6412450000000001,20.56136456346512,0.909278C20.56136456346512,0.909278,20.57066456346512,0.914612,20.57066456346512,0.914612C20.57066456346512,0.914612,29.84666456346512,6.61594,29.84666456346512,6.61594C30.303264563465117,6.88391,30.68206456346512,7.26648,30.94536456346512,7.72578C31.208664563465117,8.18508,31.347464563465117,8.70518,31.34806456346512,9.23461C31.34806456346512,9.23461,31.34806456346512,19.2559,31.34806456346512,19.2559C31.34806456346512,20.3359,30.77206456346512,21.3359,29.83736456346512,21.8799C29.83736456346512,21.8799,29.834664563465118,21.8813,29.834664563465118,21.8813C29.834664563465118,21.8813,13.882664563465118,31.2639,13.882664563465118,31.2639C13.882664563465118,31.2639,13.877364563465118,31.2679,13.877364563465118,31.2679C12.936064563465118,31.8146,11.773364563465119,31.8146,10.832064563465119,31.2679C10.832064563465119,31.2679,10.797364563465118,31.2479,10.797364563465118,31.2479C10.797364563465118,31.2479,2.1266945634651186,25.2453,2.1266945634651186,25.2453C1.6807045634651183,24.9758,1.3118535634651183,24.5957,1.0558395634651183,24.1418C0.7998265634651184,23.688,0.6653276500651184,23.1757,0.6653645710643884,22.6546C0.6653645710643884,22.6546,0.6653645710643884,12.5839,0.6653645710643884,12.5839C0.6653645710643884,12.0613,0.7986975634651184,11.5573,1.0440315634651185,11.1173C1.0440315634651185,11.1173,1.0480315634651185,11.1093,1.0480315634651185,11.1093C1.0480315634651185,11.1093,1.0666975634651183,11.0746,1.0666975634651183,11.0746C1.3293645634651186,10.6186,1.7066945634651185,10.23861,2.1600345634651186,9.97194C2.1600345634651186,9.97194,2.1626945634651182,9.97194,2.1626945634651182,9.97194C2.1626945634651182,9.97194,17.536064563465118,0.909278,17.536064563465118,0.909278ZM18.545364563465117,2.63594C18.545364563465117,2.63594,18.544064563465117,2.63594,18.544064563465117,2.63594C18.544064563465117,2.63594,3.5306945634651186,11.4879,3.5306945634651186,11.4879C3.5306945634651186,11.4879,11.861364563465118,17.1506,11.861364563465118,17.1506C12.017064563465118,17.2345,12.191564563465118,17.2773,12.368464563465118,17.275C12.545264563465118,17.2726,12.718564563465119,17.2253,12.872064563465118,17.1373C12.872064563465118,17.1373,28.384064563465117,8.06528,28.384064563465117,8.06528C28.384064563465117,8.06528,19.545364563465117,2.63328,19.545364563465117,2.63328C19.392964563465117,2.54612,19.220364563465118,2.5006,19.04486456346512,2.5013C18.86926456346512,2.502,18.69706456346512,2.5489,18.545364563465117,2.63728C18.545364563465117,2.63728,18.545364563465117,2.63594,18.545364563465117,2.63594ZM11.356064563465118,19.1066C11.174264563465119,19.0432,10.998764563465118,18.9629,10.832064563465119,18.8666C10.832064563465119,18.8666,10.801364563465118,18.8479,10.801364563465118,18.8479C10.801364563465118,18.8479,2.6653645634651184,13.3186,2.6653645634651184,13.3186C2.6653645634651184,13.3186,2.6653645634651184,22.6559,2.6653645634651184,22.6559C2.6653645634651184,23.0226,2.8586945634651184,23.3599,3.1706945634651182,23.5413C3.1706945634651182,23.5413,3.2040345634651186,23.5599,3.2040345634651186,23.5599C3.2040345634651186,23.5599,11.356064563465118,29.2026,11.356064563465118,29.2026C11.356064563465118,29.2026,11.356064563465118,19.1066,11.356064563465118,19.1066ZM24.00006456346512,12.9453C24.00006456346512,12.9453,19.66666456346512,15.4786,19.66666456346512,15.4786C19.66666456346512,15.4786,19.66666456346512,25.5426,19.66666456346512,25.5426C19.66666456346512,25.5426,24.00006456346512,22.9933,24.00006456346512,22.9933C24.00006456346512,22.9933,24.00006456346512,12.9453,24.00006456346512,12.9453ZM13.880064563465119,18.8626C13.880064563465119,18.8626,13.877364563465118,18.8653,13.877364563465118,18.8653C13.711464563465118,18.9614,13.53696456346512,19.0418,13.356064563465118,19.1053C13.356064563465118,19.1053,13.356064563465118,29.2546,13.356064563465118,29.2546C13.356064563465118,29.2546,17.66666456346512,26.7186,17.66666456346512,26.7186C17.66666456346512,26.7186,17.66666456346512,16.6493,17.66666456346512,16.6493C17.66666456346512,16.6493,13.880064563465119,18.8626,13.880064563465119,18.8626ZM26.00006456346512,11.7746C26.00006456346512,11.7746,26.00006456346512,21.8173,26.00006456346512,21.8173C26.00006456346512,21.8173,28.832064563465117,20.1506,28.832064563465117,20.1506C28.98846456346512,20.0593,29.118464563465118,19.9288,29.20896456346512,19.7719C29.29946456346512,19.6149,29.347364563465117,19.4371,29.34806456346512,19.2559C29.34806456346512,19.2559,29.34806456346512,9.81728,29.34806456346512,9.81728C29.34806456346512,9.81728,26.00006456346512,11.7746,26.00006456346512,11.7746Z" fill="#003759" fill-opacity="1"/></g></g></svg>