<svg width="32" height="32" viewBox="0 0 32 32" fill="none" xmlns="http://www.w3.org/2000/svg">
<rect width="32" height="32" rx="4" fill="#82F7B3"/>
<path d="M11.8333 24.3333C11.375 24.3333 10.9828 24.1702 10.6567 23.8441C10.3306 23.518 10.1672 23.1255 10.1667 22.6666C10.1661 22.2077 10.3295 21.8155 10.6567 21.49C10.9839 21.1644 11.3761 21.0011 11.8333 21C12.2906 20.9988 12.6831 21.1622 13.0108 21.49C13.3386 21.8177 13.5017 22.21 13.5 22.6666C13.4983 23.1233 13.3353 23.5158 13.0108 23.8441C12.6864 24.1725 12.2939 24.3355 11.8333 24.3333ZM20.1667 24.3333C19.7083 24.3333 19.3161 24.1702 18.99 23.8441C18.6639 23.518 18.5006 23.1255 18.5 22.6666C18.4995 22.2077 18.6628 21.8155 18.99 21.49C19.3172 21.1644 19.7095 21.0011 20.1667 21C20.6239 20.9988 21.0164 21.1622 21.3442 21.49C21.672 21.8177 21.835 22.21 21.8333 22.6666C21.8317 23.1233 21.6686 23.5158 21.3442 23.8441C21.0197 24.1725 20.6272 24.3355 20.1667 24.3333ZM11.125 11L13.125 15.1666H18.9583L21.25 11H11.125ZM10.3333 9.33329H22.625C22.9445 9.33329 23.1875 9.47579 23.3542 9.76079C23.5208 10.0458 23.5278 10.3338 23.375 10.625L20.4167 15.9583C20.2639 16.2361 20.0592 16.4513 19.8025 16.6041C19.5458 16.7569 19.2645 16.8333 18.9583 16.8333H12.75L11.8333 18.5H21.8333V20.1666H11.8333C11.2083 20.1666 10.7361 19.8925 10.4167 19.3441C10.0972 18.7958 10.0833 18.2505 10.375 17.7083L11.5 15.6666L8.50001 9.33329H6.83334V7.66663H9.54168L10.3333 9.33329Z" fill="#008738"/>
</svg>
