<svg xmlns="http://www.w3.org/2000/svg" xmlns:xlink="http://www.w3.org/1999/xlink" fill="none" version="1.1" width="20" height="20" viewBox="0 0 20 20"><g><path d="M16,16C16.5304,16,17.0391,16.2107,17.4142,16.5858C17.7893,16.9609,18,17.4696,18,18C18,18.5304,17.7893,19.0391,17.4142,19.4142C17.0391,19.7893,16.5304,20,16,20C15.4696,20,14.9609,19.7893,14.5858,19.4142C14.2107,19.0391,14,18.5304,14,18C14,16.89,14.89,16,16,16ZM0,0C0,0,3.27,0,3.27,0C3.27,0,4.21,2,4.21,2C4.21,2,19,2,19,2C19.2652,2,19.5196,2.10536,19.7071,2.29289C19.8946,2.48043,20,2.73478,20,3C20,3.17,19.95,3.34,19.88,3.5C19.88,3.5,16.3,9.97,16.3,9.97C15.96,10.58,15.3,11,14.55,11C14.55,11,7.1,11,7.1,11C7.1,11,6.2,12.63,6.2,12.63C6.2,12.63,6.17,12.75,6.17,12.75C6.17,12.8163,6.19634,12.8799,6.24322,12.9268C6.29011,12.9737,6.3537,13,6.42,13C6.42,13,18,13,18,13C18,13,18,15,18,15C18,15,6,15,6,15C5.46957,15,4.96086,14.7893,4.58579,14.4142C4.21071,14.0391,4,13.5304,4,13C4,12.65,4.09,12.32,4.24,12.04C4.24,12.04,5.6,9.59,5.6,9.59C5.6,9.59,2,2,2,2C2,2,0,2,0,2C0,2,0,0,0,0ZM6,16C6.53043,16,7.03914,16.2107,7.41421,16.5858C7.78929,16.9609,8,17.4696,8,18C8,18.5304,7.78929,19.0391,7.41421,19.4142C7.03914,19.7893,6.53043,20,6,20C5.46957,20,4.96086,19.7893,4.58579,19.4142C4.21071,19.0391,4,18.5304,4,18C4,16.89,4.89,16,6,16ZM15,9C15,9,17.78,4,17.78,4C17.78,4,5.14,4,5.14,4C5.14,4,7.5,9,7.5,9C7.5,9,15,9,15,9Z" fill="#670000" fill-opacity="1"/></g></svg>