<svg xmlns="http://www.w3.org/2000/svg" xmlns:xlink="http://www.w3.org/1999/xlink" fill="none" version="1.1" width="24" height="24" viewBox="0 0 24 24"><defs><clipPath id="master_svg0_1_69087/0_444"><rect x="0" y="0" width="24" height="24" rx="0"/></clipPath></defs><g clip-path="url(#master_svg0_1_69087/0_444)"><g><path d="M12,16C12,16,7,11,7,11C7,11,8.4,9.55,8.4,9.55C8.4,9.55,11,12.15,11,12.15C11,12.15,11,4,11,4C11,4,13,4,13,4C13,4,13,12.15,13,12.15C13,12.15,15.6,9.55,15.6,9.55C15.6,9.55,17,11,17,11C17,11,12,16,12,16ZM6,20C5.45,20,4.9793330000000005,19.804299999999998,4.588,19.413C4.1966660000000005,19.0217,4.000666667,18.5507,4,18C4,18,4,15,4,15C4,15,6,15,6,15C6,15,6,18,6,18C6,18,18,18,18,18C18,18,18,15,18,15C18,15,20,15,20,15C20,15,20,18,20,18C20,18.55,19.804299999999998,19.021,19.413,19.413C19.0217,19.805,18.5507,20.0007,18,20C18,20,6,20,6,20Z" fill="#9A0000" fill-opacity="1"/></g></g></svg>