<svg width="20" height="20" viewBox="0 0 20 20" fill="none" xmlns="http://www.w3.org/2000/svg">
<path d="M17.4333 13.0166C17.3904 12.916 17.3313 12.8231 17.2583 12.7416L14.7583 10.2416C14.6014 10.0847 14.3886 9.99655 14.1667 9.99655C13.9447 9.99655 13.7319 10.0847 13.575 10.2416C13.4181 10.3985 13.3299 10.6114 13.3299 10.8333C13.3299 11.0552 13.4181 11.268 13.575 11.425L14.6583 12.5H10C9.77899 12.5 9.56703 12.5878 9.41074 12.744C9.25446 12.9003 9.16667 13.1123 9.16667 13.3333C9.16667 13.5543 9.25446 13.7663 9.41074 13.9225C9.56703 14.0788 9.77899 14.1666 10 14.1666H14.6583L13.575 15.2416C13.4969 15.3191 13.4349 15.4113 13.3926 15.5128C13.3503 15.6144 13.3285 15.7233 13.3285 15.8333C13.3285 15.9433 13.3503 16.0522 13.3926 16.1538C13.4349 16.2553 13.4969 16.3475 13.575 16.425C13.6525 16.5031 13.7446 16.5651 13.8462 16.6074C13.9477 16.6497 14.0567 16.6715 14.1667 16.6715C14.2767 16.6715 14.3856 16.6497 14.4871 16.6074C14.5887 16.5651 14.6809 16.5031 14.7583 16.425L17.2583 13.925C17.3361 13.8472 17.3959 13.7533 17.4333 13.65C17.5167 13.4471 17.5167 13.2195 17.4333 13.0166ZM11.6667 16.6666H5C4.77899 16.6666 4.56702 16.5788 4.41074 16.4225C4.25446 16.2663 4.16667 16.0543 4.16667 15.8333V4.16663C4.16667 3.94561 4.25446 3.73365 4.41074 3.57737C4.56702 3.42109 4.77899 3.33329 5 3.33329H9.16667V5.83329C9.16667 6.49633 9.43006 7.13222 9.8989 7.60106C10.3677 8.0699 11.0036 8.33329 11.6667 8.33329H15C15.1645 8.33247 15.3251 8.28297 15.4616 8.19103C15.598 8.09908 15.7042 7.96881 15.7667 7.81663C15.8305 7.66487 15.8479 7.49761 15.8168 7.33595C15.7856 7.17429 15.7073 7.02548 15.5917 6.90829L10.5917 1.90829C10.5234 1.84264 10.4445 1.7891 10.3583 1.74996H10.2833L10.05 1.66663H5C4.33696 1.66663 3.70107 1.93002 3.23223 2.39886C2.76339 2.8677 2.5 3.50358 2.5 4.16663V15.8333C2.5 16.4963 2.76339 17.1322 3.23223 17.6011C3.70107 18.0699 4.33696 18.3333 5 18.3333H11.6667C11.8877 18.3333 12.0996 18.2455 12.2559 18.0892C12.4122 17.9329 12.5 17.721 12.5 17.5C12.5 17.2789 12.4122 17.067 12.2559 16.9107C12.0996 16.7544 11.8877 16.6666 11.6667 16.6666ZM10.8333 4.50829L12.9917 6.66663H11.6667C11.4457 6.66663 11.2337 6.57883 11.0774 6.42255C10.9211 6.26627 10.8333 6.05431 10.8333 5.83329V4.50829Z" fill="#0E8773"/>
</svg>
