<svg id="Layer_1" data-name="Layer 1" xmlns="http://www.w3.org/2000/svg" viewBox="0 0 180.3 64"><defs><style>.cls-1{fill:#fff;}.cls-2{fill:#9a0000;}.cls-3{fill:#005e99;}.cls-4{fill:#444;}.cls-5{fill:#d2cf00;stroke:#000;stroke-width:0.18px;}.cls-5,.cls-6{stroke-miterlimit:10;}.cls-6{fill:none;stroke:#9a0000;stroke-linecap:square;stroke-width:1.83px;}.cls-7{isolation:isolate;font-size:9.15px;font-family:Verdana;}</style></defs><path class="cls-1" d="M624.12,556.78H451.2a3.69,3.69,0,0,1-3.69-3.69V496.47a3.69,3.69,0,0,1,3.69-3.69H624.12a3.69,3.69,0,0,1,3.69,3.69v56.62A3.69,3.69,0,0,1,624.12,556.78Z" transform="translate(-447.51 -492.78)"/><path class="cls-2" d="M570.57,512.9" transform="translate(-447.51 -492.78)"/><path class="cls-2" d="M491.92,517.47h3.13V530H510.7V517.47h3.13v15.65H491.92Z" transform="translate(-447.51 -492.78)"/><path class="cls-2" d="M520.09,533.12H517V517.47h21.91v9.39h-3.13l3.13,6.26h-3.51l-3.13-6.26H520.08v6.26Zm0-9.39h15.65V520.6H520.09Z" transform="translate(-447.51 -492.78)"/><path class="cls-2" d="M563.91,520.6H545.13V530h18.78v3.13H542V517.47h21.91Z" transform="translate(-447.51 -492.78)"/><path class="cls-2" d="M592.09,517.47h3.13l15.65,11.74V517.47H614v15.65h-3.13l-15.65-11.74v11.74h-3.13V517.47Z" transform="translate(-447.51 -492.78)"/><path class="cls-2" d="M569.1,520" transform="translate(-447.51 -492.78)"/><path class="cls-3" d="M577.83,527.07c0,.2.08.32.17.32s.15-.12.17-.31a2.71,2.71,0,0,0,0-.29v-8.91c0-.35-.07-.55-.18-.55s-.18.2-.18.55v8.89C577.82,526.87,577.82,527,577.83,527.07Z" transform="translate(-447.51 -492.78)"/><path class="cls-3" d="M582.05,527.07c0,.2.08.32.17.32s.15-.11.17-.31a2.71,2.71,0,0,0,0-.29v-8.91c0-.35-.07-.55-.18-.55s-.18.2-.18.55v8.89C582,526.87,582,527,582.05,527.07Z" transform="translate(-447.51 -492.78)"/><path class="cls-3" d="M580.64,527.05c0,.21.08.34.18.34s.16-.13.18-.34a2.71,2.71,0,0,0,0-.29V518c0-.43-.06-.63-.18-.63s-.18.2-.18.63v8.81A.88.88,0,0,0,580.64,527.05Z" transform="translate(-447.51 -492.78)"/><path class="cls-3" d="M579.24,527.08c0,.2.08.32.17.32s.15-.12.17-.32a2.71,2.71,0,0,0,0-.29v-8.88c0-.38-.06-.58-.18-.58s-.18.2-.18.58v8.86A1.61,1.61,0,0,0,579.24,527.08Z" transform="translate(-447.51 -492.78)"/><path class="cls-3" d="M583.46,527.05c0,.21.08.34.18.34s.16-.13.18-.34a2.71,2.71,0,0,0,0-.29V518c0-.43-.06-.63-.18-.63s-.18.21-.18.63v8.81A.88.88,0,0,0,583.46,527.05Z" transform="translate(-447.51 -492.78)"/><path class="cls-3" d="M584.87,527.07c0,.2.08.32.17.32s.15-.11.17-.31a2.71,2.71,0,0,0,0-.29v-8.91c0-.35-.07-.55-.18-.55s-.18.19-.18.55v8.89A1.51,1.51,0,0,0,584.87,527.07Z" transform="translate(-447.51 -492.78)"/><path class="cls-3" d="M570.79,527.08c0,.2.08.31.17.31s.15-.12.17-.32a2.71,2.71,0,0,0,0-.29V518c0-.43-.06-.63-.18-.63s-.18.21-.18.63v8.81C570.78,526.87,570.78,527,570.79,527.08Z" transform="translate(-447.51 -492.78)"/><path class="cls-3" d="M572.19,522.36V527c0,.23.08.36.18.36s.16-.14.18-.37a1.92,1.92,0,0,0,0-.24v-9.1c0-.23-.08-.36-.18-.36s-.16.14-.18.37a2.26,2.26,0,0,0,0,.26Z" transform="translate(-447.51 -492.78)"/><path class="cls-3" d="M567,514.54v15.65H589V514.54Zm.58.61h-.37v-.37h.37ZM587,528.09H569V516.63h18Zm1.67-12.94h-.37v-.37h.37Z" transform="translate(-447.51 -492.78)"/><path class="cls-3" d="M576.42,527.05c0,.21.08.34.18.34s.16-.13.18-.34a2.71,2.71,0,0,0,0-.29V518c0-.43-.06-.63-.18-.63s-.18.21-.18.63v8.81A.88.88,0,0,0,576.42,527.05Z" transform="translate(-447.51 -492.78)"/><path class="cls-3" d="M573.6,526.79a2.17,2.17,0,0,0,0,.26c0,.21.08.34.18.34s.16-.13.18-.34a2.71,2.71,0,0,0,0-.29V517.7c0-.23-.08-.36-.18-.36s-.16.14-.18.37a1.92,1.92,0,0,0,0,.24C573.6,520.89,573.6,523.84,573.6,526.79Z" transform="translate(-447.51 -492.78)"/><path class="cls-3" d="M575,526.79a2.17,2.17,0,0,0,0,.26c0,.21.08.34.18.34s.16-.13.18-.34a2.71,2.71,0,0,0,0-.29V517.7c0-.23-.08-.36-.18-.36s-.16.14-.18.37a1.92,1.92,0,0,0,0,.24C575,520.89,575,523.84,575,526.79Z" transform="translate(-447.51 -492.78)"/><polygon class="cls-2" points="55.05 13.49 52.92 18.25 40.77 18.25 40.77 36.39 35.26 41.35 35.26 13.49 55.05 13.49"/><polygon class="cls-2" points="13.81 13.49 15.94 18.25 28.09 18.25 28.09 36.39 33.6 41.35 33.6 13.49 13.81 13.49"/><ellipse class="cls-4" cx="130.49" cy="39.66" rx="9.15" ry="0.73"/><path class="cls-5" d="M576.94,509.05l-.85.46-5.72,3.14a.31.31,0,0,1-.32,0,7.16,7.16,0,0,0-.74-.25l.59-.33,6.64-3.64a.21.21,0,0,0,.12-.29,4,4,0,0,1-.13-.46c0-.16-.06-.34.12-.45a.43.43,0,0,1,.5.09,1,1,0,0,1,.29.62.75.75,0,0,0,.76.61A.71.71,0,0,0,579,508a.68.68,0,0,0-.28-.72,2,2,0,0,1-.68-1.08c0-.05,0-.1,0-.18h.95s.07.06.11.1a3.72,3.72,0,0,0,.48.49,1.92,1.92,0,0,1,.85,1.53.34.34,0,0,0,.18.3l3.51,2.21,2.61,1.65.07,0c-.26.09-.53.19-.81.27a.29.29,0,0,1-.21-.06l-3.61-2.28-2-1.25a2,2,0,0,1-1.62.82A1.53,1.53,0,0,1,576.94,509.05Z" transform="translate(-447.51 -492.78)"/><path class="cls-5" d="M577.3,504.25c-.13-.36-.25-.67-.35-1,0,0,0-.14.08-.19l2.25-2.26.59-.58c.15.28.31.54.44.82a.2.2,0,0,1-.06.19c-.83.85-1.67,1.69-2.51,2.53Z" transform="translate(-447.51 -492.78)"/><path class="cls-5" d="M576.56,502.37c-.35-.68-.35-.68,0-1.38l.45-.81a.57.57,0,0,1,.55-.33h1.53Z" transform="translate(-447.51 -492.78)"/><path class="cls-5" d="M580.36,502.29c-.11.24-.21.51-.34.77a8.42,8.42,0,0,0-.58,2c-.05.2-.12.29-.34.28-.46,0-.92,0-1.38,0a.68.68,0,0,1-.22-.09.63.63,0,0,1,.1-.2Z" transform="translate(-447.51 -492.78)"/><path class="cls-5" d="M587.5,514.32H586a.86.86,0,0,1,.25-1,.85.85,0,0,1,.94,0A.87.87,0,0,1,587.5,514.32Z" transform="translate(-447.51 -492.78)"/><path class="cls-5" d="M568.5,514.33c-.08-.53.07-.92.44-1.05a.86.86,0,0,1,.87.12.88.88,0,0,1,.26.84s-.07.09-.12.09Z" transform="translate(-447.51 -492.78)"/><line class="cls-6" x1="35.69" y1="43.34" x2="165.97" y2="43.52"/><text class="cls-7" transform="translate(38.97 54.14)">Global Container Solutions</text></svg>