<svg xmlns="http://www.w3.org/2000/svg" xmlns:xlink="http://www.w3.org/1999/xlink" fill="none" version="1.1" width="22" height="20" viewBox="0 0 22 20"><g><g><path d="M0.658204,15.55566Q0,17.21179,0,19Q0,19.098489999999998,0.019214999999999982,19.19509Q0.038429999999999964,19.29169,0.076121,19.38268Q0.11381200000000002,19.47368,0.16852999999999996,19.55557Q0.22324900000000003,19.63746,0.29289299999999996,19.70711Q0.362537,19.77675,0.44443,19.83147Q0.526322,19.88619,0.617317,19.92388Q0.708311,19.961570000000002,0.80491,19.98078Q0.9015086,20,1,20Q1.0984914,20,1.19509,19.98078Q1.2916889999999999,19.961570000000002,1.382683,19.92388Q1.473678,19.88619,1.55557,19.83147Q1.637463,19.77675,1.7071070000000002,19.70711Q1.776751,19.63746,1.83147,19.55557Q1.886188,19.47368,1.923879,19.38268Q1.96157,19.29169,1.980785,19.19509Q2,19.098489999999998,2,19Q2,16.01421,4.00711,14.00711Q6.01421,12,9,12Q11.9858,12,13.9929,14.00711Q16,16.01421,16,19Q16,19.098489999999998,16.019199999999998,19.19509Q16.0384,19.29169,16.0761,19.38268Q16.113799999999998,19.47368,16.1685,19.55557Q16.2232,19.63746,16.2929,19.70711Q16.3625,19.77675,16.4444,19.83147Q16.5263,19.88619,16.6173,19.92388Q16.7083,19.961570000000002,16.8049,19.98078Q16.9015,20,17,20Q17.0985,20,17.1951,19.98078Q17.2917,19.961570000000002,17.3827,19.92388Q17.4737,19.88619,17.5556,19.83147Q17.6375,19.77675,17.7071,19.70711Q17.7767,19.63746,17.8315,19.55557Q17.8862,19.47368,17.9239,19.38268Q17.9616,19.29169,17.9808,19.19509Q18,19.098489999999998,18,19Q18,17.21179,17.3418,15.55566Q16.6637,13.84949,15.4071,12.59289Q14.1505,11.3363,12.4443,10.658204Q10.78821,10,9,10Q7.21179,10,5.55566,10.658204Q3.84949,11.336301,2.5928899999999997,12.59289Q1.3363,13.84949,0.658204,15.55566Z" fill-rule="evenodd" fill="#222222" fill-opacity="1"/></g><g><path d="M4.742894,1.742893Q3,3.48579,3,6Q3,8.51421,4.7428930000000005,10.25711Q6.48579,12,9,12Q11.51421,12,13.25711,10.25711Q15,8.51421,15,6Q15,3.48579,13.25711,1.742893Q11.51421,0,9,0Q6.48579,0,4.742894,1.742893ZM6.157109999999999,8.84289Q5,7.68579,5,6Q5,4.31421,6.157109999999999,3.15711Q7.31421,2,9,2Q10.68579,2,11.84289,3.15711Q13,4.31421,13,6Q13,7.68579,11.84289,8.84289Q10.68579,10,9,10Q7.31421,10,6.157109999999999,8.84289Z" fill-rule="evenodd" fill="#222222" fill-opacity="1"/></g><g><path d="M17.0961145859375,0.83176920703125Q18.4147255859375,1.58526020703125,19.1682155859375,2.9038722070312497Q19.9999755859375,4.35945220703125,19.9999755859375,5.70001220703125Q19.9999755859375,7.43297220703125,19.4082155859375,8.524302207031251Q19.0918455859375,9.329542207031249,18.5152255859375,9.97982220703125Q19.7333055859375,11.15369220703125,20.6296855859375,12.81201220703125Q21.9999755859375,15.34701220703125,21.9999755859375,18.00001220703125Q21.9999755859375,18.09851220703125,21.9807555859375,18.19511220703125Q21.9615455859375,18.29171220703125,21.9238555859375,18.38271220703125Q21.8861655859375,18.47371220703125,21.8314455859375,18.55561220703125Q21.7767255859375,18.63751220703125,21.7070855859375,18.70711220703125Q21.6374355859375,18.77671220703125,21.5555455859375,18.83151220703125Q21.4736555859375,18.88621220703125,21.3826555859375,18.92391220703125Q21.2916655859375,18.96161220703125,21.1950655859375,18.98081220703125Q21.0984655859375,19.00001220703125,20.9999755859375,19.00001220703125Q20.9014855859375,19.00001220703125,20.804885585937498,18.98081220703125Q20.7082855859375,18.96161220703125,20.617295585937498,18.92391220703125Q20.5262955859375,18.88621220703125,20.4444055859375,18.83151220703125Q20.3625155859375,18.77671220703125,20.2928655859375,18.70711220703125Q20.2232255859375,18.63751220703125,20.1685055859375,18.55561220703125Q20.1137855859375,18.47371220703125,20.0760955859375,18.38271220703125Q20.0384055859375,18.29171220703125,20.0191855859375,18.19511220703125Q19.9999755859375,18.09851220703125,19.9999755859375,18.00001220703125Q19.9999755859375,15.85301220703125,18.8702655859375,13.76301220703125Q17.860905585937502,11.89571220703125,16.3999755859375,10.80001220703125Q16.2761825859375,10.70717220703125,16.1862415859375,10.58125220703125Q16.0706265859375,10.41939220703125,16.0257535859375,10.22560220703125Q15.9808805859375,10.03182220703125,16.0135815859375,9.83561220703125Q16.0462815859375,9.63940220703125,16.1515785859375,9.47065220703125Q16.2568755859375,9.301892207031251,16.4187365859375,9.186282207031251Q17.2462915859375,8.59517220703125,17.5636455859375,7.74889220703125Q17.5918625859375,7.67364220703125,17.6317355859375,7.60387220703125Q17.9999755859375,6.95945220703125,17.9999755859375,5.70001220703125Q17.9999755859375,4.89058220703125,17.4317315859375,3.89615220703125Q16.9488595859375,3.0511222070312503,16.1038365859375,2.56825520703125Q15.9890385859375,2.50265620703125,15.8952345859375,2.40947620703125Q15.8014295859375,2.3162962070312503,15.7350655859375,2.2019392070312502Q15.6687015859375,2.08758220703125,15.6343385859375,1.95990620703125Q15.5999755859375,1.83223120703125,15.5999755859375,1.70001220703125Q15.5999755859375,1.60152080703125,15.619190585937499,1.50492220703125Q15.6384055859375,1.4083232070312501,15.6760965859375,1.31732920703125Q15.7137875859375,1.22633420703125,15.7685055859375,1.14444220703125Q15.8232245859375,1.06254920703125,15.8928685859375,0.99290520703125Q15.9625125859375,0.92326120703125,16.0444055859375,0.86854220703125Q16.1262975859375,0.81382420703125,16.2172925859375,0.77613320703125Q16.3082865859375,0.73844220703125,16.4048855859375,0.71922720703125Q16.5014841859375,0.70001220703125,16.5999755859375,0.70001220703125Q16.8655395859375,0.70001220703125,17.0961145859375,0.83176920703125Z" fill-rule="evenodd" fill="#222222" fill-opacity="1"/></g></g></svg>