<svg width="24" height="25" viewBox="0 0 24 25" fill="none" xmlns="http://www.w3.org/2000/svg">
<mask id="path-1-outside-1_369_846" maskUnits="userSpaceOnUse" x="-1" y="-0.820923" width="26" height="26" fill="black">
<rect fill="white" x="-1" y="-0.820923" width="26" height="26"/>
<path d="M6.94498 12.224C6.95129 12.2085 6.95674 12.1926 6.96131 12.1764C7.02236 11.6321 6.93788 11.2192 6.41604 10.8398C5.51296 10.1839 5.09833 9.19827 5.03301 8.07764C5.03301 8.03145 5.02662 7.98455 5.02094 7.9142C4.541 7.94476 4.09017 7.89786 3.76074 7.50347C3.57998 7.29389 3.48157 7.02566 3.48385 6.74881C3.48385 6.08937 3.92545 5.6829 4.77742 5.5692C4.65673 5.32546 4.53816 5.09025 4.42243 4.85291C3.75293 3.47931 4.37913 1.96217 5.81896 1.45195C5.95339 1.39943 6.07834 1.32526 6.18885 1.23237C6.77671 0.766217 7.40646 0.395282 8.15832 0.254582C8.92963 0.100597 9.72942 0.183322 10.453 0.491924C10.8534 0.661759 11.2481 0.843673 11.6393 1.03269C13.1821 1.78025 13.8403 3.51271 13.1814 5.09878C13.1175 5.25369 13.0522 5.4079 12.9862 5.56636C13.9091 5.70138 14.3415 6.11282 14.3145 6.80495C14.2875 7.49708 13.8332 7.84101 12.7923 7.92983C12.7561 8.18778 12.7334 8.45142 12.6794 8.70795C12.4615 9.74472 11.8985 10.5555 11.0224 11.1389C10.8747 11.2384 10.8193 11.3365 10.83 11.5084C10.8442 11.7408 10.8335 11.9746 10.8335 12.2297C11.2936 12.3086 11.7437 12.386 12.1938 12.4614C13.0458 12.6035 13.8935 12.7456 14.7419 12.8877C14.8223 12.9029 14.905 12.9017 14.9849 12.8841C15.0648 12.8665 15.1403 12.833 15.207 12.7854C15.4091 12.6573 15.641 12.5839 15.88 12.5722C17.158 12.5523 18.443 12.5587 19.7245 12.5644C19.8783 12.5622 20.0309 12.5909 20.1734 12.6486C20.3159 12.7064 20.4454 12.7922 20.5542 12.9009C20.6631 13.0096 20.7491 13.139 20.8072 13.2815C20.8653 13.4239 20.8943 13.5766 20.8924 13.7305C20.8981 14.1078 20.8924 14.4845 20.8924 14.886C21.5492 14.886 22.1846 14.913 22.8172 14.8796C23.7153 14.8327 24.0085 15.1695 23.9979 16.0577C23.9695 18.4447 23.9879 20.833 23.9879 23.2206C23.9879 23.9021 23.7132 24.1807 23.0415 24.1807H0.580759C0.103656 24.1807 0 24.0769 0 23.6001C0 21.0026 0 18.4051 0 15.8076C0 14.2976 0.927227 13.231 2.4203 12.9922C3.88285 12.7584 5.34327 12.5076 6.80369 12.2631C6.85146 12.2527 6.89863 12.2396 6.94498 12.224ZM14.6979 13.685C14.6709 13.6709 14.6426 13.6595 14.6134 13.6509C13.3191 13.4335 12.0248 13.2153 10.7291 13.0064C10.6379 13.0049 10.5489 13.0342 10.4764 13.0895C10.1732 13.2928 10.0625 13.5514 10.2634 13.8968C10.3188 13.9927 10.3294 14.11 10.3763 14.2151C10.4272 14.3163 10.447 14.4303 10.4332 14.5427C10.4194 14.6552 10.3727 14.761 10.2989 14.8469C10.1349 15.0657 9.99858 15.3052 9.83742 15.5269C9.79377 15.5775 9.76641 15.6402 9.75894 15.7066C9.75146 15.7731 9.76422 15.8402 9.79553 15.8993C10.0024 16.3801 10.1967 16.8662 10.3784 17.3574C10.4273 17.4831 10.4406 17.6198 10.4168 17.7525C10.0511 19.3713 9.6727 20.9872 9.30351 22.6046C9.25239 22.8312 9.16152 23.0103 8.90593 23.0132C8.65034 23.016 8.55094 22.8455 8.49982 22.6152C8.13774 21.0291 7.76358 19.4459 7.41001 17.8542C7.37638 17.6604 7.393 17.4612 7.45829 17.2757C7.57642 16.8921 7.72603 16.519 7.90557 16.1601C8.07952 15.8282 8.01278 15.5916 7.81256 15.2931C7.20341 14.3892 7.2673 14.7445 7.59105 13.7241C7.71317 13.3411 7.36457 12.9517 6.96272 13.0192C5.54277 13.2587 4.12282 13.5259 2.69648 13.7213C1.27014 13.9167 0.746183 14.9201 0.762513 15.9469C0.799431 18.3345 0.773872 20.7236 0.773872 23.1112V23.3862H3.8793V16.8394H4.64892V23.3912H11.6067V23.0906C11.6067 20.6385 11.6067 18.1858 11.6067 15.7323C11.6067 15.2064 11.924 14.8888 12.448 14.8867C13.1168 14.8867 13.7863 14.8867 14.4551 14.8867C14.5325 14.8867 14.6106 14.8796 14.6944 14.8753L14.6979 13.685ZM6.33156 4.62978C6.15051 4.99148 5.98509 5.32049 5.8218 5.65092C5.80936 5.68056 5.80377 5.71262 5.80547 5.74472C5.81825 6.63156 5.76358 7.5255 5.86155 8.40239C6.02769 9.89466 7.388 11.0139 8.90309 11.0132C10.4182 11.0124 11.7622 9.88755 11.9411 8.3967C12.0263 7.6861 11.9453 6.96057 12.0057 6.24783C12.0596 5.62108 11.7132 5.16984 11.4675 4.62694C10.7114 5.24801 9.87291 5.58341 8.92084 5.5891C7.95669 5.59478 7.11111 5.25653 6.33156 4.62978ZM23.1764 15.6783H12.3848C12.3848 16.0663 12.3848 16.4365 12.3848 16.8067C12.3827 17.0636 12.4318 17.3183 12.529 17.556C12.6263 17.7937 12.7699 18.0096 12.9515 18.1912C13.133 18.3727 13.3489 18.5163 13.5864 18.6135C13.824 18.7107 14.0785 18.7596 14.3351 18.7573C15.0366 18.7637 15.7373 18.7573 16.4388 18.7573C16.5005 18.7573 16.5623 18.7495 16.6404 18.7431C16.6404 18.3757 16.6404 18.0219 16.6404 17.6687C16.6404 17.3518 16.7824 17.2125 17.0998 17.2103C17.5506 17.2103 18.0021 17.2103 18.4537 17.2103C18.8328 17.2103 18.9599 17.339 18.9613 17.7184C18.9613 18.0617 18.9613 18.4049 18.9613 18.7588H21.1707C21.2595 18.7588 21.3482 18.7588 21.4363 18.7531C22.2982 18.682 23.0465 18.0467 23.1651 17.1897C23.2318 16.6994 23.1764 16.1935 23.1764 15.6783ZM16.6241 19.5333C15.8694 19.5333 15.1331 19.5333 14.3891 19.5333C13.6967 19.5475 13.0248 19.2975 12.5098 18.8341C12.4752 18.8092 12.4386 18.7874 12.4004 18.7687V21.8449H23.2013V18.7502C23.148 18.7907 23.1161 18.8113 23.0877 18.8362C22.5382 19.3251 21.8921 19.5468 21.1601 19.5347C20.5069 19.5276 19.8545 19.5347 19.2013 19.5347H18.9734C18.8974 20.6063 18.5275 21.0839 17.7984 21.0831C17.0692 21.0824 16.7036 20.6063 16.6241 19.5333ZM8.20163 3.08492C7.42066 1.87689 6.1853 1.94298 5.54348 2.46172C4.82428 3.04442 4.72204 4.09967 5.34043 4.87281C5.50231 4.54948 5.65637 4.23326 5.81824 3.92202C5.97231 3.6257 6.20163 3.57311 6.47355 3.76853C6.70926 3.93765 6.93362 4.12383 7.17501 4.283C7.5254 4.52231 7.92184 4.6858 8.33896 4.76301C8.75608 4.84022 9.18471 4.82945 9.59744 4.7314C10.1732 4.6042 10.6432 4.2894 11.1005 3.93978C11.6784 3.4985 11.7849 3.52763 12.1143 4.18707C12.218 4.39386 12.3237 4.59923 12.4359 4.81951C12.9975 3.7664 12.5069 2.34092 11.3887 1.77101C10.953 1.54555 10.5056 1.34368 10.0483 1.16629C9.10401 0.803169 8.18956 0.906207 7.2602 1.42211C7.9574 1.65661 8.47355 2.05028 8.8257 2.67135L8.20163 3.08492ZM23.2048 22.6486H12.4018V23.394H23.2048V22.6486ZM20.1207 14.881C20.1207 14.5115 20.1207 14.1661 20.1207 13.8208C20.1207 13.4754 19.9837 13.3411 19.6351 13.3404C18.7982 13.3404 17.9609 13.3404 17.1232 13.3404H16.4281C17.06 13.7405 17.454 14.2414 17.6713 14.8817L20.1207 14.881ZM8.86688 20.7719L8.91658 20.7769C8.92906 20.7512 8.93951 20.7246 8.94782 20.6973C9.17288 19.7266 9.40007 18.7552 9.61803 17.7838C9.63703 17.6831 9.62794 17.5791 9.59176 17.4832C9.43083 17.054 9.26091 16.6276 9.082 16.2041C9.05502 16.1402 8.96344 16.0563 8.91019 16.062C8.86888 16.0708 8.83005 16.0887 8.79652 16.1144C8.76299 16.1401 8.73561 16.1729 8.71636 16.2105C8.53603 16.6319 8.36848 17.0583 8.20447 17.4896C8.17121 17.57 8.16089 17.6581 8.17465 17.744C8.40113 18.7495 8.63472 19.7593 8.86688 20.7691V20.7719ZM8.90806 13.5685C9.28293 13.1897 9.64075 12.8302 9.99361 12.4671C10.0308 12.4269 10.0533 12.3753 10.0575 12.3207C10.0639 12.0961 10.0575 11.8709 10.0575 11.6157C9.30068 11.8456 8.49272 11.8456 7.73589 11.6157C7.73589 11.8602 7.73021 12.0769 7.74015 12.293C7.74445 12.3626 7.77223 12.4287 7.81895 12.4806C8.17039 12.8337 8.52609 13.1848 8.90806 13.5656V13.5685ZM17.4143 17.9977C17.4143 18.6607 17.4086 19.3031 17.4143 19.9448C17.4146 19.9935 17.4247 20.0417 17.444 20.0865C17.4632 20.1313 17.4913 20.1718 17.5264 20.2055C17.5615 20.2393 17.6031 20.2657 17.6486 20.2832C17.6941 20.3006 17.7426 20.3088 17.7913 20.3072C18.0043 20.3022 18.1654 20.1842 18.1711 19.9767C18.1881 19.3208 18.1775 18.6642 18.1775 17.9977H17.4143ZM16.8356 14.8781C16.536 14.3025 16.1086 13.9501 15.4867 13.8122V14.8781H16.8356ZM8.30387 14.0879C8.16187 14.3097 8.16187 14.5058 8.33582 14.7048C8.43461 14.832 8.52519 14.9654 8.60703 15.1041C8.77458 15.3535 9.0252 15.3528 9.19347 15.1041C9.29215 14.957 9.38942 14.8092 9.4874 14.6614C9.66063 14.4013 9.65992 14.3772 9.4803 14.1C8.9038 14.5854 8.9038 14.5854 8.30387 14.0879ZM5.01881 6.37219C4.76393 6.37858 4.48491 6.27981 4.3344 6.54628C4.3039 6.61158 4.28809 6.68277 4.28809 6.75485C4.28809 6.82692 4.3039 6.89812 4.3344 6.96341C4.48775 7.22775 4.76464 7.12827 5.01597 7.13396L5.01881 6.37219ZM12.7689 6.38356V7.12685C13.3191 7.16664 13.5428 7.05153 13.5406 6.75094C13.5385 6.45035 13.3078 6.33381 12.7689 6.38356Z"/>
</mask>
<path d="M6.94498 12.224C6.95129 12.2085 6.95674 12.1926 6.96131 12.1764C7.02236 11.6321 6.93788 11.2192 6.41604 10.8398C5.51296 10.1839 5.09833 9.19827 5.03301 8.07764C5.03301 8.03145 5.02662 7.98455 5.02094 7.9142C4.541 7.94476 4.09017 7.89786 3.76074 7.50347C3.57998 7.29389 3.48157 7.02566 3.48385 6.74881C3.48385 6.08937 3.92545 5.6829 4.77742 5.5692C4.65673 5.32546 4.53816 5.09025 4.42243 4.85291C3.75293 3.47931 4.37913 1.96217 5.81896 1.45195C5.95339 1.39943 6.07834 1.32526 6.18885 1.23237C6.77671 0.766217 7.40646 0.395282 8.15832 0.254582C8.92963 0.100597 9.72942 0.183322 10.453 0.491924C10.8534 0.661759 11.2481 0.843673 11.6393 1.03269C13.1821 1.78025 13.8403 3.51271 13.1814 5.09878C13.1175 5.25369 13.0522 5.4079 12.9862 5.56636C13.9091 5.70138 14.3415 6.11282 14.3145 6.80495C14.2875 7.49708 13.8332 7.84101 12.7923 7.92983C12.7561 8.18778 12.7334 8.45142 12.6794 8.70795C12.4615 9.74472 11.8985 10.5555 11.0224 11.1389C10.8747 11.2384 10.8193 11.3365 10.83 11.5084C10.8442 11.7408 10.8335 11.9746 10.8335 12.2297C11.2936 12.3086 11.7437 12.386 12.1938 12.4614C13.0458 12.6035 13.8935 12.7456 14.7419 12.8877C14.8223 12.9029 14.905 12.9017 14.9849 12.8841C15.0648 12.8665 15.1403 12.833 15.207 12.7854C15.4091 12.6573 15.641 12.5839 15.88 12.5722C17.158 12.5523 18.443 12.5587 19.7245 12.5644C19.8783 12.5622 20.0309 12.5909 20.1734 12.6486C20.3159 12.7064 20.4454 12.7922 20.5542 12.9009C20.6631 13.0096 20.7491 13.139 20.8072 13.2815C20.8653 13.4239 20.8943 13.5766 20.8924 13.7305C20.8981 14.1078 20.8924 14.4845 20.8924 14.886C21.5492 14.886 22.1846 14.913 22.8172 14.8796C23.7153 14.8327 24.0085 15.1695 23.9979 16.0577C23.9695 18.4447 23.9879 20.833 23.9879 23.2206C23.9879 23.9021 23.7132 24.1807 23.0415 24.1807H0.580759C0.103656 24.1807 0 24.0769 0 23.6001C0 21.0026 0 18.4051 0 15.8076C0 14.2976 0.927227 13.231 2.4203 12.9922C3.88285 12.7584 5.34327 12.5076 6.80369 12.2631C6.85146 12.2527 6.89863 12.2396 6.94498 12.224ZM14.6979 13.685C14.6709 13.6709 14.6426 13.6595 14.6134 13.6509C13.3191 13.4335 12.0248 13.2153 10.7291 13.0064C10.6379 13.0049 10.5489 13.0342 10.4764 13.0895C10.1732 13.2928 10.0625 13.5514 10.2634 13.8968C10.3188 13.9927 10.3294 14.11 10.3763 14.2151C10.4272 14.3163 10.447 14.4303 10.4332 14.5427C10.4194 14.6552 10.3727 14.761 10.2989 14.8469C10.1349 15.0657 9.99858 15.3052 9.83742 15.5269C9.79377 15.5775 9.76641 15.6402 9.75894 15.7066C9.75146 15.7731 9.76422 15.8402 9.79553 15.8993C10.0024 16.3801 10.1967 16.8662 10.3784 17.3574C10.4273 17.4831 10.4406 17.6198 10.4168 17.7525C10.0511 19.3713 9.6727 20.9872 9.30351 22.6046C9.25239 22.8312 9.16152 23.0103 8.90593 23.0132C8.65034 23.016 8.55094 22.8455 8.49982 22.6152C8.13774 21.0291 7.76358 19.4459 7.41001 17.8542C7.37638 17.6604 7.393 17.4612 7.45829 17.2757C7.57642 16.8921 7.72603 16.519 7.90557 16.1601C8.07952 15.8282 8.01278 15.5916 7.81256 15.2931C7.20341 14.3892 7.2673 14.7445 7.59105 13.7241C7.71317 13.3411 7.36457 12.9517 6.96272 13.0192C5.54277 13.2587 4.12282 13.5259 2.69648 13.7213C1.27014 13.9167 0.746183 14.9201 0.762513 15.9469C0.799431 18.3345 0.773872 20.7236 0.773872 23.1112V23.3862H3.8793V16.8394H4.64892V23.3912H11.6067V23.0906C11.6067 20.6385 11.6067 18.1858 11.6067 15.7323C11.6067 15.2064 11.924 14.8888 12.448 14.8867C13.1168 14.8867 13.7863 14.8867 14.4551 14.8867C14.5325 14.8867 14.6106 14.8796 14.6944 14.8753L14.6979 13.685ZM6.33156 4.62978C6.15051 4.99148 5.98509 5.32049 5.8218 5.65092C5.80936 5.68056 5.80377 5.71262 5.80547 5.74472C5.81825 6.63156 5.76358 7.5255 5.86155 8.40239C6.02769 9.89466 7.388 11.0139 8.90309 11.0132C10.4182 11.0124 11.7622 9.88755 11.9411 8.3967C12.0263 7.6861 11.9453 6.96057 12.0057 6.24783C12.0596 5.62108 11.7132 5.16984 11.4675 4.62694C10.7114 5.24801 9.87291 5.58341 8.92084 5.5891C7.95669 5.59478 7.11111 5.25653 6.33156 4.62978ZM23.1764 15.6783H12.3848C12.3848 16.0663 12.3848 16.4365 12.3848 16.8067C12.3827 17.0636 12.4318 17.3183 12.529 17.556C12.6263 17.7937 12.7699 18.0096 12.9515 18.1912C13.133 18.3727 13.3489 18.5163 13.5864 18.6135C13.824 18.7107 14.0785 18.7596 14.3351 18.7573C15.0366 18.7637 15.7373 18.7573 16.4388 18.7573C16.5005 18.7573 16.5623 18.7495 16.6404 18.7431C16.6404 18.3757 16.6404 18.0219 16.6404 17.6687C16.6404 17.3518 16.7824 17.2125 17.0998 17.2103C17.5506 17.2103 18.0021 17.2103 18.4537 17.2103C18.8328 17.2103 18.9599 17.339 18.9613 17.7184C18.9613 18.0617 18.9613 18.4049 18.9613 18.7588H21.1707C21.2595 18.7588 21.3482 18.7588 21.4363 18.7531C22.2982 18.682 23.0465 18.0467 23.1651 17.1897C23.2318 16.6994 23.1764 16.1935 23.1764 15.6783ZM16.6241 19.5333C15.8694 19.5333 15.1331 19.5333 14.3891 19.5333C13.6967 19.5475 13.0248 19.2975 12.5098 18.8341C12.4752 18.8092 12.4386 18.7874 12.4004 18.7687V21.8449H23.2013V18.7502C23.148 18.7907 23.1161 18.8113 23.0877 18.8362C22.5382 19.3251 21.8921 19.5468 21.1601 19.5347C20.5069 19.5276 19.8545 19.5347 19.2013 19.5347H18.9734C18.8974 20.6063 18.5275 21.0839 17.7984 21.0831C17.0692 21.0824 16.7036 20.6063 16.6241 19.5333ZM8.20163 3.08492C7.42066 1.87689 6.1853 1.94298 5.54348 2.46172C4.82428 3.04442 4.72204 4.09967 5.34043 4.87281C5.50231 4.54948 5.65637 4.23326 5.81824 3.92202C5.97231 3.6257 6.20163 3.57311 6.47355 3.76853C6.70926 3.93765 6.93362 4.12383 7.17501 4.283C7.5254 4.52231 7.92184 4.6858 8.33896 4.76301C8.75608 4.84022 9.18471 4.82945 9.59744 4.7314C10.1732 4.6042 10.6432 4.2894 11.1005 3.93978C11.6784 3.4985 11.7849 3.52763 12.1143 4.18707C12.218 4.39386 12.3237 4.59923 12.4359 4.81951C12.9975 3.7664 12.5069 2.34092 11.3887 1.77101C10.953 1.54555 10.5056 1.34368 10.0483 1.16629C9.10401 0.803169 8.18956 0.906207 7.2602 1.42211C7.9574 1.65661 8.47355 2.05028 8.8257 2.67135L8.20163 3.08492ZM23.2048 22.6486H12.4018V23.394H23.2048V22.6486ZM20.1207 14.881C20.1207 14.5115 20.1207 14.1661 20.1207 13.8208C20.1207 13.4754 19.9837 13.3411 19.6351 13.3404C18.7982 13.3404 17.9609 13.3404 17.1232 13.3404H16.4281C17.06 13.7405 17.454 14.2414 17.6713 14.8817L20.1207 14.881ZM8.86688 20.7719L8.91658 20.7769C8.92906 20.7512 8.93951 20.7246 8.94782 20.6973C9.17288 19.7266 9.40007 18.7552 9.61803 17.7838C9.63703 17.6831 9.62794 17.5791 9.59176 17.4832C9.43083 17.054 9.26091 16.6276 9.082 16.2041C9.05502 16.1402 8.96344 16.0563 8.91019 16.062C8.86888 16.0708 8.83005 16.0887 8.79652 16.1144C8.76299 16.1401 8.73561 16.1729 8.71636 16.2105C8.53603 16.6319 8.36848 17.0583 8.20447 17.4896C8.17121 17.57 8.16089 17.6581 8.17465 17.744C8.40113 18.7495 8.63472 19.7593 8.86688 20.7691V20.7719ZM8.90806 13.5685C9.28293 13.1897 9.64075 12.8302 9.99361 12.4671C10.0308 12.4269 10.0533 12.3753 10.0575 12.3207C10.0639 12.0961 10.0575 11.8709 10.0575 11.6157C9.30068 11.8456 8.49272 11.8456 7.73589 11.6157C7.73589 11.8602 7.73021 12.0769 7.74015 12.293C7.74445 12.3626 7.77223 12.4287 7.81895 12.4806C8.17039 12.8337 8.52609 13.1848 8.90806 13.5656V13.5685ZM17.4143 17.9977C17.4143 18.6607 17.4086 19.3031 17.4143 19.9448C17.4146 19.9935 17.4247 20.0417 17.444 20.0865C17.4632 20.1313 17.4913 20.1718 17.5264 20.2055C17.5615 20.2393 17.6031 20.2657 17.6486 20.2832C17.6941 20.3006 17.7426 20.3088 17.7913 20.3072C18.0043 20.3022 18.1654 20.1842 18.1711 19.9767C18.1881 19.3208 18.1775 18.6642 18.1775 17.9977H17.4143ZM16.8356 14.8781C16.536 14.3025 16.1086 13.9501 15.4867 13.8122V14.8781H16.8356ZM8.30387 14.0879C8.16187 14.3097 8.16187 14.5058 8.33582 14.7048C8.43461 14.832 8.52519 14.9654 8.60703 15.1041C8.77458 15.3535 9.0252 15.3528 9.19347 15.1041C9.29215 14.957 9.38942 14.8092 9.4874 14.6614C9.66063 14.4013 9.65992 14.3772 9.4803 14.1C8.9038 14.5854 8.9038 14.5854 8.30387 14.0879ZM5.01881 6.37219C4.76393 6.37858 4.48491 6.27981 4.3344 6.54628C4.3039 6.61158 4.28809 6.68277 4.28809 6.75485C4.28809 6.82692 4.3039 6.89812 4.3344 6.96341C4.48775 7.22775 4.76464 7.12827 5.01597 7.13396L5.01881 6.37219ZM12.7689 6.38356V7.12685C13.3191 7.16664 13.5428 7.05153 13.5406 6.75094C13.5385 6.45035 13.3078 6.33381 12.7689 6.38356Z" fill="black"/>
<path d="M6.94498 12.224C6.95129 12.2085 6.95674 12.1926 6.96131 12.1764C7.02236 11.6321 6.93788 11.2192 6.41604 10.8398C5.51296 10.1839 5.09833 9.19827 5.03301 8.07764C5.03301 8.03145 5.02662 7.98455 5.02094 7.9142C4.541 7.94476 4.09017 7.89786 3.76074 7.50347C3.57998 7.29389 3.48157 7.02566 3.48385 6.74881C3.48385 6.08937 3.92545 5.6829 4.77742 5.5692C4.65673 5.32546 4.53816 5.09025 4.42243 4.85291C3.75293 3.47931 4.37913 1.96217 5.81896 1.45195C5.95339 1.39943 6.07834 1.32526 6.18885 1.23237C6.77671 0.766217 7.40646 0.395282 8.15832 0.254582C8.92963 0.100597 9.72942 0.183322 10.453 0.491924C10.8534 0.661759 11.2481 0.843673 11.6393 1.03269C13.1821 1.78025 13.8403 3.51271 13.1814 5.09878C13.1175 5.25369 13.0522 5.4079 12.9862 5.56636C13.9091 5.70138 14.3415 6.11282 14.3145 6.80495C14.2875 7.49708 13.8332 7.84101 12.7923 7.92983C12.7561 8.18778 12.7334 8.45142 12.6794 8.70795C12.4615 9.74472 11.8985 10.5555 11.0224 11.1389C10.8747 11.2384 10.8193 11.3365 10.83 11.5084C10.8442 11.7408 10.8335 11.9746 10.8335 12.2297C11.2936 12.3086 11.7437 12.386 12.1938 12.4614C13.0458 12.6035 13.8935 12.7456 14.7419 12.8877C14.8223 12.9029 14.905 12.9017 14.9849 12.8841C15.0648 12.8665 15.1403 12.833 15.207 12.7854C15.4091 12.6573 15.641 12.5839 15.88 12.5722C17.158 12.5523 18.443 12.5587 19.7245 12.5644C19.8783 12.5622 20.0309 12.5909 20.1734 12.6486C20.3159 12.7064 20.4454 12.7922 20.5542 12.9009C20.6631 13.0096 20.7491 13.139 20.8072 13.2815C20.8653 13.4239 20.8943 13.5766 20.8924 13.7305C20.8981 14.1078 20.8924 14.4845 20.8924 14.886C21.5492 14.886 22.1846 14.913 22.8172 14.8796C23.7153 14.8327 24.0085 15.1695 23.9979 16.0577C23.9695 18.4447 23.9879 20.833 23.9879 23.2206C23.9879 23.9021 23.7132 24.1807 23.0415 24.1807H0.580759C0.103656 24.1807 0 24.0769 0 23.6001C0 21.0026 0 18.4051 0 15.8076C0 14.2976 0.927227 13.231 2.4203 12.9922C3.88285 12.7584 5.34327 12.5076 6.80369 12.2631C6.85146 12.2527 6.89863 12.2396 6.94498 12.224ZM14.6979 13.685C14.6709 13.6709 14.6426 13.6595 14.6134 13.6509C13.3191 13.4335 12.0248 13.2153 10.7291 13.0064C10.6379 13.0049 10.5489 13.0342 10.4764 13.0895C10.1732 13.2928 10.0625 13.5514 10.2634 13.8968C10.3188 13.9927 10.3294 14.11 10.3763 14.2151C10.4272 14.3163 10.447 14.4303 10.4332 14.5427C10.4194 14.6552 10.3727 14.761 10.2989 14.8469C10.1349 15.0657 9.99858 15.3052 9.83742 15.5269C9.79377 15.5775 9.76641 15.6402 9.75894 15.7066C9.75146 15.7731 9.76422 15.8402 9.79553 15.8993C10.0024 16.3801 10.1967 16.8662 10.3784 17.3574C10.4273 17.4831 10.4406 17.6198 10.4168 17.7525C10.0511 19.3713 9.6727 20.9872 9.30351 22.6046C9.25239 22.8312 9.16152 23.0103 8.90593 23.0132C8.65034 23.016 8.55094 22.8455 8.49982 22.6152C8.13774 21.0291 7.76358 19.4459 7.41001 17.8542C7.37638 17.6604 7.393 17.4612 7.45829 17.2757C7.57642 16.8921 7.72603 16.519 7.90557 16.1601C8.07952 15.8282 8.01278 15.5916 7.81256 15.2931C7.20341 14.3892 7.2673 14.7445 7.59105 13.7241C7.71317 13.3411 7.36457 12.9517 6.96272 13.0192C5.54277 13.2587 4.12282 13.5259 2.69648 13.7213C1.27014 13.9167 0.746183 14.9201 0.762513 15.9469C0.799431 18.3345 0.773872 20.7236 0.773872 23.1112V23.3862H3.8793V16.8394H4.64892V23.3912H11.6067V23.0906C11.6067 20.6385 11.6067 18.1858 11.6067 15.7323C11.6067 15.2064 11.924 14.8888 12.448 14.8867C13.1168 14.8867 13.7863 14.8867 14.4551 14.8867C14.5325 14.8867 14.6106 14.8796 14.6944 14.8753L14.6979 13.685ZM6.33156 4.62978C6.15051 4.99148 5.98509 5.32049 5.8218 5.65092C5.80936 5.68056 5.80377 5.71262 5.80547 5.74472C5.81825 6.63156 5.76358 7.5255 5.86155 8.40239C6.02769 9.89466 7.388 11.0139 8.90309 11.0132C10.4182 11.0124 11.7622 9.88755 11.9411 8.3967C12.0263 7.6861 11.9453 6.96057 12.0057 6.24783C12.0596 5.62108 11.7132 5.16984 11.4675 4.62694C10.7114 5.24801 9.87291 5.58341 8.92084 5.5891C7.95669 5.59478 7.11111 5.25653 6.33156 4.62978ZM23.1764 15.6783H12.3848C12.3848 16.0663 12.3848 16.4365 12.3848 16.8067C12.3827 17.0636 12.4318 17.3183 12.529 17.556C12.6263 17.7937 12.7699 18.0096 12.9515 18.1912C13.133 18.3727 13.3489 18.5163 13.5864 18.6135C13.824 18.7107 14.0785 18.7596 14.3351 18.7573C15.0366 18.7637 15.7373 18.7573 16.4388 18.7573C16.5005 18.7573 16.5623 18.7495 16.6404 18.7431C16.6404 18.3757 16.6404 18.0219 16.6404 17.6687C16.6404 17.3518 16.7824 17.2125 17.0998 17.2103C17.5506 17.2103 18.0021 17.2103 18.4537 17.2103C18.8328 17.2103 18.9599 17.339 18.9613 17.7184C18.9613 18.0617 18.9613 18.4049 18.9613 18.7588H21.1707C21.2595 18.7588 21.3482 18.7588 21.4363 18.7531C22.2982 18.682 23.0465 18.0467 23.1651 17.1897C23.2318 16.6994 23.1764 16.1935 23.1764 15.6783ZM16.6241 19.5333C15.8694 19.5333 15.1331 19.5333 14.3891 19.5333C13.6967 19.5475 13.0248 19.2975 12.5098 18.8341C12.4752 18.8092 12.4386 18.7874 12.4004 18.7687V21.8449H23.2013V18.7502C23.148 18.7907 23.1161 18.8113 23.0877 18.8362C22.5382 19.3251 21.8921 19.5468 21.1601 19.5347C20.5069 19.5276 19.8545 19.5347 19.2013 19.5347H18.9734C18.8974 20.6063 18.5275 21.0839 17.7984 21.0831C17.0692 21.0824 16.7036 20.6063 16.6241 19.5333ZM8.20163 3.08492C7.42066 1.87689 6.1853 1.94298 5.54348 2.46172C4.82428 3.04442 4.72204 4.09967 5.34043 4.87281C5.50231 4.54948 5.65637 4.23326 5.81824 3.92202C5.97231 3.6257 6.20163 3.57311 6.47355 3.76853C6.70926 3.93765 6.93362 4.12383 7.17501 4.283C7.5254 4.52231 7.92184 4.6858 8.33896 4.76301C8.75608 4.84022 9.18471 4.82945 9.59744 4.7314C10.1732 4.6042 10.6432 4.2894 11.1005 3.93978C11.6784 3.4985 11.7849 3.52763 12.1143 4.18707C12.218 4.39386 12.3237 4.59923 12.4359 4.81951C12.9975 3.7664 12.5069 2.34092 11.3887 1.77101C10.953 1.54555 10.5056 1.34368 10.0483 1.16629C9.10401 0.803169 8.18956 0.906207 7.2602 1.42211C7.9574 1.65661 8.47355 2.05028 8.8257 2.67135L8.20163 3.08492ZM23.2048 22.6486H12.4018V23.394H23.2048V22.6486ZM20.1207 14.881C20.1207 14.5115 20.1207 14.1661 20.1207 13.8208C20.1207 13.4754 19.9837 13.3411 19.6351 13.3404C18.7982 13.3404 17.9609 13.3404 17.1232 13.3404H16.4281C17.06 13.7405 17.454 14.2414 17.6713 14.8817L20.1207 14.881ZM8.86688 20.7719L8.91658 20.7769C8.92906 20.7512 8.93951 20.7246 8.94782 20.6973C9.17288 19.7266 9.40007 18.7552 9.61803 17.7838C9.63703 17.6831 9.62794 17.5791 9.59176 17.4832C9.43083 17.054 9.26091 16.6276 9.082 16.2041C9.05502 16.1402 8.96344 16.0563 8.91019 16.062C8.86888 16.0708 8.83005 16.0887 8.79652 16.1144C8.76299 16.1401 8.73561 16.1729 8.71636 16.2105C8.53603 16.6319 8.36848 17.0583 8.20447 17.4896C8.17121 17.57 8.16089 17.6581 8.17465 17.744C8.40113 18.7495 8.63472 19.7593 8.86688 20.7691V20.7719ZM8.90806 13.5685C9.28293 13.1897 9.64075 12.8302 9.99361 12.4671C10.0308 12.4269 10.0533 12.3753 10.0575 12.3207C10.0639 12.0961 10.0575 11.8709 10.0575 11.6157C9.30068 11.8456 8.49272 11.8456 7.73589 11.6157C7.73589 11.8602 7.73021 12.0769 7.74015 12.293C7.74445 12.3626 7.77223 12.4287 7.81895 12.4806C8.17039 12.8337 8.52609 13.1848 8.90806 13.5656V13.5685ZM17.4143 17.9977C17.4143 18.6607 17.4086 19.3031 17.4143 19.9448C17.4146 19.9935 17.4247 20.0417 17.444 20.0865C17.4632 20.1313 17.4913 20.1718 17.5264 20.2055C17.5615 20.2393 17.6031 20.2657 17.6486 20.2832C17.6941 20.3006 17.7426 20.3088 17.7913 20.3072C18.0043 20.3022 18.1654 20.1842 18.1711 19.9767C18.1881 19.3208 18.1775 18.6642 18.1775 17.9977H17.4143ZM16.8356 14.8781C16.536 14.3025 16.1086 13.9501 15.4867 13.8122V14.8781H16.8356ZM8.30387 14.0879C8.16187 14.3097 8.16187 14.5058 8.33582 14.7048C8.43461 14.832 8.52519 14.9654 8.60703 15.1041C8.77458 15.3535 9.0252 15.3528 9.19347 15.1041C9.29215 14.957 9.38942 14.8092 9.4874 14.6614C9.66063 14.4013 9.65992 14.3772 9.4803 14.1C8.9038 14.5854 8.9038 14.5854 8.30387 14.0879ZM5.01881 6.37219C4.76393 6.37858 4.48491 6.27981 4.3344 6.54628C4.3039 6.61158 4.28809 6.68277 4.28809 6.75485C4.28809 6.82692 4.3039 6.89812 4.3344 6.96341C4.48775 7.22775 4.76464 7.12827 5.01597 7.13396L5.01881 6.37219ZM12.7689 6.38356V7.12685C13.3191 7.16664 13.5428 7.05153 13.5406 6.75094C13.5385 6.45035 13.3078 6.33381 12.7689 6.38356Z" stroke="black" stroke-width="0.6" mask="url(#path-1-outside-1_369_846)"/>
</svg>
