<svg xmlns="http://www.w3.org/2000/svg" xmlns:xlink="http://www.w3.org/1999/xlink" fill="none" version="1.1" width="24" height="24" viewBox="0 0 24 24"><defs><clipPath id="master_svg0_0_5754"><rect x="0" y="0" width="24" height="24" rx="0"/></clipPath></defs><g clip-path="url(#master_svg0_0_5754)"><g><path d="M19.95,21C17.8667,21,15.8083,20.546,13.775,19.638C11.74167,18.73,9.891670000000001,17.4423,8.225,15.775C6.55833,14.1077,5.271,12.25767,4.3629999999999995,10.225C3.455,8.19233,3.000666667,6.134,3,4.05C3,3.75,3.0999999,3.5,3.3,3.3C3.5,3.0999999,3.75,3,4.05,3C4.05,3,8.1,3,8.1,3C8.33333,3,8.54167,3.0793332,8.725,3.238C8.90833,3.396667,9.016670000000001,3.584,9.05,3.8C9.05,3.8,9.7,7.3,9.7,7.3C9.733329999999999,7.56667,9.725,7.79167,9.675,7.975C9.625,8.15833,9.53333,8.31667,9.4,8.45C9.4,8.45,6.975,10.9,6.975,10.9C7.30833,11.51667,7.704,12.11233,8.161999999999999,12.687C8.620000000000001,13.2617,9.12433,13.816,9.675,14.35C10.19167,14.8667,10.733329999999999,15.346,11.3,15.788C11.86667,16.23,12.46667,16.634,13.1,17C13.1,17,15.45,14.65,15.45,14.65C15.6,14.5,15.796,14.3877,16.038,14.313C16.28,14.2383,16.5173,14.2173,16.75,14.25C16.75,14.25,20.2,14.95,20.2,14.95C20.4333,15.0167,20.625,15.1377,20.775,15.313C20.925,15.4883,21,15.684,21,15.9C21,15.9,21,19.95,21,19.95C21,20.25,20.9,20.5,20.7,20.7C20.5,20.9,20.25,21,19.95,21ZM6.025,9C6.025,9,7.675,7.35,7.675,7.35C7.675,7.35,7.25,5,7.25,5C7.25,5,5.025,5,5.025,5C5.1083300000000005,5.68333,5.225,6.3583300000000005,5.375,7.025C5.525,7.69167,5.74167,8.35,6.025,9ZM14.975,17.95C15.625,18.2333,16.2877,18.4583,16.963,18.625C17.6383,18.7917,18.3173,18.9,19,18.95C19,18.95,19,16.75,19,16.75C19,16.75,16.65,16.275,16.65,16.275C16.65,16.275,14.975,17.95,14.975,17.95Z" fill="#008FE8" fill-opacity="1"/></g></g></svg>