<svg xmlns="http://www.w3.org/2000/svg" xmlns:xlink="http://www.w3.org/1999/xlink" fill="none" version="1.1" width="24" height="24" viewBox="0 0 24 24"><defs><clipPath id="master_svg0_0_2270/0_277"><rect x="0" y="0" width="24" height="24" rx="0"/></clipPath></defs><g clip-path="url(#master_svg0_0_2270/0_277)"><g><path d="M12.00013609375,8C13.06099609375,8,14.07839609375,8.42143,14.82859609375,9.17157C15.57869609375,9.92172,16.000096093750003,10.93913,16.000096093750003,12C16.000096093750003,13.0609,15.57869609375,14.0783,14.82859609375,14.8284C14.07839609375,15.5786,13.06099609375,16,12.00013609375,16C10.93926609375,16,9.92185609375,15.5786,9.17170609375,14.8284C8.42156609375,14.0783,8.000136093750001,13.0609,8.000136093750001,12C8.000136093750001,10.93913,8.42156609375,9.92172,9.17170609375,9.17157C9.92185609375,8.42143,10.93926609375,8,12.00013609375,8ZM12.00013609375,10C11.46970609375,10,10.96099609375,10.21071,10.58592609375,10.58579C10.21084609375,10.96086,10.000136093750001,11.46957,10.000136093750001,12C10.000136093750001,12.5304,10.21084609375,13.0391,10.58592609375,13.4142C10.96099609375,13.7893,11.46970609375,14,12.00013609375,14C12.53059609375,14,13.03929609375,13.7893,13.41439609375,13.4142C13.78939609375,13.0391,14.00009609375,12.5304,14.00009609375,12C14.00009609375,11.46957,13.78939609375,10.96086,13.41439609375,10.58579C13.03929609375,10.21071,12.53059609375,10,12.00013609375,10ZM10.000136093750001,22C9.750136093750001,22,9.54013609375,21.82,9.500136093750001,21.58C9.500136093750001,21.58,9.13013609375,18.93,9.13013609375,18.93C8.500136093750001,18.68,7.96013609375,18.34,7.44013609375,17.939999999999998C7.44013609375,17.939999999999998,4.95013609375,18.95,4.95013609375,18.95C4.73013609375,19.03,4.46013609375,18.95,4.34013609375,18.73C4.34013609375,18.73,2.34013669375,15.27,2.34013669375,15.27C2.27893225375,15.167,2.25735549375,15.0452,2.27944128375,14.9274C2.30152709375,14.8096,2.36576319375,14.7039,2.4601370937500002,14.63C2.4601370937500002,14.63,4.5701360937499995,12.97,4.5701360937499995,12.97C4.5701360937499995,12.97,4.50013609375,12,4.50013609375,12C4.50013609375,12,4.5701360937499995,11,4.5701360937499995,11C4.5701360937499995,11,2.4601370937500002,9.370000000000001,2.4601370937500002,9.370000000000001C2.36576319375,9.29613,2.30152709375,9.19042,2.27944128375,9.07263C2.25735549375,8.95484,2.27893225375,8.83304,2.34013669375,8.73C2.34013669375,8.73,4.34013609375,5.27,4.34013609375,5.27C4.46013609375,5.05,4.73013609375,4.96,4.95013609375,5.05C4.95013609375,5.05,7.44013609375,6.05,7.44013609375,6.05C7.96013609375,5.66,8.500136093750001,5.32,9.13013609375,5.07C9.13013609375,5.07,9.500136093750001,2.42,9.500136093750001,2.42C9.54013609375,2.18,9.750136093750001,2,10.000136093750001,2C10.000136093750001,2,14.00009609375,2,14.00009609375,2C14.25009609375,2,14.46009609375,2.18,14.50009609375,2.42C14.50009609375,2.42,14.87009609375,5.07,14.87009609375,5.07C15.50009609375,5.32,16.04009609375,5.66,16.560096093749998,6.05C16.560096093749998,6.05,19.05009609375,5.05,19.05009609375,5.05C19.27009609375,4.96,19.54009609375,5.05,19.66009609375,5.27C19.66009609375,5.27,21.66009609375,8.73,21.66009609375,8.73C21.79009609375,8.95,21.73009609375,9.219999999999999,21.54009609375,9.370000000000001C21.54009609375,9.370000000000001,19.43009609375,11,19.43009609375,11C19.43009609375,11,19.50009609375,12,19.50009609375,12C19.50009609375,12,19.43009609375,13,19.43009609375,13C19.43009609375,13,21.54009609375,14.63,21.54009609375,14.63C21.73009609375,14.78,21.79009609375,15.05,21.66009609375,15.27C21.66009609375,15.27,19.66009609375,18.73,19.66009609375,18.73C19.54009609375,18.95,19.27009609375,19.04,19.05009609375,18.95C19.05009609375,18.95,16.560096093749998,17.95,16.560096093749998,17.95C16.04009609375,18.34,15.50009609375,18.68,14.87009609375,18.93C14.87009609375,18.93,14.50009609375,21.58,14.50009609375,21.58C14.46009609375,21.82,14.25009609375,22,14.00009609375,22C14.00009609375,22,10.000136093750001,22,10.000136093750001,22ZM11.25013609375,4C11.25013609375,4,10.88013609375,6.61,10.88013609375,6.61C9.68013609375,6.86,8.62013609375,7.5,7.85013609375,8.39C7.85013609375,8.39,5.4401360937500005,7.35,5.4401360937500005,7.35C5.4401360937500005,7.35,4.6901360937500005,8.65,4.6901360937500005,8.65C4.6901360937500005,8.65,6.80013609375,10.2,6.80013609375,10.2C6.40013609375,11.36667,6.40013609375,12.6333,6.80013609375,13.8C6.80013609375,13.8,4.68013609375,15.36,4.68013609375,15.36C4.68013609375,15.36,5.43013609375,16.66,5.43013609375,16.66C5.43013609375,16.66,7.86013609375,15.62,7.86013609375,15.62C8.63013609375,16.5,9.68013609375,17.14,10.87013609375,17.380000000000003C10.87013609375,17.380000000000003,11.24013609375,20,11.24013609375,20C11.24013609375,20,12.76009609375,20,12.76009609375,20C12.76009609375,20,13.13009609375,17.39,13.13009609375,17.39C14.32009609375,17.14,15.37009609375,16.5,16.14009609375,15.62C16.14009609375,15.62,18.57009609375,16.66,18.57009609375,16.66C18.57009609375,16.66,19.32009609375,15.36,19.32009609375,15.36C19.32009609375,15.36,17.20009609375,13.81,17.20009609375,13.81C17.60009609375,12.64,17.60009609375,11.37,17.20009609375,10.2C17.20009609375,10.2,19.31009609375,8.65,19.31009609375,8.65C19.31009609375,8.65,18.56009609375,7.35,18.56009609375,7.35C18.56009609375,7.35,16.15009609375,8.39,16.15009609375,8.39C15.36439609375,7.48032,14.29849609375,6.85767,13.12009609375,6.62C13.12009609375,6.62,12.75009609375,4,12.75009609375,4C12.75009609375,4,11.25013609375,4,11.25013609375,4Z" fill="#222222" fill-opacity="1"/></g></g></svg>