<svg width="56" height="56" viewBox="0 0 56 56" fill="none" xmlns="http://www.w3.org/2000/svg">
<rect width="56" height="56" rx="28" fill="white"/>
<path d="M12.205 27.8558C12.2043 30.6501 12.9344 33.3785 14.3227 35.7833L12.0723 44L20.481 41.7952C22.8067 43.0613 25.4126 43.7247 28.0606 43.7249H28.0676C36.8092 43.7249 43.9252 36.6116 43.9289 27.8683C43.9306 23.6316 42.2822 19.6477 39.2872 16.6504C36.2927 13.6533 32.3102 12.0019 28.0669 12C19.3242 12 12.2088 19.113 12.2052 27.8558" fill="url(#paint0_linear_293_5359)"/>
<path d="M24.0196 20.9294C23.712 20.2458 23.3884 20.232 23.0959 20.22C22.8564 20.2097 22.5826 20.2105 22.309 20.2105C22.0352 20.2105 21.5904 20.3135 21.2144 20.724C20.838 21.135 19.7773 22.1281 19.7773 24.1479C19.7773 26.1677 21.2485 28.1198 21.4536 28.394C21.659 28.6677 24.2938 32.9452 28.4667 34.5908C31.9348 35.9584 32.6405 35.6864 33.3932 35.6178C34.146 35.5495 35.8223 34.625 36.1642 33.6663C36.5065 32.7078 36.5065 31.8862 36.4039 31.7145C36.3013 31.5434 36.0275 31.4407 35.6169 31.2354C35.2064 31.0302 33.1878 30.0369 32.8116 29.8999C32.4352 29.763 32.1615 29.6946 31.8877 30.1057C31.6139 30.5162 30.8277 31.4407 30.5881 31.7145C30.3487 31.9889 30.1091 32.023 29.6986 31.8177C29.2878 31.6117 27.9656 31.1787 26.397 29.7802C25.1765 28.692 24.3526 27.3482 24.1131 26.9371C23.8736 26.5267 24.0874 26.3042 24.2933 26.0996C24.4777 25.9157 24.704 25.6202 24.9094 25.3806C25.1141 25.1408 25.1825 24.9698 25.3194 24.696C25.4564 24.4219 25.3878 24.1822 25.2853 23.9768C25.1825 23.7715 24.3847 21.7411 24.0196 20.9294Z" fill="white"/>
<defs>
<linearGradient id="paint0_linear_293_5359" x1="1604.91" y1="3212" x2="1604.91" y2="12" gradientUnits="userSpaceOnUse">
<stop stop-color="#1FAF38"/>
<stop offset="1" stop-color="#60D669"/>
</linearGradient>
</defs>
</svg>
