<svg width="58" height="52" viewBox="0 0 58 52" fill="none" xmlns="http://www.w3.org/2000/svg">
<path d="M34.6562 21.9465C34.1561 21.4466 33.478 21.1657 32.7709 21.1657C32.0638 21.1657 31.3856 21.4466 30.8855 21.9465L29.0002 23.8292C27.9943 24.8007 26.6471 25.3382 25.2487 25.3261C23.8504 25.3139 22.5127 24.753 21.5239 23.7642C20.535 22.7753 19.9741 21.4377 19.962 20.0393C19.9498 18.6409 20.4874 17.2937 21.4589 16.2878L36.4722 1.26915C40.0267 0.46069 43.7456 0.793415 47.1001 2.22002C50.4546 3.64662 53.2739 6.09448 55.1572 9.21553C57.0406 12.3366 57.892 15.9719 57.5904 19.6047C57.2889 23.2375 55.8497 26.6827 53.4776 29.4505L47.8562 35.1438L34.6562 21.9465ZM5.42955 5.91449C8.18816 3.15423 11.7975 1.40562 15.6735 0.95168C19.5494 0.497736 23.4651 1.36502 26.7869 3.41315L17.6856 12.5172C15.7143 14.4844 14.5907 17.1446 14.5547 19.9293C14.5187 22.714 15.5733 25.4023 17.493 27.4199C19.4127 29.4375 22.0453 30.6242 24.8284 30.7266C27.6114 30.829 30.3241 29.8389 32.3869 27.9678L32.7709 27.6025L44.0856 38.9145L32.7709 50.2292C31.7707 51.229 30.4144 51.7907 29.0002 51.7907C27.586 51.7907 26.2297 51.229 25.2296 50.2292L5.42688 30.4265C2.17657 27.1759 0.350586 22.7673 0.350586 18.1705C0.350586 13.5737 2.17924 9.16507 5.42955 5.91449Z" fill="#005E99"/>
</svg>
