<svg xmlns="http://www.w3.org/2000/svg" xmlns:xlink="http://www.w3.org/1999/xlink" fill="none" version="1.1" width="30" height="21.99995231628418" viewBox="0 0 30 21.99995231628418"><g><path d="M28.55,3.8312C28.55,3.8312,15.275,0.0387029,15.275,0.0387029C15.1398,-0.0000419803,14.998,-0.00983847,14.8588,0.00995295C14.8588,0.00995295,1.7175,1.88745,1.7175,1.88745C1.24169,1.95743,0.806747,2.1957,0.491616,2.55899C0.176485,2.92229,0.00205917,3.38653,0,3.86745C0,3.86745,0,18.1325,0,18.1325C0.00205917,18.6134,0.176485,19.0776,0.491616,19.4409C0.806747,19.8042,1.24169,20.0425,1.7175,20.1125C1.7175,20.1125,14.8588,21.9875,14.8588,21.9875C14.9055,21.9948,14.9527,21.9989,15,22C15.093,21.9999,15.1856,21.9868,15.275,21.9612C15.275,21.9612,28.55,18.1687,28.55,18.1687C28.9664,18.0481,29.3325,17.7961,29.5939,17.4503C29.8552,17.1045,29.9977,16.6834,30,16.25C30,16.25,30,5.74995,30,5.74995C29.9977,5.3165,29.8552,4.89542,29.5939,4.5496C29.3325,4.20378,28.9664,3.95177,28.55,3.8312ZM11,9.99995C11,9.99995,9,9.99995,9,9.99995C9,9.99995,9,2.86745,9,2.86745C9,2.86745,14,2.15245,14,2.15245C14,2.15245,14,19.8475,14,19.8475C14,19.8475,9,19.1325,9,19.1325C9,19.1325,9,12,9,12C9,12,11,12,11,12C11.2652,12,11.5196,11.8946,11.7071,11.7071C11.8946,11.5195,12,11.2652,12,11C12,10.7347,11.8946,10.4804,11.7071,10.2928C11.5196,10.1053,11.2652,9.99995,11,9.99995ZM2,3.86745C2,3.86745,7,3.15245,7,3.15245C7,3.15245,7,9.99995,7,9.99995C7,9.99995,5,9.99995,5,9.99995C4.73478,9.99995,4.48043,10.1053,4.29289,10.2928C4.10536,10.4804,4,10.7347,4,11C4,11.2652,4.10536,11.5195,4.29289,11.7071C4.48043,11.8946,4.73478,12,5,12C5,12,7,12,7,12C7,12,7,18.8475,7,18.8475C7,18.8475,2,18.1325,2,18.1325C2,18.1325,2,3.86745,2,3.86745ZM16,19.6737C16,19.6737,16,2.3262,16,2.3262C16,2.3262,28,5.74995,28,5.74995C28,5.74995,28,16.25,28,16.25C28,16.25,16,19.6737,16,19.6737Z" fill="#003759" fill-opacity="1"/></g></svg>