<svg xmlns="http://www.w3.org/2000/svg" xmlns:xlink="http://www.w3.org/1999/xlink" fill="none" version="1.1" width="56" height="56" viewBox="0 0 56 56"><defs><clipPath id="master_svg0_0_5687"><rect x="0" y="0" width="56" height="56" rx="0"/></clipPath><linearGradient x1="0.5" y1="-3.0616171314629196e-17" x2="0.5" y2="1" id="master_svg1_0_5690"><stop offset="0%" stop-color="#F30000" stop-opacity="1"/><stop offset="100%" stop-color="#11A3FF" stop-opacity="1"/></linearGradient></defs><g clip-path="url(#master_svg0_0_5687)"><g><path d="M11.92275,4.2104997634887695C11.92275,4.2104997634887695,9.45875,6.670999763488769,9.45875,6.670999763488769C9.45875,6.670999763488769,13.125,10.33549976348877,13.125,10.33549976348877C13.125,10.33549976348877,15.5855,7.87499976348877,15.5855,7.87499976348877C15.5855,7.87499976348877,11.92275,4.2104997634887695,11.92275,4.2104997634887695ZM44.079,4.2104997634887695C44.079,4.2104997634887695,40.4128,7.87499976348877,40.4128,7.87499976348877C40.4128,7.87499976348877,42.875,10.33549976348877,42.875,10.33549976348877C42.875,10.33549976348877,46.5395,6.67274976348877,46.5395,6.67274976348877C46.5395,6.67274976348877,44.079,4.2104997634887695,44.079,4.2104997634887695ZM28,5.30249976348877C27.4225,5.30949976348877,26.838,5.3427497634887695,26.25,5.414499763488769C26.2325,5.414499763488769,26.215,5.410999763488769,26.1975,5.414499763488769C19.0995,6.228249763488769,13.4505,11.96299976348877,12.46875,19.029499763488772C11.68475,24.71699976348877,14.0297,29.874199763488768,17.9375,33.19569976348877C19.536,34.55989976348877,20.6172,36.43199976348877,21,38.49829976348877C21,38.49829976348877,21,48.99829976348877,21,48.99829976348877C21,48.99829976348877,24.99,48.99829976348877,24.99,48.99829976348877C25.599,50.04299976348877,26.7103,50.74829976348877,28,50.74829976348877C29.2897,50.74829976348877,30.401,50.04299976348877,31.01,48.99829976348877C31.01,48.99829976348877,35,48.99829976348877,35,48.99829976348877C35,48.99829976348877,35,41.99829976348877,35,41.99829976348877C35,41.99829976348877,35.164500000000004,41.99829976348877,35.164500000000004,41.99829976348877C35.164500000000004,41.99829976348877,35.164500000000004,39.919299763488766,35.164500000000004,39.919299763488766C35.164500000000004,37.35369976348877,36.498,34.76719976348877,38.6645,32.75649976348877C41.5625,29.85499976348877,43.75,25.73369976348877,43.75,20.99999976348877C43.75,12.35499976348877,36.6345,5.221999763488769,28,5.30249976348877ZM28,8.802499763488768C34.7638,8.707999763488768,40.25,14.244999763488769,40.25,20.99999976348877C40.25,24.66449976348877,38.5525,27.89149976348877,36.2023,30.23999976348877C36.2023,30.23999976348877,36.2583,30.29599976348877,36.2583,30.29599976348877C33.9227,32.449699763488766,32.412400000000005,35.35139976348877,31.9882,38.499999763488766C31.9882,38.499999763488766,24.3337,38.499999763488766,24.3337,38.499999763488766C23.9487,35.50049976348877,22.6625,32.597199763488774,20.2318,30.51479976348877C17.139499999999998,27.88979976348877,15.2968,23.93469976348877,15.9128,19.46869976348877C16.677500000000002,13.956249763488769,21.1505,9.523499763488768,26.6315,8.91624976348877C27.084,8.853159763488769,27.5397,8.81576976348877,27.9965,8.80424976348877C27.9965,8.80424976348877,28,8.802499763488768,28,8.802499763488768ZM3.5,20.99999976348877C3.5,20.99999976348877,3.5,24.49999976348877,3.5,24.49999976348877C3.5,24.49999976348877,8.75,24.49999976348877,8.75,24.49999976348877C8.75,24.49999976348877,8.75,20.99999976348877,8.75,20.99999976348877C8.75,20.99999976348877,3.5,20.99999976348877,3.5,20.99999976348877ZM47.25,20.99999976348877C47.25,20.99999976348877,47.25,24.49999976348877,47.25,24.49999976348877C47.25,24.49999976348877,52.5,24.49999976348877,52.5,24.49999976348877C52.5,24.49999976348877,52.5,20.99999976348877,52.5,20.99999976348877C52.5,20.99999976348877,47.25,20.99999976348877,47.25,20.99999976348877ZM13.125,35.16449976348877C13.125,35.16449976348877,9.4605,38.82719976348877,9.4605,38.82719976348877C9.4605,38.82719976348877,11.92275,41.28949976348877,11.92275,41.28949976348877C11.92275,41.28949976348877,15.5837,37.624999763488766,15.5837,37.624999763488766C15.5837,37.624999763488766,13.125,35.16449976348877,13.125,35.16449976348877ZM42.875,35.16449976348877C42.875,35.16449976348877,40.4145,37.624999763488766,40.4145,37.624999763488766C40.4145,37.624999763488766,44.0773,41.28949976348877,44.0773,41.28949976348877C44.0773,41.28949976348877,46.5395,38.82719976348877,46.5395,38.82719976348877C46.5395,38.82719976348877,42.875,35.16449976348877,42.875,35.16449976348877ZM24.5,41.999999763488766C24.5,41.999999763488766,31.5,41.999999763488766,31.5,41.999999763488766C31.5,41.999999763488766,31.5,45.499999763488766,31.5,45.499999763488766C31.5,45.499999763488766,24.5,45.499999763488766,24.5,45.499999763488766C24.5,45.499999763488766,24.5,41.999999763488766,24.5,41.999999763488766Z" fill="url(#master_svg1_0_5690)" fill-opacity="1"/></g></g></svg>