<svg xmlns="http://www.w3.org/2000/svg" xmlns:xlink="http://www.w3.org/1999/xlink" fill="none" version="1.1" width="24" height="24" viewBox="0 0 24 24"><defs><clipPath id="master_svg0_0_1669/0_277"><rect x="0" y="0" width="24" height="24" rx="0"/></clipPath></defs><g clip-path="url(#master_svg0_0_1669/0_277)"><g><path d="M6,14C6,14,14,14,14,14C14,14,14,12,14,12C14,12,6,12,6,12C6,12,6,14,6,14ZM6,11C6,11,18,11,18,11C18,11,18,9,18,9C18,9,6,9,6,9C6,9,6,11,6,11ZM6,8C6,8,18,8,18,8C18,8,18,6,18,6C18,6,6,6,6,6C6,6,6,8,6,8ZM2,22C2,22,2,4,2,4C2,3.45,2.196,2.979333,2.588,2.588C2.98,2.196667,3.4506699999999997,2.000666667,4,2C4,2,20,2,20,2C20.55,2,21.021,2.196,21.413,2.588C21.805,2.98,22.0007,3.4506699999999997,22,4C22,4,22,16,22,16C22,16.55,21.8043,17.021,21.413,17.413C21.0217,17.805,20.5507,18.0007,20,18C20,18,6,18,6,18C6,18,2,22,2,22ZM5.15,16C5.15,16,20,16,20,16C20,16,20,4,20,4C20,4,4,4,4,4C4,4,4,17.125,4,17.125C4,17.125,5.15,16,5.15,16Z" fill="#222222" fill-opacity="1"/></g></g></svg>