<svg width="32" height="32" viewBox="0 0 32 32" fill="none" xmlns="http://www.w3.org/2000/svg">
<rect width="32" height="32" rx="4" fill="#8D9DF7"/>
<path d="M24.4688 11.5195L16.1719 9.14919C16.0874 9.12497 15.9987 9.11885 15.9117 9.13122L7.69844 10.3047C7.40106 10.3484 7.12922 10.4973 6.93226 10.7244C6.7353 10.9514 6.62629 11.2416 6.625 11.5422V20.4578C6.62629 20.7584 6.7353 21.0485 6.93226 21.2756C7.12922 21.5026 7.40106 21.6515 7.69844 21.6953L15.9117 22.8672C15.9409 22.8717 15.9704 22.8743 16 22.875C16.0581 22.8749 16.116 22.8668 16.1719 22.8508L24.4688 20.4804C24.729 20.4051 24.9578 20.2476 25.1212 20.0314C25.2845 19.8153 25.3736 19.5521 25.375 19.2812V12.7187C25.3736 12.4478 25.2845 12.1846 25.1212 11.9685C24.9578 11.7524 24.729 11.5949 24.4688 11.5195ZM13.5 15.375H12.25V10.9172L15.375 10.4703V21.5297L12.25 21.0828V16.625H13.5C13.6658 16.625 13.8247 16.5591 13.9419 16.4419C14.0592 16.3247 14.125 16.1657 14.125 16C14.125 15.8342 14.0592 15.6752 13.9419 15.558C13.8247 15.4408 13.6658 15.375 13.5 15.375ZM7.875 11.5422L11 11.0953V15.375H9.75C9.58424 15.375 9.42527 15.4408 9.30806 15.558C9.19085 15.6752 9.125 15.8342 9.125 16C9.125 16.1657 9.19085 16.3247 9.30806 16.4419C9.42527 16.5591 9.58424 16.625 9.75 16.625H11V20.9047L7.875 20.4578V11.5422ZM16.625 21.4211V10.5789L24.125 12.7187V19.2812L16.625 21.4211Z" fill="#0E2087"/>
</svg>
