<svg xmlns="http://www.w3.org/2000/svg" xmlns:xlink="http://www.w3.org/1999/xlink" fill="none" version="1.1" width="24" height="24" viewBox="0 0 24 24"><defs><clipPath id="master_svg0_0_1666/0_277"><rect x="0" y="0" width="24" height="24" rx="0"/></clipPath></defs><g clip-path="url(#master_svg0_0_1666/0_277)"><g><path d="M5,22C4.45,22,3.97933,21.8043,3.588,21.413C3.19667,21.0217,3.00067,20.5507,3,20C3,20,3,8.725,3,8.725C2.7,8.54167,2.458333,8.30433,2.275,8.013C2.0916668,7.72167,2,7.384,2,7C2,7,2,4,2,4C2,3.45,2.196,2.979333,2.588,2.588C2.98,2.196667,3.4506699999999997,2.000666667,4,2C4,2,20,2,20,2C20.55,2,21.021,2.196,21.413,2.588C21.805,2.98,22.0007,3.4506699999999997,22,4C22,4,22,7,22,7C22,7.38333,21.9083,7.721,21.725,8.013C21.5417,8.305,21.3,8.542,21,8.724C21,8.724,21,20,21,20C21,20.55,20.8043,21.021,20.413,21.413C20.0217,21.805,19.5507,22.0007,19,22C19,22,5,22,5,22ZM5,9C5,9,5,20,5,20C5,20,19,20,19,20C19,20,19,9,19,9C19,9,5,9,5,9ZM4,7C4,7,20,7,20,7C20,7,20,4,20,4C20,4,4,4,4,4C4,4,4,7,4,7ZM9,14C9,14,15,14,15,14C15,14,15,12,15,12C15,12,9,12,9,12C9,12,9,14,9,14Z" fill="#222222" fill-opacity="1"/></g></g></svg>