<?xml version="1.0" encoding="utf-8"?>
<!-- Generator: Adobe Illustrator 27.5.0, SVG Export Plug-In . SVG Version: 6.00 Build 0)  -->
<svg version="1.1" id="Capa_1" xmlns="http://www.w3.org/2000/svg" xmlns:xlink="http://www.w3.org/1999/xlink" x="0px" y="0px"
	 viewBox="0 0 425.197 425.197" style="enable-background:new 0 0 425.197 425.197;" xml:space="preserve">
<g id="Capa_2">
</g>
<path style="fill:#432918;" d="M60.345,231.361c-6.159,9.479-9.374,20.736-9.376,31.999c0,3.527,0.316,7.056,0.96,10.531
	c-4.051,1.462-6.691,4.474-6.161,7.391c0.155,0.856,0.569,1.624,1.186,2.28c-0.784,1.22-1.478,2.501-2.148,3.723
	c-0.818,1.493-1.491,3.064-1.933,4.708c-0.257,0.957-0.437,1.962-0.311,2.947l0.013,0.095c0.139,0.937,0.592,1.858,1.365,2.405
	c1.268,0.898,3.049,0.591,4.419-0.141c2.985-1.598,5.327-7.886,6.26-7.792c0.774,0.279,0.551,5.659,1.692,8.231
	c0.577,1.3,1.596,2.644,3.018,2.687c0.993,0.03,1.911-0.624,2.439-1.466c0.528-0.841,0.725-1.845,0.842-2.831
	c0.356-3.003,0.05-6.082-0.89-8.955c-0.067-0.205-0.125-0.462,0.033-0.608c0.199-0.185,0.515-0.007,0.716,0.174
	c1.934,1.741,3.58,3.589,6.299,4.044c0.936,0.157,2.259,0.092,2.791-0.842c0.585-1.028,0.103-2.431-0.363-3.402
	c-1.317-2.747-3.569-4.969-6.157-6.586c0.242-0.722,0.31-1.464,0.177-2.2c-0.529-2.917-4.059-4.81-8.365-4.754
	c-0.589-3.173-0.88-6.404-0.88-9.638c-0.002-10.311,2.961-20.653,8.568-29.274c3.937-6.065,9.186-11.276,15.23-15.291
	c-1.099-1.272-1.865-2.843-2.226-4.523C70.718,218.699,64.798,224.519,60.345,231.361z"/>
<path style="fill:#432918;" d="M382.623,167.427c-0.139-0.937-0.592-1.858-1.365-2.405c-1.267-0.897-3.049-0.591-4.419,0.141
	c-2.985,1.598-5.327,7.886-6.26,7.792c-0.774-0.279-0.551-5.659-1.692-8.231c-0.577-1.3-1.596-2.644-3.018-2.687
	c-0.992-0.03-1.911,0.624-2.439,1.466c-0.528,0.841-0.725,1.845-0.842,2.831c-0.356,3.002-0.05,6.082,0.89,8.955
	c0.067,0.204,0.125,0.462-0.033,0.608c-0.198,0.185-0.515,0.007-0.716-0.174c-1.934-1.741-3.579-3.589-6.299-4.044
	c-0.936-0.157-2.259-0.092-2.79,0.842c-0.585,1.028-0.103,2.431,0.363,3.402c1.317,2.747,3.569,4.969,6.157,6.586
	c-0.242,0.722-0.31,1.464-0.177,2.2c0.53,2.917,4.059,4.809,8.365,4.754c0.588,3.173,0.879,6.403,0.879,9.638
	c0.002,10.311-2.961,20.653-8.568,29.274c-5.357,8.253-13.143,14.924-22.055,19.153c-0.45,2.047-0.955,4.082-1.517,6.104
	c11.266-4.433,21.139-12.352,27.765-22.532c6.159-9.479,9.373-20.737,9.376-31.999c0-3.527-0.316-7.056-0.96-10.53
	c4.051-1.462,6.691-4.474,6.161-7.391c-0.155-0.856-0.57-1.624-1.186-2.28c0.784-1.22,1.478-2.501,2.148-3.723
	c0.818-1.493,1.491-3.064,1.933-4.708c0.257-0.957,0.437-1.962,0.311-2.947L382.623,167.427z"/>
<path style="fill:#7F3518;" d="M212.362,94.097c-0.179,0.666-0.335,1.337-0.469,2.011c-0.023,0.118-0.046,0.235-0.068,0.353
	c-0.044,0.236-0.085,0.472-0.123,0.708c-0.038,0.236-0.074,0.473-0.107,0.71c-0.016,0.118-0.032,0.237-0.047,0.356
	c-0.03,0.237-0.057,0.475-0.082,0.713c-0.023,0.229-0.044,0.457-0.062,0.686c-0.01,0.128-0.02,0.257-0.029,0.385
	c-0.008,0.119-0.015,0.238-0.022,0.357c-0.02,0.357-0.033,0.715-0.04,1.072c-0.003,0.119-0.004,0.238-0.005,0.357
	c-0.001,0.119-0.001,0.238-0.001,0.357c0.004,0.952,0.054,1.902,0.15,2.847c0.036,0.354,0.079,0.707,0.128,1.06
	c0.148,1.057,0.354,2.104,0.621,3.135c2.134,8.25,8.044,16.063,16.382,20.048c0.141,0.068,0.283,0.134,0.426,0.199
	c0.428,0.196,0.862,0.382,1.303,0.557c0.147,0.059,0.294,0.116,0.442,0.172c0.445,0.169,0.899,0.318,1.353,0.466
	c-0.009,0.001-0.017,0.001-0.026,0.001c8.85,2.891,19.208,1.826,27.053-2.863c0.542-0.324,1.24-0.193,1.609,0.306
	c3.331,4.498,7.914,8.211,13.414,10.294c5.982,2.266,12.776,2.648,19.068,1.255c0.865-0.191,1.622,0.557,1.398,1.379
	c-1.361,4.996-1.462,10.289-0.185,15.226c2.315,8.949,9.072,17.384,18.554,20.976c5.352,2.027,11.353,2.547,17.064,1.636l-0.002,0
	c-13.469-1.954-20.108-7.779-25.224-13.357c-5.115-5.578-8.012-13.137-7.934-20.705c0.029-2.832-0.025-6.476-2.682-7.457
	c-1.095-0.404-2.306-0.165-3.462-0.013c-5.927,0.782-12.145-0.96-16.802-4.708c-4.687-3.772-9.839-11.451-13.744-12.652
	c-1.931-0.594-6.548,2.814-9.505,3.502c-10.38,2.415-22.059,0.044-29.837-7.242c-6.397-5.991-9.601-15.39-7.982-23.889
	c-0.175,0.527-0.336,1.058-0.483,1.592C212.392,93.985,212.377,94.041,212.362,94.097z"/>
<g>
	<path style="fill:#E2A674;" d="M334.126,179.068c-0.195-0.57-0.823-0.884-1.43-0.737c-0.868,0.21-1.746,0.385-2.632,0.526
		c-5.711,0.911-11.712,0.391-17.064-1.636c-9.481-3.592-16.239-12.027-18.554-20.976c-1.277-4.937-1.176-10.23,0.185-15.226
		c0.224-0.823-0.533-1.571-1.398-1.379c-6.292,1.393-13.086,1.011-19.068-1.255c-5.5-2.083-10.083-5.797-13.414-10.294
		c-0.37-0.499-1.067-0.63-1.609-0.306c-7.845,4.689-18.203,5.754-27.053,2.863c-1.698,0.094-3.446-0.065-5.223-0.526
		c-5.626-1.46-10.733-5.086-14.856-9.081c-3.574-3.464-6.573-7.623-10.907-10.223c-7.525-4.514-17.249-2.45-23.413,3.455
		c-14.378,13.774,1.943,30.656,2.184,45.912c0.174,11.012-10.858,16.312-19.384,20.517c-8.576,4.229-17.338,8.557-22.484,17.031
		c-6.55,10.786-4.212,24.447,3.672,33.389c0.072-0.125,0.146-0.249,0.225-0.371c1.145-1.787,2.998-2.882,5.018-3.24
		c1.652-1.217,3.797-1.711,5.88-1.436c2.431,0.321,4.896,1.609,6.573,3.396c1.805,1.923,2.934,4.621,2.981,7.265
		c0.023,1.279-0.236,2.577-0.798,3.73c8.347,0.253,16.732-2.581,25.091-2.927c5.384-0.223,11.385,0.72,15.543,4.435
		c3.513,3.14,5.069,7.794,6.251,12.209c2.058,7.691,3.12,16.178,8.889,22.178c4.934,5.132,12.057,6.765,18.945,5.856
		c6.54-0.863,12.749-3.689,18.037-7.607c-0.159-0.655-0.259-1.326-0.306-1.999c-0.146-2.089,0.133-4.474,1.158-6.326
		c1.026-1.852,2.517-3.446,4.303-4.585c2.088-1.331,4.556-2.032,7.015-2.061c1.064-1.975,2.088-4.005,3.157-6.065
		c0.421-0.811,0.851-1.634,1.294-2.462c0.006-0.101,0.017-0.201,0.03-0.3c0.086-0.615,0.333-1.216,0.737-1.69
		c0.181-0.212,0.392-0.389,0.623-0.535c3.94-6.922,8.988-13.621,16.972-15.621c12.381-3.101,20.444,6.566,31.318,9.951
		c7.613,2.37,14.43-0.026,19.642-4.803C342.902,218.575,340.696,198.3,334.126,179.068z"/>
</g>
<path style="fill:#EAB38B;" d="M321.06,199.447c-2.74-2.825-6.021-4.942-9.521-6.748c-3.804-1.963-7.866-3.559-11.774-5.297
	c-7.503-3.338-15.2-7.909-18.396-15.473c-0.939-2.222-1.43-4.577-1.835-6.961c-0.117,0.113-0.237,0.223-0.361,0.328
	c-1.359,1.148-3.128,1.625-4.88,1.658c-0.392,0.007-0.797-0.005-1.205-0.039c-0.737,0.204-1.508,0.303-2.274,0.318
	c-1.674,0.031-3.568-0.288-5.005-1.181c-1.438-0.894-2.65-2.15-3.487-3.622c-1.382-2.43-1.731-5.416-0.993-8.073
	c0.498-1.794,1.491-3.437,2.995-4.657c1.621-1.314,3.688-1.765,5.684-1.475c0.465-0.152,0.944-0.255,1.429-0.311
	c-0.222-0.111-0.449-0.214-0.682-0.308c-3.53-1.419-7.104-0.506-10.676,1.049c0.179,0.553,0.163,1.17-0.035,1.733
	c-0.268,0.762-0.85,1.468-1.539,1.887c-0.742,0.451-1.687,0.633-2.542,0.469c-0.054-0.01-0.108-0.023-0.162-0.036
	c-0.553,0.166-1.149,0.207-1.707,0.1c-0.471-0.09-0.925-0.301-1.282-0.623c-0.63,0.292-1.259,0.569-1.887,0.819
	c-8.068,3.222-17.757,2-24.772-3.124c-3.722-2.719-6.64-6.375-10-9.531c-3.361-3.155-7.458-5.919-12.062-6.151
	c-19.564-0.984-5.114,22.366-4.303,30.346c0.777,7.652-4.448,14.421-8.762,20.788c-1.841,2.718-3.57,5.803-4.652,8.967
	c2.239,2.21,3.708,5.919,3.708,10.122c0,1.93-0.31,3.756-0.862,5.38c3.945,3.589,10.083,4.763,15.629,5.151
	c0.464,0.033,0.931,0.063,1.4,0.094c0.069-0.054,0.139-0.107,0.209-0.159c0.077-0.057,0.153-0.112,0.231-0.166
	c0.077-0.054,0.155-0.107,0.234-0.158c0.118-0.077,0.237-0.151,0.357-0.222c0.08-0.047,0.16-0.094,0.241-0.138
	c0.81-0.447,1.668-0.76,2.56-0.919c0.089-0.016,0.179-0.03,0.269-0.043c0.36-0.051,0.724-0.077,1.094-0.077
	c2.665,0,5.103,1.366,6.975,3.626c2.214,0.708,4.274,1.742,6.058,3.293c6.27,5.45,6.566,14.964,10.333,22.368
	c1.744,3.427,4.748,6.686,8.588,6.872c3.522,0.171,6.629-2.29,8.888-4.997c5.66-6.783,8.159-15.582,12.261-23.406
	c4.102-7.824,11.048-15.352,19.881-15.549c0.468-0.011,0.93-0.001,1.387,0.027c0.562-1.945,1.806-3.686,3.445-4.831
	c1.273-0.889,2.786-1.419,4.403-1.404c1.523,0.014,2.914,0.634,3.995,1.624c1.618,0.599,2.943,1.896,3.678,3.502
	c0.838,1.829,1.019,4.104,0.51,6.049c-0.169,0.647-0.418,1.281-0.735,1.883c3.175,2.185,6.349,4.453,9.735,6.073
	c2.966,1.42,6.431,2.35,9.522,1.229C329.457,216.223,325.994,204.533,321.06,199.447z"/>
<path style="fill:#D5975D;" d="M320.614,242.919c-10.874-3.385-18.937-13.053-31.318-9.951c-7.984,2-13.032,8.699-16.972,15.621
	c0.386-0.244,0.829-0.399,1.281-0.482c0.69-0.127,1.493-0.124,2.148,0.148c0.655,0.272,1.241,0.708,1.687,1.26
	c0.736,0.91,1.083,2.12,0.959,3.268c-0.012,0.111-0.029,0.221-0.05,0.33c0.232,0.64,0.32,1.331,0.248,2.001
	c-0.084,0.775-0.382,1.521-0.921,2.128c-0.825,0.929-2.143,1.197-3.312,0.851c-0.968-0.286-1.888-0.968-2.455-1.802
	c-0.61-0.898-0.897-2.067-0.746-3.145c0.009-0.068,0.021-0.136,0.035-0.203c-0.209-0.585-0.303-1.215-0.263-1.827
	c-0.443,0.828-0.873,1.651-1.294,2.462c-1.069,2.059-2.092,4.09-3.157,6.065c1.013-0.012,2.023,0.089,3.005,0.309
	c2.272,0.508,4.387,1.644,6.006,3.446c1.744,1.94,2.438,4.494,2.202,7.005c0.903,2.355,0.789,5.058-0.217,7.438
	c-1.174,2.777-3.505,5.278-6.17,6.682c-2.868,1.511-6.434,1.97-9.583,1.163c-1.797-0.461-3.498-1.394-4.771-2.754
	c-1.52-1.624-2.228-3.804-2.38-5.99c-0.034-0.49-0.044-0.995-0.028-1.507c-0.09-0.27-0.167-0.544-0.235-0.822
	c-5.288,3.918-11.497,6.744-18.037,7.607c-6.888,0.909-14.011-0.724-18.945-5.856c-5.769-6.001-6.831-14.487-8.889-22.178
	c-1.181-4.415-2.737-9.07-6.251-12.209c-4.158-3.715-10.159-4.658-15.543-4.435c-8.36,0.346-16.744,3.181-25.091,2.927
	c-0.101,0.207-0.211,0.409-0.332,0.606c-0.945,1.542-2.502,2.568-4.184,3.16c-0.377,0.133-0.771,0.25-1.176,0.347
	c-0.647,0.432-1.359,0.774-2.095,1.033c-1.607,0.565-3.538,0.862-5.211,0.458c-1.674-0.405-3.246-1.23-4.525-2.385
	c-2.111-1.906-3.401-4.679-3.538-7.48c-0.085-1.752,0.282-3.514,1.181-5.083c-7.885-8.942-10.222-22.603-3.672-33.389
	c5.146-8.474,13.909-12.802,22.484-17.031c8.526-4.205,19.558-9.505,19.384-20.517c-0.241-15.256-16.563-32.138-2.184-45.912
	c6.164-5.905,15.888-7.969,23.413-3.455c4.334,2.6,7.333,6.76,10.907,10.223c4.123,3.995,9.23,7.621,14.856,9.081
	c1.777,0.461,3.525,0.62,5.223,0.526c0.009-0.001,0.017-0.001,0.026-0.001c-0.454-0.148-0.907-0.297-1.353-0.466
	c-0.148-0.056-0.296-0.113-0.442-0.172c-0.441-0.175-0.875-0.361-1.303-0.557c-0.143-0.065-0.285-0.132-0.426-0.199
	c-8.338-3.984-14.248-11.798-16.382-20.048c-0.267-1.031-0.474-2.078-0.621-3.135c-0.049-0.352-0.092-0.705-0.128-1.06
	c-0.096-0.944-0.146-1.895-0.15-2.847c-0.001-0.119,0-0.238,0.001-0.357c0.001-0.119,0.002-0.238,0.005-0.357
	c0.007-0.357,0.02-0.715,0.04-1.072c0.007-0.119,0.014-0.238,0.022-0.357c0.009-0.128,0.018-0.257,0.029-0.385
	c0.018-0.229,0.039-0.457,0.062-0.686c0.024-0.238,0.051-0.475,0.082-0.713c0.015-0.119,0.031-0.237,0.047-0.356
	c0.033-0.237,0.068-0.474,0.107-0.71c0.038-0.237,0.079-0.473,0.123-0.708c0.022-0.118,0.045-0.236,0.068-0.353
	c0.133-0.675,0.29-1.345,0.469-2.011c0.015-0.056,0.03-0.112,0.045-0.168c0.147-0.534,0.307-1.065,0.483-1.592
	c0.615-1.848,1.406-3.645,2.366-5.355c0.113-0.202,0.155-0.417,0.138-0.623c-0.002-0.023-0.005-0.046-0.008-0.068
	c-0.074-0.499-0.492-0.929-1.077-0.968c-4.702-0.315-9.433-0.377-14.172-0.174c-0.998,0.043-1.996,0.097-2.994,0.163l-0.09,0.012
	c-0.05,0.019-0.099,0.039-0.148,0.058c-0.027,0.013-0.056,0.021-0.083,0.033c-42.537,16.491-46.341,33.224-49.251,41.007
	c-1.778,4.757-3.623,9.568-5.371,14.33c-0.284,0.772-0.596,1.507-0.936,2.207c2.19-0.891,4.614-1.272,6.927-1.021
	c1.964,0.213,3.899,0.94,5.447,2.181c1.849,1.482,2.925,3.673,3.417,5.955c0.11,0.511,0.198,1.043,0.258,1.585
	c0.455,0.912,0.782,1.893,0.998,2.892c0.47,2.181,0.538,4.738-0.262,6.845c-0.801,2.109-2.132,4.015-3.842,5.486
	c-2.823,2.429-6.637,3.65-10.299,3.366c-2.472-0.191-4.874-1.069-6.855-2.723c-2.133-1.782-3.251-4.369-3.384-7.052
	c-1.309-2.347-1.599-5.214-0.899-7.875c0.038-0.142,0.078-0.284,0.121-0.426c-0.714,0.469-1.46,0.921-2.238,1.359
	c-8.543,4.812-15.617,10.106-21.29,18.276c-5.378,7.744-8.854,16.891-9.578,26.313c-0.186,2.418-0.173,4.845,0.04,7.249
	c0.125,0.159,0.245,0.321,0.362,0.486c1.21,1.709,2.212,3.891,2.298,6.006c0.052,1.285-0.092,2.578-0.422,3.821
	c1.141,3.201,2.69,6.26,4.656,9.082c5.481,7.869,13.553,13.958,17.813,22.667c5.508,11.264-1.046,23.533,2.603,35.109
	c2.493,7.908,9.545,13.177,16.895,16.286c7.954,3.365,16.874,4.995,25.494,4.291c9.264-0.756,18.267-3.308,27.358-5.096
	c0.066-0.013,0.132-0.026,0.199-0.039c0.068-1.869,0.742-3.661,1.843-5.172c0.427-2.486,1.906-4.751,3.987-6.283
	c2.428-1.788,5.71-2.746,8.718-2.592c3.238,0.166,6.537,1.594,8.832,3.897c1.309,1.314,2.294,2.986,2.694,4.805
	c0.377,1.718,0.14,3.476-0.464,5.104c1.244,0.413,2.463,0.92,3.652,1.534c6.835,3.532,11.371,11.189,19.292,12.678
	c9.154,1.72,18.825-3.846,25.731-9.221c7.071-5.504,12.679-12.111,16.88-19.991c4.23-7.934,8.092-18.598,16.44-23.14
	c5.555-3.022,10.615-0.222,16.365,0.054c4.656,0.224,8.72-2.159,11.981-5.306c1.969-1.901,3.785-3.985,5.436-6.202
	c0.749-3.322,1.345-6.667,1.801-10.043C335.053,242.89,328.232,245.29,320.614,242.919z"/>
<path style="fill:#BC723E;" d="M338.466,248.15c-1.653,2.22-3.464,4.298-5.436,6.202c-3.262,3.148-7.325,5.53-11.981,5.306
	c-5.751-0.277-10.81-3.077-16.365-0.054c-8.347,4.541-12.209,15.205-16.44,23.14c-4.201,7.88-9.809,14.487-16.88,19.991
	c-6.906,5.375-16.578,10.941-25.731,9.221c-7.92-1.489-12.457-9.146-19.292-12.678c-1.188-0.614-2.408-1.121-3.652-1.534
	c-0.16,0.43-0.344,0.852-0.55,1.261c-0.221,0.438-0.47,0.879-0.746,1.31c-0.205,0.934-0.545,1.844-0.976,2.7
	c-0.942,1.87-2.4,3.778-4.228,4.846c-1.828,1.068-3.924,1.676-6.041,1.742c-3.494,0.11-7-1.247-9.508-3.613
	c-1.693-1.597-2.931-3.655-3.403-6.031c-0.131-0.662-0.181-1.323-0.157-1.975c-0.066,0.013-0.133,0.026-0.199,0.039
	c-9.09,1.788-18.094,4.34-27.358,5.096c-8.62,0.704-17.54-0.927-25.494-4.291c-7.35-3.109-14.402-8.378-16.895-16.286
	c-3.649-11.576,2.905-23.845-2.603-35.109c-4.259-8.709-12.332-14.798-17.813-22.667c-1.966-2.822-3.515-5.881-4.656-9.082
	c-0.213,0.803-0.504,1.586-0.871,2.332c-1.542,3.138-4.384,5.599-7.649,6.705c-2.205,0.747-4.602,0.875-6.922,0.178
	c-2.155-0.648-3.88-2.092-5.021-3.932c0.057,0.771,0.121,1.541,0.192,2.311c0.044,0.474,0.091,0.948,0.14,1.421
	c0.025,0.237,0.05,0.473,0.076,0.71c0.627,5.675,1.649,11.297,3.076,16.813c0.384,1.486,0.798,2.968,1.239,4.446
	c0.177,0.591,0.358,1.182,0.544,1.771c0.65,2.064,1.355,4.118,2.114,6.16c0.109,0.292,0.218,0.583,0.329,0.874
	c0.221,0.582,0.447,1.163,0.677,1.744c3.566,8.992,8.184,17.714,13.747,25.902c0.359,0.528,0.722,1.054,1.089,1.578
	c1.1,1.571,2.236,3.122,3.406,4.65c0.39,0.509,0.784,1.016,1.182,1.521c0.597,0.757,1.202,1.507,1.815,2.252
	c0.613,0.745,1.236,1.484,1.866,2.216c0.42,0.488,0.844,0.974,1.272,1.457c0.428,0.483,0.859,0.962,1.294,1.439
	c0.435,0.477,0.874,0.951,1.316,1.422c0.442,0.471,0.888,0.939,1.338,1.404c0.45,0.465,0.903,0.927,1.359,1.385
	c0.457,0.459,0.917,0.914,1.381,1.367c0.696,0.679,1.399,1.35,2.111,2.014c2.135,1.992,4.341,3.917,6.615,5.769
	c0.505,0.411,1.014,0.819,1.527,1.224c0.921,0.727,1.853,1.441,2.795,2.143c0.009-0.147,0.022-0.295,0.038-0.441
	c0.011-0.097,0.023-0.194,0.036-0.292c-0.138-0.778-0.148-1.582-0.061-2.37c0.17-1.533,0.685-3.224,1.672-4.43
	c0.987-1.207,2.277-2.165,3.721-2.755c2.383-0.974,5.151-0.938,7.49,0.05c1.579,0.667,2.962,1.769,3.898,3.287
	c0.882,1.43,1.119,3.094,0.83,4.686c0.391,1.863-0.043,3.862-1.11,5.492c-1.216,1.857-3.235,3.362-5.35,4.029
	c-0.066,0.021-0.131,0.04-0.198,0.06c0.287,0.17,0.575,0.339,0.863,0.507c5.703,3.32,11.717,6.208,18.014,8.594
	c10.087,3.821,20.718,6.382,31.543,7.712c0.677,0.083,1.354,0.161,2.032,0.235c1.695,0.184,3.394,0.337,5.096,0.461
	c0.681,0.049,1.362,0.094,2.044,0.134c0.682,0.04,1.364,0.075,2.046,0.105c0.682,0.03,1.365,0.056,2.048,0.077
	c0.683,0.021,1.366,0.037,2.049,0.048c1.366,0.023,2.733,0.026,4.1,0.011c1.025-0.012,2.05-0.034,3.074-0.067
	c1.366-0.044,2.731-0.107,4.095-0.188c1.023-0.061,2.045-0.133,3.066-0.215c1.702-0.137,3.4-0.304,5.095-0.5
	c0.678-0.078,1.355-0.162,2.031-0.249c1.014-0.132,2.027-0.274,3.038-0.427c1.011-0.153,2.019-0.316,3.026-0.49
	c0.671-0.116,1.341-0.236,2.01-0.362c0.334-0.063,0.668-0.126,1.002-0.191c0.759-0.148,1.517-0.301,2.273-0.461c0,0,0,0,0,0
	c-0.344-0.565-0.616-1.177-0.821-1.807c-0.03-0.093-0.059-0.186-0.087-0.281c-0.446-0.652-0.788-1.38-1.033-2.134
	c-0.477-1.466-0.705-3.22-0.303-4.725c0.402-1.507,1.182-2.911,2.254-4.044c1.77-1.87,4.306-2.979,6.844-3.042
	c1.713-0.043,3.427,0.39,4.906,1.388c1.393,0.94,2.294,2.358,2.687,3.927c1.125,1.536,1.554,3.536,1.254,5.461
	c-0.056,0.358-0.135,0.715-0.236,1.07c0.622-0.207,1.241-0.418,1.859-0.634c0.318-0.111,0.635-0.223,0.953-0.337
	c0.634-0.227,1.266-0.458,1.896-0.694c0.63-0.236,1.257-0.476,1.883-0.721c0.313-0.123,0.625-0.246,0.936-0.371
	c0.623-0.25,1.244-0.504,1.863-0.762c0.309-0.129,0.618-0.26,0.926-0.392c1.232-0.527,2.455-1.071,3.668-1.634
	c2.122-0.985,4.213-2.026,6.269-3.122c0.587-0.313,1.172-0.631,1.753-0.953c0.872-0.483,1.738-0.977,2.597-1.48
	c1.718-1.007,3.408-2.054,5.068-3.142c0.206-0.135,0.41-0.27,0.615-0.405c0.023-0.015,0.046-0.031,0.069-0.046
	c0.074-0.049,0.147-0.098,0.221-0.148c0.109-0.072,0.217-0.145,0.326-0.217c0.045-0.03,0.09-0.061,0.135-0.091
	c0.089-0.06,0.177-0.12,0.266-0.18c0.073-0.049,0.146-0.099,0.219-0.148c0.061-0.042,0.123-0.084,0.184-0.126
	c0.095-0.065,0.189-0.129,0.284-0.194c0.044-0.03,0.087-0.06,0.131-0.09c0.083-0.057,0.165-0.114,0.248-0.171
	c0.007-0.005,0.015-0.01,0.022-0.016c0.089-0.061,0.177-0.123,0.265-0.184c0.022-0.015,0.044-0.03,0.066-0.046
	c0.084-0.058,0.168-0.117,0.251-0.176c0.03-0.021,0.06-0.042,0.091-0.064c0.087-0.061,0.175-0.122,0.262-0.184
	c0.081-0.057,0.161-0.114,0.242-0.171c0.057-0.04,0.113-0.08,0.169-0.12c0.084-0.06,0.168-0.119,0.252-0.179
	c0.057-0.041,0.114-0.081,0.17-0.122c0.088-0.063,0.175-0.126,0.263-0.189c0.074-0.053,0.147-0.106,0.221-0.159
	c0.038-0.027,0.075-0.054,0.112-0.081c0.12-0.087,0.239-0.174,0.358-0.261c0.054-0.039,0.108-0.078,0.161-0.118
	c0.004-0.003,0.008-0.006,0.013-0.009c0.02-0.014,0.039-0.029,0.058-0.043c0.13-0.096,0.26-0.191,0.389-0.287
	c0.063-0.047,0.126-0.093,0.189-0.14c0.009-0.006,0.017-0.013,0.026-0.019c0.038-0.028,0.075-0.056,0.112-0.084
	c0.147-0.11,0.295-0.22,0.442-0.33c0.016-0.012,0.032-0.024,0.048-0.036c0.011-0.008,0.022-0.017,0.033-0.025
	c0.071-0.054,0.142-0.108,0.214-0.162c0.092-0.069,0.184-0.139,0.275-0.208c0.05-0.038,0.099-0.076,0.149-0.113
	c0.079-0.06,0.158-0.121,0.236-0.181c0.061-0.047,0.122-0.094,0.183-0.14c0.071-0.055,0.142-0.11,0.214-0.165
	c0.078-0.061,0.157-0.121,0.235-0.182c0.037-0.029,0.074-0.057,0.111-0.086c0.083-0.065,0.166-0.13,0.249-0.195
	c0.02-0.016,0.04-0.032,0.061-0.048c0.067-0.053,0.134-0.105,0.201-0.157c0.018-0.015,0.037-0.029,0.056-0.044
	c0.08-0.063,0.16-0.126,0.24-0.19c0.049-0.039,0.098-0.078,0.147-0.117c0.061-0.048,0.121-0.096,0.182-0.145
	c0.077-0.062,0.155-0.124,0.232-0.185c0.086-0.069,0.173-0.139,0.259-0.208c0.042-0.033,0.083-0.067,0.125-0.1
	c0.056-0.045,0.111-0.09,0.166-0.135c0.111-0.09,0.221-0.18,0.332-0.27c0.039-0.032,0.078-0.063,0.116-0.095
	c0.001-0.001,0.001-0.001,0.002-0.002c0.033-0.027,0.066-0.054,0.099-0.082c0.112-0.092,0.224-0.185,0.336-0.277
	c0.066-0.055,0.133-0.11,0.2-0.165c0.003-0.003,0.006-0.005,0.009-0.008c0.123-0.102,0.245-0.205,0.368-0.307
	c0.058-0.048,0.116-0.097,0.173-0.145c0.02-0.017,0.04-0.034,0.06-0.051c0.034-0.028,0.066-0.056,0.1-0.085
	c0.167-0.141,0.333-0.282,0.499-0.423c0.048-0.041,0.096-0.082,0.143-0.123c0.091-0.078,0.182-0.155,0.272-0.233
	c0.041-0.035,0.082-0.071,0.123-0.106l0.069-0.06c0.048-0.041,0.095-0.082,0.143-0.124c0.066-0.058,0.133-0.115,0.199-0.173
	c0.055-0.048,0.109-0.095,0.164-0.143c0.033-0.029,0.067-0.058,0.1-0.087c0.044-0.039,0.089-0.078,0.134-0.117
	c0.042-0.037,0.085-0.074,0.128-0.112c0.063-0.055,0.125-0.111,0.188-0.166c0.053-0.047,0.106-0.094,0.159-0.141
	c0.039-0.035,0.078-0.069,0.117-0.104c0.022-0.019,0.044-0.039,0.065-0.058c0.061-0.054,0.121-0.108,0.181-0.162
	c0.1-0.089,0.2-0.179,0.299-0.269c0.009-0.008,0.018-0.016,0.026-0.023c0.005-0.004,0.009-0.008,0.014-0.013
	c0.066-0.06,0.132-0.119,0.198-0.179c0.104-0.094,0.207-0.188,0.311-0.282c0.069-0.063,0.137-0.125,0.205-0.188
	c0.107-0.098,0.214-0.197,0.321-0.295c0.063-0.058,0.125-0.115,0.187-0.173c0.108-0.1,0.215-0.2,0.323-0.301
	c0.064-0.06,0.128-0.12,0.192-0.18c0.115-0.108,0.23-0.216,0.344-0.325c0.05-0.047,0.1-0.094,0.149-0.141
	c0.038-0.036,0.076-0.072,0.114-0.109c0.009-0.009,0.018-0.018,0.027-0.026c0.095-0.091,0.191-0.182,0.285-0.272l0.073-0.07
	c0.063-0.06,0.125-0.12,0.187-0.181c0.013-0.012,0.025-0.024,0.037-0.036c0.18-0.174,0.36-0.348,0.538-0.523
	c0.01-0.01,0.02-0.019,0.029-0.029c0.069-0.068,0.139-0.136,0.208-0.204c0.036-0.036,0.072-0.072,0.109-0.107
	c0.079-0.077,0.157-0.155,0.235-0.232c0.002-0.002,0.005-0.005,0.007-0.007c0.046-0.046,0.093-0.092,0.139-0.138
	c0.048-0.048,0.096-0.096,0.145-0.145c0.113-0.113,0.227-0.227,0.34-0.34c0.052-0.052,0.104-0.105,0.155-0.157
	c0.112-0.113,0.223-0.226,0.335-0.339c0.05-0.052,0.101-0.103,0.151-0.155c0.108-0.11,0.215-0.22,0.322-0.33
	c0.056-0.057,0.111-0.115,0.167-0.172c0.104-0.108,0.208-0.216,0.312-0.324c0.055-0.057,0.109-0.114,0.164-0.172
	c0.102-0.107,0.203-0.213,0.304-0.32c0.057-0.06,0.113-0.12,0.17-0.179c0.11-0.117,0.22-0.234,0.33-0.352
	c0.042-0.044,0.083-0.089,0.125-0.133c0.126-0.135,0.252-0.271,0.377-0.407c0.029-0.031,0.058-0.062,0.087-0.094
	c0.466-0.506,0.927-1.016,1.382-1.528c0.029-0.032,0.057-0.065,0.086-0.097c0.122-0.137,0.243-0.275,0.363-0.412
	c0.036-0.041,0.073-0.083,0.109-0.124c0.111-0.126,0.221-0.253,0.331-0.38c0.046-0.052,0.091-0.105,0.137-0.158
	c0.103-0.119,0.206-0.239,0.308-0.358c0.042-0.049,0.085-0.099,0.127-0.148c0.108-0.127,0.216-0.253,0.323-0.38
	c0.038-0.044,0.075-0.089,0.112-0.133c0.108-0.128,0.216-0.257,0.324-0.386c0.037-0.044,0.074-0.089,0.111-0.133
	c0.111-0.134,0.222-0.268,0.333-0.402c0.033-0.039,0.065-0.078,0.097-0.118c0.116-0.141,0.231-0.281,0.346-0.422
	c0.027-0.033,0.054-0.066,0.081-0.099c0.572-0.703,1.133-1.411,1.685-2.124c0.021-0.027,0.041-0.053,0.061-0.08
	c0.115-0.149,0.23-0.298,0.344-0.448c0.029-0.038,0.058-0.076,0.087-0.114c0.107-0.14,0.213-0.28,0.319-0.42
	c0.03-0.04,0.06-0.08,0.09-0.119c0.105-0.14,0.21-0.28,0.315-0.421c0.03-0.04,0.06-0.08,0.089-0.12
	c0.105-0.141,0.209-0.282,0.313-0.423c0.028-0.038,0.055-0.075,0.083-0.113c0.107-0.145,0.213-0.291,0.319-0.437l0.074-0.102
	c0.113-0.156,0.226-0.312,0.338-0.469c0.016-0.023,0.033-0.046,0.049-0.068c0.658-0.919,1.299-1.845,1.925-2.777
	c0,0,0-0.001,0-0.001c0.121-0.18,0.241-0.361,0.361-0.541c0.015-0.022,0.029-0.044,0.044-0.066c0.021-0.033,0.043-0.065,0.064-0.098
	c-0.153,0.007-0.306,0.01-0.458,0.009c-1.366-0.008-2.748-0.371-3.9-1.115c-1.376-0.888-2.271-2.319-2.771-3.853
	c-0.03-0.093-0.059-0.186-0.087-0.281c-0.447-0.652-0.788-1.38-1.033-2.134c-0.477-1.466-0.705-3.22-0.303-4.726
	c0.402-1.507,1.182-2.911,2.254-4.044c1.77-1.87,4.306-2.979,6.844-3.042c1.713-0.043,3.427,0.39,4.906,1.388
	c1.247,0.841,2.1,2.066,2.547,3.439C334.198,263.386,336.729,255.852,338.466,248.15z"/>
<path style="fill:#BC723E;" d="M86.799,198.702c1.774-0.541,3.713-0.627,5.507-0.127c2.142,0.597,3.88,2.092,5.146,3.88
	c0.284,0.401,0.556,0.827,0.807,1.273c0.576,0.489,1.098,1.045,1.566,1.642c-0.213-2.404-0.226-4.832-0.04-7.249
	c0.724-9.422,4.201-18.569,9.578-26.313c5.674-8.17,12.748-13.464,21.29-18.276c0.778-0.438,1.524-0.89,2.238-1.359
	c0.888-2.952,2.894-5.757,5.371-7.555c0.918-0.666,1.932-1.223,3.002-1.658c0.34-0.701,0.652-1.435,0.936-2.207
	c1.748-4.762,3.593-9.573,5.371-14.33c2.915-7.797,6.724-24.578,49.482-41.098c-8.589,0.576-17.19,2.022-25.672,4.41
	c-0.003,0.001-0.006,0.002-0.009,0.003c-0.028,0.008-0.056,0.016-0.084,0.024c-0.002,0.001-0.005,0.001-0.007,0.002
	c-0.605,0.171-1.209,0.346-1.812,0.526c-0.001,0-0.002,0.001-0.003,0.001c-0.043,0.013-0.085,0.026-0.128,0.038
	c-0.003,0.001-0.006,0.002-0.009,0.003c-0.238,0.072-0.477,0.144-0.715,0.217c-0.002,0-0.003,0.001-0.005,0.002
	c-0.084,0.026-0.168,0.052-0.252,0.078c-0.003,0.001-0.005,0.002-0.008,0.002c-0.207,0.064-0.414,0.129-0.621,0.194
	c-0.004,0.001-0.009,0.003-0.013,0.004c-0.08,0.025-0.159,0.05-0.239,0.075c-0.002,0.001-0.004,0.001-0.007,0.002
	c-0.285,0.09-0.57,0.182-0.855,0.275c-7.984,2.597-15.453,5.916-22.388,9.851c-0.224,0.127-0.447,0.254-0.669,0.383
	c-0.445,0.256-0.888,0.515-1.329,0.777c-0.22,0.131-0.44,0.262-0.659,0.394c-0.354,0.213-0.706,0.428-1.058,0.645
	c-0.165,0.102-0.331,0.204-0.495,0.307c-0.568,0.354-1.133,0.712-1.694,1.074c-0.641,0.414-1.277,0.834-1.908,1.259
	c-0.421,0.283-0.839,0.569-1.255,0.857c-0.416,0.288-0.83,0.579-1.241,0.872c-0.206,0.146-0.411,0.293-0.615,0.441
	c-0.292,0.21-0.581,0.422-0.87,0.634c-0.233,0.171-0.466,0.344-0.697,0.517c-0.173,0.129-0.346,0.259-0.518,0.388
	c-0.017,0.013-0.034,0.026-0.052,0.039c0.753,0.156,1.477,0.462,2.094,0.921c0.984,0.732,1.583,1.847,1.88,3.019
	c0.018,0.071,0.035,0.142,0.051,0.215c0.301,0.509,0.52,1.071,0.666,1.647c0.284,1.12,0.367,2.442-0.008,3.548
	c-0.375,1.106-1.029,2.118-1.886,2.911c-1.416,1.31-3.367,2.013-5.268,1.935c-1.283-0.053-2.543-0.462-3.599-1.281
	c-0.995-0.772-1.598-1.877-1.814-3.069c-0.494-0.777-0.761-1.685-0.802-2.614c-0.624,0.571-1.242,1.148-1.852,1.731
	c-0.897,0.856-1.779,1.725-2.646,2.605c-0.521,0.528-1.036,1.061-1.546,1.598c-3.06,3.221-5.93,6.593-8.607,10.096
	c-0.149,0.195-0.297,0.39-0.444,0.585c-0.295,0.391-0.588,0.783-0.878,1.177c-0.145,0.197-0.289,0.394-0.434,0.592
	c-1.295,1.78-2.541,3.591-3.738,5.431c-0.133,0.204-0.265,0.409-0.397,0.614c-1.054,1.641-2.07,3.305-3.046,4.989
	c-0.244,0.421-0.486,0.843-0.725,1.267c-1.076,1.906-2.103,3.838-3.079,5.792c-0.108,0.217-0.216,0.435-0.324,0.652
	c-1.501,3.048-2.881,6.151-4.137,9.298c-0.359,0.899-0.708,1.802-1.047,2.708c-0.424,1.133-0.831,2.271-1.223,3.414
	c-0.078,0.229-0.156,0.457-0.233,0.686c-0.308,0.916-0.607,1.835-0.894,2.757c-0.144,0.461-0.285,0.923-0.424,1.385
	c-0.625,2.08-1.198,4.174-1.718,6.279c-0.116,0.468-0.229,0.936-0.339,1.405c-0.387,1.641-0.742,3.288-1.065,4.94
	c-0.046,0.236-0.092,0.472-0.137,0.708c-0.09,0.472-0.177,0.945-0.261,1.418c-0.254,1.42-0.484,2.842-0.69,4.268
	c-0.069,0.475-0.135,0.951-0.199,1.426c-0.032,0.238-0.063,0.476-0.093,0.714c-0.061,0.476-0.119,0.952-0.175,1.428
	c-0.167,1.429-0.31,2.86-0.429,4.292c-0.016,0.197-0.032,0.395-0.048,0.592C83.131,200.332,84.909,199.277,86.799,198.702z"/>
<path style="fill:#B56F40;" d="M142.652,179.572c-0.424,0.671-1.112,1.111-1.853,1.36c-0.708,0.238-1.556,0.357-2.287,0.169
	c-0.732-0.187-1.416-0.559-1.969-1.072c-0.381-0.353-0.698-0.772-0.942-1.229c-0.005,0.118-0.007,0.237-0.003,0.355
	c0.043,1.229,0.592,2.452,1.506,3.3c0.553,0.514,1.238,0.885,1.969,1.073c0.731,0.187,1.579,0.069,2.287-0.17
	c0.741-0.249,1.429-0.69,1.853-1.36c0.355-0.562,0.524-1.233,0.521-1.894c-0.003-0.757-0.209-1.527-0.568-2.208
	C143.136,178.486,142.968,179.072,142.652,179.572z"/>
<path style="fill:#B56F40;" d="M156.793,156.919c-0.801,2.109-2.132,4.015-3.842,5.486c-2.823,2.429-6.638,3.65-10.299,3.366
	c-2.472-0.191-4.874-1.068-6.855-2.723c-0.883-0.737-1.592-1.613-2.129-2.576c0.133,2.684,1.251,5.271,3.384,7.052
	c1.981,1.654,4.383,2.531,6.855,2.723c3.661,0.283,7.476-0.938,10.299-3.366c1.71-1.471,3.041-3.378,3.842-5.486
	c0.8-2.107,0.732-4.665,0.262-6.845c-0.215-0.999-0.543-1.98-0.998-2.892C157.509,153.429,157.406,155.306,156.793,156.919z"/>
<path style="fill:#7F3518;" d="M136.542,180.029c0.554,0.514,1.238,0.885,1.969,1.072c0.731,0.187,1.579,0.069,2.287-0.169
	c0.741-0.249,1.43-0.69,1.853-1.36c0.316-0.5,0.484-1.086,0.516-1.675c0.004-0.073,0.006-0.146,0.006-0.219
	c-0.005-1.16-0.484-2.349-1.264-3.203c-0.724-0.793-1.797-1.373-2.861-1.528c-1.286-0.188-2.634,0.295-3.364,1.399
	c-0.476,0.721-0.678,1.553-0.649,2.383c0.025,0.717,0.223,1.432,0.565,2.072C135.845,179.257,136.162,179.675,136.542,180.029z"/>
<path style="fill:#7F3518;" d="M157.313,151.659c-0.06-0.542-0.148-1.074-0.258-1.585c-0.492-2.282-1.569-4.473-3.417-5.955
	c-1.548-1.241-3.483-1.967-5.447-2.181c-2.313-0.251-4.737,0.13-6.927,1.021c-1.07,0.436-2.085,0.992-3.002,1.658
	c-2.477,1.798-4.483,4.603-5.371,7.555c-0.043,0.142-0.083,0.283-0.121,0.426c-0.7,2.661-0.41,5.528,0.899,7.875
	c0.537,0.963,1.246,1.839,2.129,2.576c1.981,1.654,4.383,2.531,6.855,2.723c3.661,0.284,7.476-0.938,10.299-3.366
	c1.71-1.471,3.041-3.378,3.842-5.486C157.406,155.306,157.509,153.429,157.313,151.659z"/>
<path style="fill:#67220D;" d="M134.361,156.449c-0.065,0.675-0.005,1.521,0.615,1.794c0.535,0.236,1.173-0.157,1.441-0.677
	c0.269-0.52,0.28-1.128,0.35-1.71c0.228-1.895,1.128-3.658,2.289-5.173c0.603-0.787,5.851-5.051,3.508-5.895
	c-0.568-0.191-1.192,0.046-1.723,0.329c-2,1.067-3.589,2.822-4.65,4.825C135.131,151.948,134.577,154.193,134.361,156.449z"/>
<path style="fill:#B56F40;" d="M271.197,252.941c0.108-0.543,0.343-1.065,0.703-1.487c0.483-0.567,1.182-0.884,1.904-1.017
	c0.69-0.127,1.493-0.124,2.148,0.148c0.655,0.272,1.241,0.708,1.687,1.26c0.307,0.379,0.545,0.811,0.711,1.267
	c0.021-0.109,0.038-0.219,0.05-0.33c0.124-1.148-0.223-2.357-0.959-3.268c-0.446-0.551-1.032-0.988-1.687-1.26
	c-0.654-0.272-1.458-0.275-2.148-0.148c-0.452,0.083-0.895,0.238-1.281,0.482c-0.231,0.145-0.442,0.322-0.623,0.535
	c-0.405,0.474-0.652,1.075-0.737,1.69c-0.014,0.099-0.024,0.199-0.03,0.3C270.894,251.726,270.988,252.356,271.197,252.941z"/>
<path style="fill:#B56F40;" d="M255.734,270.613c1.026-1.852,2.517-3.446,4.303-4.585c2.948-1.88,6.655-2.505,10.019-1.752
	c2.271,0.508,4.387,1.644,6.006,3.446c0.722,0.803,1.263,1.711,1.634,2.678c0.235-2.511-0.458-5.064-2.202-7.005
	c-1.62-1.802-3.735-2.938-6.006-3.446c-0.982-0.219-1.992-0.321-3.005-0.309c-2.458,0.029-4.927,0.73-7.015,2.061
	c-1.786,1.139-3.277,2.732-4.303,4.585c-1.025,1.852-1.303,4.237-1.158,6.326c0.047,0.672,0.146,1.344,0.306,1.999
	c0.068,0.277,0.145,0.552,0.235,0.822C254.603,273.761,254.949,272.03,255.734,270.613z"/>
<path style="fill:#7F3518;" d="M275.951,250.585c-0.654-0.272-1.458-0.275-2.148-0.148c-0.722,0.133-1.42,0.45-1.904,1.017
	c-0.36,0.422-0.595,0.944-0.703,1.487c-0.014,0.067-0.025,0.135-0.035,0.203c-0.151,1.078,0.136,2.247,0.746,3.145
	c0.567,0.834,1.487,1.516,2.455,1.802c1.17,0.346,2.487,0.078,3.312-0.851c0.539-0.607,0.837-1.353,0.921-2.128
	c0.072-0.67-0.016-1.36-0.248-2.001c-0.166-0.457-0.404-0.888-0.711-1.267C277.192,251.293,276.606,250.857,275.951,250.585z"/>
<path style="fill:#7F3518;" d="M277.697,270.399c-0.37-0.967-0.912-1.875-1.634-2.678c-1.62-1.802-3.735-2.938-6.006-3.446
	c-3.364-0.753-7.072-0.127-10.019,1.752c-1.786,1.139-3.277,2.732-4.303,4.585c-0.785,1.418-1.132,3.148-1.186,4.819
	c-0.017,0.512-0.006,1.017,0.028,1.507c0.152,2.186,0.86,4.366,2.38,5.99c1.273,1.36,2.974,2.293,4.771,2.754
	c3.15,0.807,6.715,0.348,9.583-1.163c2.664-1.404,4.996-3.905,6.17-6.682C278.486,275.457,278.6,272.754,277.697,270.399z"/>
<path style="fill:#67220D;" d="M274.754,272.733c-0.319,0.447-0.411,1.011-0.554,1.542c-0.465,1.73-1.537,3.248-2.818,4.501
	c-0.666,0.651-6.112,3.912-4.047,5.009c0.502,0.254,1.114,0.116,1.645-0.076c2.001-0.724,3.712-2.142,4.965-3.862
	c1.253-1.72,2.068-3.732,2.57-5.8c0.15-0.618,0.208-1.412-0.332-1.75C275.718,272.005,275.073,272.285,274.754,272.733z"/>
<path style="fill:#A15927;" d="M194.225,312.061c-0.705,0.24-1.468,0.156-2.156-0.099c-0.658-0.243-1.347-0.657-1.771-1.225
	c-0.424-0.568-0.705-1.243-0.806-1.945c-0.07-0.483-0.055-0.975,0.036-1.453c-0.074,0.083-0.144,0.169-0.211,0.258
	c-0.693,0.923-1.013,2.141-0.846,3.299c0.102,0.702,0.382,1.376,0.806,1.944c0.424,0.568,1.113,0.982,1.771,1.225
	c0.688,0.255,1.451,0.339,2.156,0.099c0.59-0.201,1.109-0.591,1.498-1.076c0.444-0.555,0.748-1.239,0.887-1.948
	C195.219,311.553,194.75,311.882,194.225,312.061z"/>
<path style="fill:#A15927;" d="M217.911,303.851c-1.828,1.068-3.924,1.676-6.041,1.742c-3.494,0.11-7.001-1.247-9.508-3.613
	c-1.693-1.597-2.931-3.654-3.403-6.031c-0.21-1.059-0.212-2.117-0.036-3.137c-1.101,1.511-1.775,3.303-1.843,5.172
	c-0.024,0.652,0.026,1.313,0.157,1.975c0.472,2.376,1.71,4.434,3.403,6.031c2.508,2.366,6.014,3.723,9.508,3.613
	c2.117-0.066,4.213-0.674,6.041-1.742c1.827-1.068,3.285-2.976,4.228-4.846c0.431-0.856,0.771-1.766,0.976-2.7
	C220.492,301.723,219.31,303.034,217.911,303.851z"/>
<path style="fill:#7F3518;" d="M195.499,305.096c-0.829-0.895-2.098-1.338-3.282-0.961c-0.773,0.246-1.411,0.735-1.879,1.358
	c-0.404,0.538-0.682,1.177-0.809,1.846c-0.091,0.478-0.106,0.97-0.036,1.453c0.102,0.702,0.382,1.376,0.806,1.945
	c0.424,0.568,1.113,0.981,1.771,1.225c0.688,0.255,1.451,0.339,2.156,0.099c0.525-0.179,0.994-0.508,1.364-0.92
	c0.046-0.051,0.09-0.103,0.133-0.157c0.68-0.85,1.032-2.001,0.965-3.085C196.627,306.893,196.184,305.837,195.499,305.096z"/>
<path style="fill:#7F3518;" d="M223.153,292.64c-0.399-1.819-1.384-3.491-2.694-4.805c-2.295-2.303-5.595-3.731-8.832-3.897
	c-3.008-0.154-6.29,0.804-8.718,2.592c-2.08,1.531-3.559,3.797-3.987,6.283c-0.175,1.02-0.174,2.078,0.036,3.137
	c0.472,2.376,1.709,4.434,3.403,6.031c2.507,2.366,6.014,3.723,9.508,3.613c2.117-0.066,4.213-0.674,6.041-1.742
	c1.399-0.817,2.581-2.128,3.482-3.536c0.276-0.431,0.525-0.872,0.746-1.31c0.206-0.409,0.391-0.831,0.55-1.261
	C223.292,296.116,223.53,294.358,223.153,292.64z"/>
<path style="fill:#67220D;" d="M201.801,290.281c-0.445,0.455-0.9,1.108-0.608,1.674c0.252,0.488,0.949,0.577,1.452,0.355
	c0.503-0.221,0.87-0.659,1.264-1.042c1.283-1.25,2.981-2.007,4.722-2.429c0.905-0.219,7.253-0.24,6.038-2.238
	c-0.302-0.475-0.898-0.669-1.453-0.775c-2.09-0.4-4.286-0.055-6.242,0.783C205.017,287.447,203.29,288.761,201.801,290.281z"/>
<path style="fill:#A15927;" d="M95.725,231.595c0.19,0.52,0.261,1.088,0.173,1.636c-0.118,0.735-0.55,1.369-1.098,1.858
	c-0.523,0.467-1.212,0.882-1.912,0.99c-0.701,0.108-1.428,0.04-2.096-0.2c-0.459-0.164-0.887-0.409-1.266-0.713
	c0.039,0.104,0.082,0.207,0.129,0.308c0.49,1.045,1.416,1.898,2.518,2.293c0.667,0.239,1.395,0.308,2.096,0.2
	c0.7-0.108,1.389-0.523,1.912-0.99c0.548-0.488,0.98-1.123,1.098-1.858c0.099-0.616-0.002-1.257-0.249-1.827
	C96.747,232.639,96.286,232.05,95.725,231.595z"/>
<path style="fill:#A15927;" d="M86.621,224.898c2.32,0.697,4.718,0.569,6.922-0.178c3.265-1.106,6.107-3.567,7.649-6.705
	c0.367-0.746,0.658-1.529,0.871-2.332c0.33-1.243,0.475-2.536,0.422-3.821c-0.086-2.115-1.088-4.297-2.298-6.006
	c-0.117-0.165-0.237-0.327-0.362-0.486c-0.467-0.598-0.99-1.153-1.566-1.642c0.822,1.456,1.425,3.114,1.491,4.733
	c0.086,2.116-0.359,4.252-1.293,6.153c-1.541,3.138-4.384,5.599-7.649,6.705c-2.205,0.746-4.602,0.875-6.922,0.178
	c-1.034-0.311-1.969-0.805-2.788-1.439c0.152,0.312,0.319,0.615,0.501,0.908C82.741,222.806,84.465,224.25,86.621,224.898z"/>
<path style="fill:#7F3518;" d="M92.887,236.079c0.7-0.108,1.389-0.523,1.912-0.99c0.548-0.488,0.98-1.123,1.098-1.858
	c0.088-0.548,0.017-1.116-0.173-1.636c-0.023-0.064-0.049-0.128-0.076-0.191c-0.432-0.999-1.284-1.849-2.272-2.299
	c-0.918-0.418-2.058-0.522-3.034-0.264c-1.179,0.312-2.165,1.226-2.388,2.448c-0.145,0.798-0.012,1.591,0.319,2.296
	c0.286,0.61,0.721,1.154,1.252,1.58c0.379,0.304,0.807,0.549,1.266,0.713C91.459,236.119,92.187,236.187,92.887,236.079z"/>
<path style="fill:#7F3518;" d="M99.75,208.461c-0.066-1.619-0.669-3.277-1.491-4.733c-0.252-0.446-0.524-0.872-0.807-1.273
	c-1.266-1.789-3.004-3.283-5.146-3.88c-1.794-0.5-3.732-0.414-5.507,0.127c-1.89,0.576-3.667,1.631-5.145,2.994
	c-0.955,0.88-1.785,1.889-2.438,2.98c-1.547,2.584-2.238,5.933-1.798,8.915c0.034,0.229,0.075,0.456,0.123,0.681
	c0.362,1.68,1.127,3.25,2.226,4.523c0.4,0.464,0.845,0.888,1.331,1.263c0.819,0.633,1.754,1.128,2.788,1.439
	c2.32,0.697,4.717,0.569,6.922-0.178c3.265-1.106,6.108-3.567,7.649-6.705C99.391,212.713,99.837,210.577,99.75,208.461z"/>
<path style="fill:#67220D;" d="M80.212,216.329c0.193,0.606,0.557,1.314,1.193,1.322c0.549,0.006,0.955-0.568,0.995-1.116
	c0.04-0.548-0.174-1.077-0.328-1.605c-0.502-1.72-0.375-3.574,0.069-5.31c0.231-0.902,3.188-6.519,0.854-6.383
	c-0.561,0.044-1.012,0.48-1.366,0.92c-1.333,1.659-2.058,3.76-2.234,5.881C79.216,212.159,79.566,214.301,80.212,216.329z"/>
<path style="fill:#B56F40;" d="M133.314,236.148c-0.549-0.257-0.948-0.736-1.208-1.273c-0.248-0.513-0.419-1.145-0.348-1.717
	c0.072-0.572,0.288-1.126,0.624-1.595c0.231-0.322,0.518-0.603,0.84-0.831c-0.09,0.007-0.18,0.018-0.269,0.032
	c-0.927,0.15-1.801,0.684-2.356,1.457c-0.336,0.469-0.552,1.023-0.624,1.595c-0.072,0.572,0.099,1.203,0.348,1.717
	c0.26,0.537,0.66,1.017,1.208,1.273c0.46,0.215,0.984,0.279,1.485,0.213c0.573-0.075,1.137-0.304,1.618-0.642
	C134.183,236.41,133.723,236.339,133.314,236.148z"/>
<path style="fill:#B56F40;" d="M140.498,236.205c0.136,2.801,1.427,5.574,3.538,7.48c1.279,1.155,2.85,1.98,4.525,2.385
	c1.673,0.404,3.604,0.108,5.211-0.458c0.736-0.259,1.448-0.601,2.095-1.033c-1.322,0.318-2.754,0.42-4.035,0.11
	c-1.674-0.405-3.246-1.23-4.525-2.385c-2.111-1.906-3.401-4.678-3.538-7.479c-0.092-1.891,0.342-3.795,1.406-5.454
	c0.474-0.74,1.069-1.36,1.747-1.86c-2.02,0.358-3.873,1.453-5.018,3.24c-0.078,0.122-0.153,0.246-0.225,0.371
	C140.779,232.691,140.413,234.454,140.498,236.205z"/>
<path style="fill:#7F3518;" d="M132.382,231.563c-0.336,0.469-0.552,1.023-0.624,1.595c-0.072,0.572,0.099,1.203,0.348,1.717
	c0.26,0.537,0.66,1.017,1.208,1.273c0.409,0.191,0.869,0.263,1.318,0.23c0.056-0.004,0.111-0.01,0.167-0.017
	c0.878-0.115,1.733-0.592,2.305-1.264c0.532-0.625,0.868-1.493,0.883-2.314c0.019-0.992-0.476-1.967-1.382-2.414
	c-0.592-0.292-1.242-0.365-1.868-0.263c-0.541,0.088-1.063,0.306-1.516,0.626C132.9,230.96,132.614,231.241,132.382,231.563z"/>
<path style="fill:#7F3518;" d="M162.355,236.736c-0.047-2.644-1.177-5.342-2.981-7.265c-1.676-1.786-4.141-3.075-6.573-3.396
	c-2.083-0.275-4.228,0.219-5.88,1.436c-0.678,0.499-1.273,1.12-1.747,1.86c-1.063,1.659-1.498,3.563-1.406,5.454
	c0.136,2.801,1.427,5.574,3.538,7.479c1.279,1.155,2.85,1.98,4.525,2.385c1.281,0.31,2.713,0.208,4.035-0.11
	c0.405-0.097,0.799-0.215,1.176-0.347c1.682-0.591,3.238-1.617,4.184-3.16c0.12-0.197,0.231-0.399,0.332-0.606
	C162.119,239.313,162.378,238.015,162.355,236.736z"/>
<path style="fill:#67220D;" d="M150.036,227.65c-0.517,0.016-1.152,0.142-1.3,0.638c-0.128,0.428,0.232,0.873,0.651,1.027
	c0.42,0.154,0.882,0.104,1.329,0.101c1.457-0.009,2.88,0.504,4.138,1.239c0.654,0.382,4.388,3.949,4.802,2.092
	c0.09-0.449-0.149-0.899-0.415-1.274c-1-1.413-2.482-2.449-4.101-3.06C153.52,227.802,151.767,227.598,150.036,227.65z"/>
<path style="fill:#B56F40;" d="M255.799,152.707c-0.429-0.108-0.836-0.317-1.158-0.621c-0.433-0.409-0.658-0.98-0.735-1.562
	c-0.073-0.556-0.038-1.198,0.205-1.709c0.244-0.512,0.616-0.962,1.074-1.296c0.315-0.229,0.669-0.403,1.041-0.516
	c-0.086-0.021-0.173-0.039-0.261-0.053c-0.911-0.146-1.892,0.082-2.649,0.633c-0.459,0.334-0.831,0.784-1.075,1.296
	c-0.243,0.512-0.279,1.154-0.205,1.709c0.077,0.582,0.302,1.153,0.735,1.562c0.012,0.012,0.025,0.023,0.038,0.034
	c0.357,0.323,0.811,0.533,1.282,0.623C254.65,152.914,255.246,152.873,255.799,152.707z"/>
<path style="fill:#B56F40;" d="M265.801,162.151c-1.382-2.43-1.731-5.417-0.993-8.073c0.498-1.794,1.491-3.437,2.995-4.657
	c0.671-0.544,1.418-0.94,2.205-1.196c-1.996-0.29-4.063,0.161-5.684,1.475c-1.504,1.22-2.497,2.864-2.995,4.657
	c-0.737,2.656-0.388,5.643,0.993,8.073c0.837,1.472,2.049,2.728,3.487,3.622c1.437,0.894,3.331,1.213,5.005,1.181
	c0.767-0.015,1.537-0.114,2.274-0.318c-1.332-0.111-2.7-0.458-3.8-1.142C267.85,164.878,266.638,163.623,265.801,162.151z"/>
<path style="fill:#7F3518;" d="M254.112,148.815c-0.243,0.512-0.279,1.154-0.205,1.709c0.077,0.582,0.302,1.153,0.735,1.562
	c0.322,0.304,0.729,0.513,1.158,0.621c0.054,0.014,0.108,0.026,0.162,0.036c0.855,0.164,1.8-0.018,2.542-0.469
	c0.689-0.419,1.271-1.126,1.539-1.887c0.198-0.563,0.214-1.18,0.035-1.733c-0.114-0.351-0.306-0.676-0.58-0.947
	c-0.463-0.455-1.047-0.724-1.662-0.822c-0.532-0.085-1.087-0.043-1.608,0.117c-0.371,0.114-0.726,0.287-1.041,0.516
	C254.728,147.852,254.356,148.303,254.112,148.815z"/>
<path style="fill:#7F3518;" d="M281.025,153.897c-1.013-2.185-2.916-4.148-5.087-5.198c-1.409-0.682-2.986-0.962-4.503-0.786
	c-0.485,0.056-0.964,0.16-1.429,0.311c-0.787,0.257-1.534,0.652-2.205,1.196c-1.505,1.221-2.497,2.864-2.995,4.657
	c-0.737,2.656-0.388,5.643,0.993,8.073c0.837,1.472,2.049,2.728,3.487,3.622c1.1,0.684,2.468,1.031,3.8,1.142
	c0.408,0.034,0.812,0.046,1.205,0.039c1.752-0.033,3.522-0.51,4.88-1.658c0.125-0.105,0.245-0.215,0.361-0.328
	c0.95-0.923,1.639-2.109,2.031-3.37C282.338,159.115,282.116,156.249,281.025,153.897z"/>
<path style="fill:#67220D;" d="M272.872,149.315c-0.488-0.145-1.12-0.223-1.411,0.194c-0.251,0.36-0.054,0.887,0.291,1.16
	c0.344,0.273,0.791,0.369,1.209,0.505c1.363,0.441,2.532,1.359,3.48,2.433c0.493,0.558,2.877,5.04,3.836,3.435
	c0.223-0.391,0.138-0.885,0.006-1.317c-0.497-1.628-1.56-3.051-2.883-4.122C276.077,150.532,274.503,149.8,272.872,149.315z"/>
<path style="fill:#A15927;" d="M242.486,330.472c0.402-1.507,1.182-2.911,2.254-4.044c1.77-1.87,4.306-2.979,6.844-3.042
	c1.714-0.043,3.427,0.39,4.906,1.388c0.62,0.418,1.142,0.932,1.567,1.511c-0.393-1.569-1.294-2.987-2.687-3.927
	c-1.479-0.998-3.193-1.431-4.906-1.388c-2.538,0.064-5.074,1.173-6.844,3.042c-1.072,1.132-1.853,2.537-2.254,4.044
	c-0.402,1.506-0.174,3.259,0.303,4.725c0.245,0.754,0.587,1.483,1.033,2.134C242.286,333.511,242.11,331.883,242.486,330.472z"/>
<path style="fill:#7F3518;" d="M258.057,326.285c-0.424-0.579-0.946-1.093-1.567-1.511c-1.479-0.998-3.193-1.431-4.906-1.388
	c-2.538,0.064-5.074,1.173-6.844,3.042c-1.072,1.133-1.853,2.537-2.254,4.044c-0.376,1.41-0.2,3.039,0.216,4.444
	c0.028,0.095,0.057,0.189,0.087,0.281c0.205,0.63,0.477,1.242,0.822,1.807c0.494,0.811,1.138,1.523,1.949,2.046
	c1.152,0.744,2.534,1.107,3.9,1.115c2.394,0.014,4.86-0.951,6.638-2.543c1.383-1.238,2.462-2.983,2.977-4.806
	c0.1-0.355,0.18-0.713,0.236-1.07C259.611,329.822,259.182,327.822,258.057,326.285z"/>
<path style="fill:#67220D;" d="M257.945,329.211c-0.003-0.469-0.104-1.046-0.55-1.19c-0.385-0.125-0.795,0.191-0.944,0.567
	c-0.148,0.377-0.113,0.796-0.12,1.2c-0.023,1.319-0.517,2.595-1.209,3.719c-0.359,0.584-3.667,3.887-1.996,4.301
	c0.404,0.091,0.817-0.116,1.162-0.348c1.3-0.875,2.269-2.194,2.857-3.647C257.733,332.36,257.955,330.778,257.945,329.211z"/>
<path style="fill:#B56F40;" d="M212.636,170.194c0.402-1.507,1.182-2.911,2.254-4.044c1.77-1.87,4.306-2.979,6.844-3.042
	c1.714-0.043,3.427,0.39,4.906,1.388c0.62,0.418,1.142,0.932,1.567,1.511c-0.392-1.569-1.294-2.987-2.687-3.927
	c-1.479-0.998-3.193-1.431-4.906-1.388c-2.538,0.064-5.074,1.173-6.844,3.042c-1.072,1.132-1.853,2.537-2.254,4.044
	c-0.401,1.506-0.174,3.259,0.303,4.725c0.245,0.754,0.587,1.482,1.033,2.134C212.436,173.233,212.26,171.605,212.636,170.194z"/>
<path style="fill:#7F3518;" d="M228.208,166.007c-0.424-0.579-0.946-1.093-1.567-1.511c-1.479-0.998-3.193-1.431-4.906-1.388
	c-2.538,0.064-5.074,1.173-6.844,3.042c-1.072,1.132-1.853,2.537-2.254,4.044c-0.376,1.41-0.2,3.038,0.216,4.444
	c0.028,0.095,0.057,0.189,0.087,0.281c0.499,1.535,1.395,2.965,2.771,3.854c1.152,0.744,2.534,1.107,3.9,1.115
	c2.394,0.014,4.859-0.951,6.638-2.544c1.652-1.479,2.871-3.682,3.213-5.876C229.762,169.544,229.332,167.544,228.208,166.007z"/>
<path style="fill:#67220D;" d="M228.095,168.933c-0.003-0.469-0.104-1.046-0.55-1.19c-0.385-0.125-0.795,0.191-0.944,0.567
	c-0.148,0.377-0.113,0.796-0.12,1.2c-0.023,1.319-0.517,2.595-1.209,3.719c-0.359,0.584-3.667,3.887-1.996,4.301
	c0.404,0.092,0.817-0.116,1.162-0.348c1.3-0.875,2.269-2.194,2.857-3.647C227.883,172.082,228.105,170.5,228.095,168.933z"/>
<path style="fill:#A15927;" d="M328.294,267.2c-1.479-0.998-3.193-1.431-4.906-1.388c-2.538,0.064-5.074,1.173-6.844,3.042
	c-1.072,1.132-1.853,2.537-2.254,4.044c-0.402,1.506-0.174,3.259,0.303,4.726c0.245,0.754,0.587,1.482,1.033,2.134
	c-0.416-1.406-0.592-3.034-0.216-4.444c0.402-1.507,1.182-2.911,2.254-4.044c1.77-1.87,4.306-2.979,6.844-3.042
	c1.713-0.043,3.427,0.39,4.906,1.388c0.62,0.418,1.142,0.932,1.566,1.511c-0.041-0.164-0.088-0.326-0.14-0.487c0,0,0,0,0,0
	C330.394,269.266,329.541,268.041,328.294,267.2z"/>
<path style="fill:#7F3518;" d="M330.981,271.127c-0.424-0.579-0.946-1.093-1.566-1.511c-1.479-0.998-3.193-1.431-4.906-1.388
	c-2.538,0.064-5.074,1.173-6.844,3.042c-1.072,1.133-1.853,2.537-2.254,4.044c-0.376,1.411-0.2,3.039,0.216,4.444
	c0.028,0.095,0.057,0.189,0.087,0.281c0.499,1.534,1.395,2.965,2.771,3.853c1.152,0.744,2.534,1.107,3.9,1.115
	c0.152,0.001,0.305-0.002,0.458-0.009l0,0c2.247-0.103,4.514-1.043,6.179-2.534c1.652-1.479,2.871-3.682,3.213-5.876
	C332.535,274.663,332.106,272.663,330.981,271.127z"/>
<path style="fill:#67220D;" d="M330.318,272.862c-0.385-0.125-0.795,0.191-0.943,0.567c-0.148,0.376-0.113,0.796-0.12,1.2
	c-0.023,1.319-0.517,2.595-1.209,3.719c-0.359,0.584-3.667,3.887-1.996,4.301c0.404,0.091,0.817-0.116,1.162-0.348
	c1.3-0.875,2.269-2.194,2.857-3.646c0.588-1.453,0.81-3.035,0.799-4.602C330.865,273.584,330.764,273.006,330.318,272.862z"/>
<path style="fill:#B56F40;" d="M169.008,268.321c0.671,1.606,0.662,3.477,0.007,5.063c-0.443,1.071-1.18,2.011-2.201,2.652
	c-0.428,0.269-0.889,0.451-1.363,0.554c1.077,0.187,2.2,0.018,3.162-0.586c1.021-0.641,1.759-1.582,2.201-2.652
	c0.655-1.586,0.664-3.457-0.007-5.063c-0.406-0.973-1.061-1.84-1.882-2.5c-0.821-0.66-1.967-1-3.004-1.106
	c-0.533-0.055-1.077-0.043-1.602,0.054c0.983,0.128,2.037,0.465,2.806,1.083C167.947,266.481,168.602,267.348,169.008,268.321z"/>
<path style="fill:#7F3518;" d="M169.008,268.321c-0.407-0.973-1.061-1.84-1.882-2.5c-0.769-0.619-1.823-0.956-2.806-1.083
	c-0.066-0.009-0.132-0.016-0.198-0.023c-1.085-0.111-2.214,0.05-3.14,0.658c-0.775,0.509-1.378,1.263-1.757,2.105
	c-0.664,1.476-0.742,3.264-0.245,4.799c0.462,1.426,1.49,2.782,2.752,3.594c1.108,0.713,2.461,0.995,3.719,0.72
	c0.474-0.104,0.934-0.286,1.363-0.554c1.021-0.641,1.758-1.582,2.201-2.652C169.67,271.797,169.679,269.926,169.008,268.321z"/>
<path style="fill:#67220D;" d="M161.048,273.966c0.737,0.761,1.654,1.332,2.626,1.754c0.29,0.126,0.675,0.222,0.886-0.014
	c0.182-0.204,0.1-0.544-0.092-0.738c-0.192-0.195-0.461-0.288-0.709-0.403c-0.809-0.375-1.462-1.03-1.967-1.765
	c-0.262-0.382-1.398-3.33-2.112-2.411c-0.167,0.225-0.152,0.536-0.103,0.813C159.761,272.245,160.311,273.205,161.048,273.966z"/>
<path style="fill:#A15927;" d="M139.531,307.333c2.383-0.974,5.151-0.938,7.49,0.05c1.579,0.667,2.962,1.769,3.898,3.287
	c0.393,0.637,0.657,1.32,0.805,2.023c0.289-1.591,0.052-3.255-0.83-4.686c-0.936-1.519-2.319-2.62-3.898-3.287
	c-2.338-0.988-5.106-1.023-7.49-0.05c-1.444,0.59-2.734,1.548-3.721,2.755c-0.987,1.206-1.502,2.898-1.672,4.43
	c-0.087,0.788-0.077,1.592,0.061,2.37c0.2-1.452,0.712-3.008,1.636-4.138C136.797,308.881,138.087,307.923,139.531,307.333z"/>
<path style="fill:#7F3518;" d="M151.723,312.693c-0.147-0.703-0.412-1.386-0.805-2.023c-0.936-1.519-2.319-2.62-3.898-3.287
	c-2.338-0.988-5.107-1.023-7.49-0.05c-1.444,0.59-2.734,1.548-3.721,2.755c-0.924,1.13-1.435,2.686-1.636,4.138
	c-0.013,0.098-0.026,0.196-0.036,0.292c-0.016,0.146-0.029,0.294-0.038,0.441c-0.092,1.466,0.168,2.961,0.974,4.212
	c0.743,1.153,1.852,2.053,3.094,2.623c2.113,0.971,4.667,1.128,6.899,0.479l0,0c0.066-0.019,0.132-0.039,0.198-0.06
	c2.115-0.666,4.134-2.171,5.35-4.029C151.68,316.555,152.114,314.556,151.723,312.693z"/>
<path style="fill:#67220D;" d="M138.633,312.078c0.4-0.065,0.742-0.308,1.094-0.508c1.146-0.653,2.497-0.877,3.816-0.855
	c0.685,0.012,5.213,1.174,4.718-0.474c-0.127-0.394-0.516-0.643-0.892-0.822c-1.415-0.673-3.044-0.834-4.593-0.6
	c-1.549,0.234-3.024,0.85-4.367,1.657c-0.402,0.242-0.847,0.622-0.744,1.08C137.753,311.95,138.233,312.143,138.633,312.078z"/>
<path style="fill:#B56F40;" d="M196.981,130.739c1.063,0.486,2.248,0.7,3.413,0.62c1.165-0.08,2.353-0.665,3.278-1.359
	c0.475-0.356,0.909-0.775,1.264-1.249c-0.896,0.635-2.008,1.154-3.099,1.228c-1.165,0.08-2.351-0.134-3.413-0.62
	c-1.754-0.803-3.154-2.333-3.814-4.117c-0.445-1.205-0.553-2.525-0.203-3.815c0.147-0.541,0.384-1.036,0.693-1.477
	c-1.018,0.658-1.805,1.64-2.134,2.855c-0.35,1.29-0.242,2.611,0.203,3.815C193.827,128.406,195.227,129.936,196.981,130.739z"/>
<path style="fill:#7F3518;" d="M207.023,122.689c-0.57-1.701-1.85-3.216-3.41-4.092c-1.449-0.814-3.306-1.145-4.944-0.857
	c-1.438,0.253-2.752,1.041-3.57,2.211c-0.308,0.441-0.546,0.935-0.693,1.477c-0.35,1.29-0.242,2.61,0.203,3.815
	c0.659,1.784,2.06,3.315,3.814,4.117c1.063,0.486,2.248,0.7,3.413,0.62c1.091-0.075,2.203-0.593,3.099-1.228
	c0.061-0.043,0.12-0.086,0.178-0.13c0.967-0.725,1.765-1.707,2.062-2.897C207.425,124.727,207.348,123.659,207.023,122.689z"/>
<path style="fill:#67220D;" d="M197.201,119.323c-0.332,0.116-0.717,0.327-0.711,0.678c0.005,0.303,0.328,0.518,0.631,0.532
	c0.303,0.014,0.592-0.112,0.88-0.205c0.941-0.303,1.966-0.261,2.929-0.043c0.501,0.114,3.644,1.66,3.533,0.374
	c-0.033-0.309-0.28-0.551-0.528-0.74c-0.935-0.71-2.105-1.078-3.277-1.143C199.486,118.711,198.309,118.936,197.201,119.323z"/>
<path style="fill:#B56F40;" d="M287.979,211.738c-0.45-1.34-0.562-2.792-0.318-4.184c0.403-2.298,1.766-4.405,3.652-5.723
	c1.274-0.889,2.786-1.419,4.403-1.405c0.678,0.006,1.33,0.133,1.94,0.359c-1.081-0.99-2.473-1.611-3.995-1.624
	c-1.617-0.014-3.129,0.515-4.403,1.404c-1.639,1.145-2.883,2.886-3.445,4.831c-0.085,0.293-0.154,0.591-0.207,0.892
	c-0.244,1.392-0.131,2.844,0.318,4.184c0.45,1.339,1.499,2.551,2.593,3.421c0.563,0.447,1.185,0.827,1.848,1.097
	C289.347,214.135,288.4,212.993,287.979,211.738z"/>
<path style="fill:#7F3518;" d="M301.334,204.287c-0.736-1.605-2.06-2.903-3.678-3.502c-0.61-0.226-1.262-0.352-1.94-0.359
	c-1.617-0.014-3.129,0.515-4.403,1.405c-1.886,1.317-3.249,3.424-3.652,5.723c-0.244,1.392-0.131,2.845,0.318,4.184
	c0.421,1.254,1.368,2.397,2.386,3.251c0.069,0.058,0.138,0.114,0.207,0.169c1.145,0.91,2.537,1.544,4.022,1.527
	c1.243-0.014,2.469-0.431,3.505-1.108c1.255-0.82,2.303-2.011,3.011-3.359c0.317-0.603,0.566-1.237,0.735-1.883
	C302.353,208.391,302.173,206.117,301.334,204.287z"/>
<path style="fill:#67220D;" d="M300.731,206.932c-0.282-1.392-0.906-2.699-1.697-3.879c-0.237-0.353-0.602-0.739-1.011-0.625
	c-0.353,0.098-0.506,0.542-0.43,0.901c0.077,0.359,0.313,0.658,0.51,0.967c0.642,1.008,0.907,2.22,0.946,3.415
	c0.02,0.621-0.828,4.772,0.642,4.249c0.351-0.133,0.559-0.496,0.704-0.844C300.94,209.806,301.013,208.324,300.731,206.932z"/>
<path style="fill:#A15927;" d="M135.133,117.103c-0.375,1.106-1.028,2.118-1.886,2.911c-1.416,1.31-3.367,2.013-5.268,1.935
	c-1.283-0.053-2.543-0.462-3.599-1.281c-0.443-0.344-0.808-0.754-1.096-1.207c0.215,1.192,0.819,2.298,1.814,3.069
	c1.056,0.819,2.316,1.228,3.599,1.281c1.901,0.078,3.852-0.625,5.268-1.935c0.858-0.793,1.511-1.805,1.886-2.911
	c0.375-1.106,0.292-2.428,0.008-3.548c-0.146-0.576-0.365-1.138-0.666-1.647C135.434,114.841,135.484,116.067,135.133,117.103z"/>
<path style="fill:#7F3518;" d="M135.192,113.77c-0.016-0.072-0.033-0.144-0.051-0.215c-0.297-1.172-0.896-2.286-1.88-3.019
	c-0.617-0.459-1.341-0.765-2.094-0.921c-0.253-0.052-0.509-0.088-0.766-0.106c-1.789-0.129-3.68,0.47-5.089,1.572
	c-1.309,1.024-2.329,2.61-2.694,4.233c-0.114,0.505-0.159,1.021-0.136,1.532c0.041,0.929,0.308,1.836,0.802,2.614
	c0.288,0.454,0.653,0.864,1.096,1.207c1.056,0.819,2.316,1.228,3.599,1.281c1.901,0.078,3.852-0.625,5.268-1.935
	c0.858-0.793,1.511-1.805,1.886-2.911C135.484,116.067,135.434,114.841,135.192,113.77z"/>
<path style="fill:#67220D;" d="M123.513,117.279c-0.021,0.351,0.026,0.787,0.352,0.917c0.282,0.112,0.604-0.103,0.734-0.377
	c0.129-0.274,0.124-0.589,0.149-0.891c0.082-0.985,0.516-1.914,1.088-2.72c0.298-0.419,2.934-2.724,1.706-3.117
	c-0.298-0.088-0.616,0.046-0.886,0.203c-1.015,0.589-1.805,1.528-2.317,2.584C123.828,114.935,123.583,116.107,123.513,117.279z"/>
<path style="fill:#EA7573;" d="M174.883,212.041c-0.437-0.026-0.881-0.04-1.331-0.04c-6.834,0-12.373,3.108-12.373,6.941
	c0,3.834,5.54,6.941,12.373,6.941s12.373-3.108,12.373-6.941c0-1.108-0.463-2.154-1.286-3.083c-0.955,0.534-1.994,0.827-3.081,0.827
	C178.855,216.686,176.444,214.871,174.883,212.041z"/>
<ellipse style="fill:#EA7573;" cx="245.094" cy="218.943" rx="12.373" ry="6.941"/>
<path style="fill:#432918;" d="M186.372,194.299c-1.369-1.352-3.026-2.143-4.812-2.143c-4.706,0-8.521,5.491-8.521,12.265
	c0,2.88,0.69,5.527,1.844,7.62c1.561,2.83,3.971,4.645,6.677,4.645c1.086,0,2.125-0.293,3.081-0.827
	c2.004-1.119,3.64-3.298,4.578-6.058c0.552-1.624,0.862-3.45,0.862-5.38C190.08,200.218,188.611,196.509,186.372,194.299z"/>
<path style="fill:#FFFFFF;" d="M179.957,203.128c1.56,0,2.824-1.82,2.824-4.065c0-2.245-1.264-4.065-2.824-4.065
	c-1.56,0-2.824,1.82-2.824,4.065C177.133,201.307,178.397,203.128,179.957,203.128z"/>
<path style="fill:#432918;" d="M234.894,200.993c1.445-1.43,3.426-2.313,5.635-2.314c2.21,0.001,4.19,0.883,5.635,2.314
	c1.442,1.434,2.325,3.388,2.326,5.566c0,1.105,0.895,2,2,2c1.105,0,2-0.895,2-2c0.001-3.279-1.346-6.264-3.509-8.406
	c-2.16-2.145-5.16-3.474-8.452-3.473c-3.292-0.001-6.292,1.328-8.452,3.473c-2.163,2.142-3.51,5.127-3.509,8.406
	c0,1.105,0.895,2,2,2c1.105,0,2-0.895,2-2h0C232.569,204.381,233.452,202.427,234.894,200.993z"/>
<path style="fill:#EA7573;" d="M209.325,223.655c-3.479,0-6.57,2.329-8.523,5.934c0.517,7.605,5.077,13.557,10.639,13.557
	c3.484,0,6.578-2.335,8.531-5.948C219.452,229.598,214.884,223.655,209.325,223.655z"/>
<path style="fill:#432918;" d="M211.441,213.164c-0.369,0-0.734,0.026-1.094,0.077c-0.09,0.013-0.179,0.027-0.269,0.043
	c-0.892,0.159-1.75,0.472-2.56,0.919c-0.081,0.045-0.162,0.091-0.241,0.138c-0.12,0.071-0.239,0.145-0.357,0.222
	c-0.079,0.051-0.156,0.104-0.234,0.158c-0.077,0.054-0.154,0.109-0.231,0.166c-0.076,0.056-0.152,0.114-0.227,0.173
	c-0.226,0.177-0.446,0.365-0.661,0.563c-0.143,0.132-0.285,0.269-0.423,0.411c-0.139,0.142-0.275,0.288-0.408,0.438
	c-0.033,0.038-0.066,0.076-0.1,0.114c-2.377,2.75-3.892,6.911-3.892,11.568c0,0.365,0.009,0.726,0.028,1.084
	c0,0.003,0,0.005,0,0.008c0.006,0.119,0.013,0.237,0.021,0.355c1.953-3.613,5.048-5.947,8.531-5.947
	c5.559,0,10.128,5.943,10.647,13.544c0.127-0.234,0.249-0.475,0.366-0.72c0.001-0.003,0.002-0.005,0.004-0.008
	c0.194-0.408,0.375-0.83,0.54-1.264c0.001-0.003,0.002-0.005,0.003-0.008c0.099-0.259,0.192-0.522,0.28-0.79
	c0.002-0.006,0.004-0.011,0.005-0.017c0.029-0.088,0.057-0.176,0.085-0.264l0.001-0.002c0.028-0.089,0.055-0.179,0.081-0.269
	c0.001-0.003,0.002-0.006,0.003-0.009c0.026-0.088,0.051-0.177,0.076-0.266c0.002-0.007,0.004-0.014,0.006-0.021
	c0.049-0.178,0.096-0.359,0.141-0.54c0.002-0.007,0.004-0.015,0.006-0.022c0.022-0.089,0.042-0.177,0.063-0.267
	c0.002-0.01,0.005-0.02,0.007-0.029c0.041-0.18,0.079-0.362,0.116-0.545c0.002-0.01,0.004-0.021,0.006-0.031
	c0.018-0.09,0.035-0.18,0.051-0.27c0.002-0.01,0.004-0.021,0.006-0.032c0.016-0.09,0.032-0.179,0.047-0.269
	c0-0.003,0.001-0.006,0.002-0.009c0.015-0.09,0.029-0.18,0.043-0.27c0.002-0.016,0.005-0.031,0.007-0.047
	c0.013-0.088,0.026-0.176,0.038-0.265c0.002-0.015,0.004-0.03,0.006-0.044c0.011-0.086,0.022-0.171,0.033-0.257
	c0.001-0.008,0.002-0.015,0.003-0.023c0.011-0.092,0.021-0.184,0.031-0.276c0.002-0.015,0.003-0.03,0.005-0.045
	c0.009-0.092,0.018-0.184,0.027-0.276c0.001-0.01,0.002-0.021,0.003-0.031c0.008-0.087,0.015-0.173,0.021-0.26
	c0.001-0.013,0.002-0.026,0.003-0.039c0.007-0.091,0.013-0.182,0.018-0.273c0.001-0.019,0.002-0.037,0.003-0.056
	c0.005-0.092,0.01-0.184,0.014-0.276c0.001-0.009,0.001-0.017,0.001-0.026c0.004-0.087,0.007-0.175,0.01-0.262
	c0.001-0.017,0.001-0.035,0.002-0.052c0.003-0.092,0.005-0.185,0.006-0.278c0-0.015,0-0.029,0.001-0.044
	c0.001-0.097,0.002-0.194,0.002-0.292c0-4.544-1.443-8.616-3.721-11.365C216.543,214.53,214.106,213.164,211.441,213.164z"/>
</svg>
