<svg xmlns="http://www.w3.org/2000/svg" xmlns:xlink="http://www.w3.org/1999/xlink" fill="none" version="1.1" width="32" height="32" viewBox="0 0 32 32"><defs><clipPath id="master_svg0_0_11740/0_2165"><rect x="0" y="0" width="32" height="32" rx="0"/></clipPath></defs><g clip-path="url(#master_svg0_0_11740/0_2165)"><g><path d="M3.31802,6.31802Q2,7.6360399999999995,2,9.5L2,22.5Q2,24.364,3.31802,25.682Q4.6360399999999995,27,6.5,27L25.5,27Q27.364,27,28.682,25.682Q30,24.364,30,22.5L30,9.5Q30,7.6360399999999995,28.682,6.318019Q27.364,5,25.5,5L6.5,5Q4.6360399999999995,5,3.31802,6.31802ZM4,22.5L4,9.5Q4,7,6.5,7L25.5,7Q28,7,28,9.5L28,22.5Q28,25,25.5,25L6.5,25Q4,25,4,22.5Z" fill-rule="evenodd" fill="#221F1F" fill-opacity="1"/></g><g><path d="M3,13L29,13L29,11L3,11L3,13ZM7,18.75L7,20Q7,20.098489999999998,7.01921,20.19509Q7.03843,20.29169,7.07612,20.38268Q7.11381,20.47368,7.16853,20.55557Q7.22325,20.63746,7.29289,20.70711Q7.36254,20.77675,7.44443,20.83147Q7.52632,20.88619,7.61732,20.92388Q7.70831,20.961570000000002,7.80491,20.98078Q7.90151,21,8,21L11,21Q11.09849,21,11.19509,20.98078Q11.29169,20.961570000000002,11.38268,20.92388Q11.47368,20.88619,11.55557,20.83147Q11.63746,20.77675,11.70711,20.70711Q11.77675,20.63746,11.83147,20.55557Q11.88619,20.47368,11.92388,20.38268Q11.96157,20.29169,11.98078,20.19509Q12,20.098489999999998,12,20L12,18.75Q12,18.651510000000002,11.98078,18.55491Q11.96157,18.45831,11.92388,18.36732Q11.88619,18.27632,11.83147,18.19443Q11.77675,18.11254,11.70711,18.04289Q11.63746,17.97325,11.55557,17.91853Q11.47368,17.86381,11.38268,17.82612Q11.29169,17.788429999999998,11.19509,17.76921Q11.09849,17.75,11,17.75L8,17.75Q7.90151,17.75,7.80491,17.76921Q7.70831,17.788429999999998,7.61732,17.82612Q7.52632,17.86381,7.44443,17.91853Q7.36254,17.97325,7.29289,18.04289Q7.22325,18.11254,7.16853,18.19443Q7.11381,18.27632,7.07612,18.36732Q7.03843,18.45831,7.01921,18.55491Q7,18.651510000000002,7,18.75Z" fill-rule="evenodd" fill="#221F1F" fill-opacity="1"/></g></g></svg>