<svg xmlns="http://www.w3.org/2000/svg" xmlns:xlink="http://www.w3.org/1999/xlink" fill="none" version="1.1" width="18" height="18" viewBox="0 0 18 18"><g><path d="M17.01,0C17.01,0,0.99,0,0.99,0C0.727436,3.9968e-16,0.475625,0.104303,0.289964,0.289964C0.104303,0.475625,0,0.727436,0,0.99C0,0.99,0,17.01,0,17.01C3.9968e-16,17.2726,0.104303,17.5244,0.289964,17.71C0.475625,17.8957,0.727436,18,0.99,18C0.99,18,9.612,18,9.612,18C9.612,18,9.612,11.025,9.612,11.025C9.612,11.025,7.272,11.025,7.272,11.025C7.272,11.025,7.272,8.325,7.272,8.325C7.272,8.325,9.612,8.325,9.612,8.325C9.612,8.325,9.612,6.3,9.612,6.3C9.56353,5.82458,9.61965,5.34431,9.77644,4.89288C9.93323,4.44145,10.1869,4.02979,10.5196,3.68677C10.8523,3.34375,11.2561,3.07768,11.7025,2.90721C12.149,2.73675,12.6273,2.66603,13.104,2.7C13.8045,2.69569,14.5047,2.73175,15.201,2.808C15.201,2.808,15.201,5.238,15.201,5.238C15.201,5.238,13.77,5.238,13.77,5.238C12.636,5.238,12.42,5.778,12.42,6.561C12.42,6.561,12.42,8.298,12.42,8.298C12.42,8.298,15.12,8.298,15.12,8.298C15.12,8.298,14.769,10.998,14.769,10.998C14.769,10.998,12.42,10.998,12.42,10.998C12.42,10.998,12.42,18,12.42,18C12.42,18,17.01,18,17.01,18C17.14,18,17.2687,17.9744,17.3889,17.9246C17.509,17.8749,17.6181,17.802,17.71,17.71C17.802,17.6181,17.8749,17.509,17.9246,17.3889C17.9744,17.2687,18,17.14,18,17.01C18,17.01,18,0.99,18,0.99C18,0.859991,17.9744,0.731256,17.9246,0.611143C17.8749,0.491031,17.802,0.381894,17.71,0.289964C17.6181,0.198034,17.509,0.125112,17.3889,0.0753593C17.2687,0.0256072,17.14,-3.9968e-16,17.01,0Z" fill="#FF7A7A" fill-opacity="1"/></g></svg>