<svg xmlns="http://www.w3.org/2000/svg" xmlns:xlink="http://www.w3.org/1999/xlink" fill="none" version="1.1" width="24" height="24" viewBox="0 0 24 24"><defs><clipPath id="master_svg0_0_2510/0_1244"><rect x="0" y="0" width="24" height="24" rx="0"/></clipPath></defs><g clip-path="url(#master_svg0_0_2510/0_1244)"><g><g><path d="M22.74999995326996,12.000000155448914Q22.74999995326996,7.546990155448913,19.601299953269958,4.398250155448913Q16.452499953269957,1.2495001554489136,11.999499953269959,1.2495001554489136Q7.546499953269959,1.2495011554489137,4.397749953269958,4.398250155448913Q1.2489999532699585,7.547000155448914,1.2489999532699585,12.000000155448914Q1.2489999532699585,14.138400155448913,2.0673328532699586,16.114000155448913Q2.8856649532699583,18.089700155448913,4.397749953269958,19.601800155448913Q5.909829953269958,21.113800155448914,7.885459953269958,21.932200155448914Q9.861079953269957,22.750500155448915,11.999499953269959,22.750500155448915Q14.137899953269958,22.750500155448915,16.113499953269958,21.932200155448914Q18.089199953269958,21.113800155448914,19.601299953269958,19.601800155448913Q21.11329995326996,18.089700155448913,21.93169995326996,16.114000155448913Q22.74999995326996,14.138400155448913,22.74999995326996,12.000000155448914ZM11.999499953269959,2.7495001554489136Q15.831199953269959,2.7495001554489136,18.540599953269957,5.458910155448914Q21.24999995326996,8.168320155448914,21.24999995326996,12.000000155448914Q21.24999995326996,13.840000155448914,20.54579995326996,15.540000155448913Q19.84169995326996,17.240000155448914,18.540599953269957,18.541100155448913Q17.23949995326996,19.842200155448914,15.539499953269958,20.546300155448915Q13.839499953269959,21.250500155448915,11.999499953269959,21.250500155448915Q10.15944995326996,21.250500155448915,8.459489953269959,20.546300155448915Q6.759519953269958,19.842200155448914,5.458409953269959,18.541100155448913Q4.157299953269959,17.240000155448914,3.4531499532699588,15.540000155448913Q2.7489999532699585,13.840000155448914,2.7489999532699585,12.000000155448914Q2.7489999532699585,8.168320155448914,5.458409953269959,5.458910155448914Q8.167819953269959,2.7495001554489136,11.999499953269959,2.7495001554489136Z" fill-rule="evenodd" fill="#908B8B" fill-opacity="1"/></g><g><path d="M16.435027428703307,8.05109L16.43480742870331,8.049800000000001Q16.11953742870331,6.13681,15.52440742870331,4.650589999999999Q14.90738742870331,3.1071999999999997,14.069387428703308,2.239882Q13.113027428703308,1.25,11.999997428703308,1.25Q10.889857428703309,1.25,9.929097428703308,2.240418Q9.090967428703308,3.1096500000000002,8.475745428703307,4.6502Q7.881686428703308,6.13375,7.5640894287033085,8.0504Q7.249999428703308,9.94587,7.2500014287033085,11.99842Q7.245812428703308,13.9855,7.564072428703308,15.9495Q7.881240428703308,17.865099999999998,8.475590428703308,19.3494Q9.092617428703308,20.8928,9.930617428703307,21.7601Q10.886967428703308,22.75,11.999997428703308,22.75Q13.11205742870331,22.75,14.070897428703308,21.7596Q14.909027428703308,20.8903,15.524257428703308,19.3498Q16.11929742870331,17.863799999999998,16.43490742870331,15.9496Q16.74999742870331,14.0481,16.74999742870331,12Q16.74999742870331,9.943190000000001,16.435027428703307,8.05109ZM14.131587428703309,5.207409999999999Q14.666327428703308,6.54281,14.954977428703309,8.294920000000001L14.955187428703308,8.296199999999999Q15.249997428703308,10.06653,15.249997428703308,12Q15.249997428703308,13.9247,14.955087428703308,15.7044Q14.665917428703308,17.458199999999998,14.131747428703308,18.7922Q13.625077428703309,20.0609,12.99109742870331,20.7184Q12.47645742870331,21.25,11.999997428703308,21.25Q11.523477428703309,21.25,11.009387428703308,20.7179Q10.376067428703308,20.0624,9.868407428703309,18.7926Q9.334427428703307,17.4591,9.043927428703308,15.7045Q8.746066428703308,13.8663,8.749998428703307,12.0016Q8.749999428703308,10.06931,9.043907428703308,8.29561Q9.334837428703308,6.53991,9.868257428703307,5.207800000000001Q10.374917428703307,3.9391,11.008897428703309,3.28158Q11.524577428703308,2.75,11.999997428703308,2.75Q12.476517428703307,2.75,12.990617428703308,3.28212Q13.623937428703307,3.93759,14.131587428703309,5.207409999999999Z" fill-rule="evenodd" fill="#908B8B" fill-opacity="1"/></g><g><path d="M2,11.24999988079071L22,11.24999988079071Q22.0739,11.24999988079071,22.1463,11.26441088079071Q22.2188,11.27882188079071,22.287,11.307089880790711Q22.3553,11.33535888079071,22.4167,11.37639788079071Q22.4781,11.41743688079071,22.5303,11.469669880790711Q22.5826,11.52190288079071,22.6236,11.583321880790711Q22.6646,11.644741880790711,22.6929,11.71298688079071Q22.7212,11.78123288079071,22.7356,11.85368188079071Q22.75,11.92613138079071,22.75,11.99999988079071Q22.75,12.07386838079071,22.7356,12.146317880790711Q22.7212,12.21876688079071,22.6929,12.28701288079071Q22.6646,12.35525788079071,22.6236,12.41667788079071Q22.5826,12.47809688079071,22.5303,12.53032988079071Q22.4781,12.58256288079071,22.4167,12.62360188079071Q22.3553,12.66464088079071,22.287,12.69290988079071Q22.2188,12.72117788079071,22.1463,12.735588880790711Q22.0739,12.74999988079071,22,12.74999988079071L2,12.74999988079071Q1.9261314999999999,12.74999988079071,1.853682,12.735588880790711Q1.781233,12.72117788079071,1.712987,12.69290988079071Q1.644742,12.66464088079071,1.583322,12.62360188079071Q1.521903,12.58256288079071,1.46967,12.53032988079071Q1.417437,12.47809688079071,1.376398,12.41667788079071Q1.335359,12.35525788079071,1.30709,12.28701288079071Q1.278822,12.21876688079071,1.264411,12.146317880790711Q1.25,12.07386838079071,1.25,11.99999988079071Q1.25,11.92613138079071,1.264411,11.85368188079071Q1.278822,11.78123288079071,1.30709,11.71298688079071Q1.335359,11.644741880790711,1.376398,11.583321880790711Q1.417437,11.52190288079071,1.46967,11.469669880790711Q1.521903,11.41743688079071,1.583322,11.37639788079071Q1.644742,11.33535888079071,1.712987,11.307089880790711Q1.781233,11.27882188079071,1.853682,11.26441088079071Q1.9261314999999999,11.24999988079071,2,11.24999988079071Z" fill-rule="evenodd" fill="#908B8B" fill-opacity="1"/></g></g></g></svg>