<svg width="32" height="32" viewBox="0 0 32 32" fill="none" xmlns="http://www.w3.org/2000/svg">
<rect width="32" height="32" rx="4" fill="#C5E8FD"/>
<path d="M12.7857 8.85718C12.1235 8.85981 11.4891 9.12405 11.0209 9.59232C10.5526 10.0606 10.2883 10.6949 10.2857 11.3572C10.2857 12.73 11.4129 13.8572 12.7857 13.8572C14.1586 13.8572 15.2857 12.73 15.2857 11.3572C15.2857 9.98432 14.1586 8.85718 12.7857 8.85718ZM19.2143 8.85718C18.5521 8.85981 17.9177 9.12405 17.4494 9.59232C16.9812 10.0606 16.7169 10.6949 16.7143 11.3572C16.7143 12.73 17.8414 13.8572 19.2143 13.8572C20.5871 13.8572 21.7143 12.73 21.7143 11.3572C21.7143 9.98432 20.5871 8.85718 19.2143 8.85718ZM12.7857 10.2857C13.3857 10.2857 13.8571 10.7572 13.8571 11.3572C13.8571 11.9572 13.3857 12.4286 12.7857 12.4286C12.1857 12.4286 11.7143 11.9572 11.7143 11.3572C11.7143 10.7572 12.1857 10.2857 12.7857 10.2857ZM19.2143 10.2857C19.8143 10.2857 20.2857 10.7572 20.2857 11.3572C20.2857 11.9572 19.8143 12.4286 19.2143 12.4286C18.6143 12.4286 18.1429 11.9572 18.1429 11.3572C18.1429 10.7572 18.6143 10.2857 19.2143 10.2857ZM9.57143 13.1429C8 13.1429 6.71429 14.4286 6.71429 16C6.71429 16.795 7.055 17.5122 7.585 18.0315C7.09898 18.3597 6.70052 18.8018 6.42428 19.3191C6.14804 19.8365 6.00239 20.4135 6 21H7.42857C7.42857 19.8086 8.38 18.8572 9.57143 18.8572C10.7629 18.8572 11.7143 19.8086 11.7143 21H13.1429C13.1405 20.4135 12.9948 19.8365 12.7186 19.3191C12.4423 18.8018 12.0439 18.3597 11.5579 18.0315C12.0879 17.5122 12.4286 16.7957 12.4286 16C12.4286 14.4286 11.1429 13.1429 9.57143 13.1429ZM13.1429 21C12.6964 21.5972 12.4286 22.3479 12.4286 23.1429H13.8571C13.8571 21.9515 14.8086 21 16 21C17.1914 21 18.1429 21.9515 18.1429 23.1429H19.5714C19.5704 22.3703 19.3199 21.6187 18.8571 21C18.6143 20.6765 18.3214 20.4 17.9864 20.1743C18.5164 19.655 18.8571 18.9386 18.8571 18.1429C18.8571 16.5715 17.5714 15.2857 16 15.2857C14.4286 15.2857 13.1429 16.5715 13.1429 18.1429C13.1429 18.9379 13.4836 19.655 14.0136 20.1743C13.6788 20.3985 13.3844 20.6777 13.1429 21ZM18.8571 21H20.2857C20.2857 19.8086 21.2371 18.8572 22.4286 18.8572C23.62 18.8572 24.5714 19.8086 24.5714 21H26C25.9976 20.4135 25.852 19.8365 25.5757 19.3191C25.2995 18.8018 24.901 18.3597 24.415 18.0315C24.945 17.5122 25.2857 16.7957 25.2857 16C25.2857 14.4286 24 13.1429 22.4286 13.1429C20.8571 13.1429 19.5714 14.4286 19.5714 16C19.5714 16.795 19.9121 17.5122 20.4421 18.0315C19.9561 18.3597 19.5577 18.8018 19.2814 19.3191C19.0052 19.8365 18.8595 20.4135 18.8571 21ZM9.57143 14.5715C10.3693 14.5715 11 15.2022 11 16C11 16.7979 10.3693 17.4286 9.57143 17.4286C8.77357 17.4286 8.14286 16.7979 8.14286 16C8.14286 15.2022 8.77357 14.5715 9.57143 14.5715ZM22.4286 14.5715C23.2264 14.5715 23.8571 15.2022 23.8571 16C23.8571 16.7979 23.2264 17.4286 22.4286 17.4286C21.6307 17.4286 21 16.7979 21 16C21 15.2022 21.6307 14.5715 22.4286 14.5715ZM16 16.7143C16.7979 16.7143 17.4286 17.345 17.4286 18.1429C17.4286 18.9407 16.7979 19.5715 16 19.5715C15.2021 19.5715 14.5714 18.9407 14.5714 18.1429C14.5714 17.345 15.2021 16.7143 16 16.7143Z" fill="#0E5987"/>
</svg>
