<svg xmlns="http://www.w3.org/2000/svg" xmlns:xlink="http://www.w3.org/1999/xlink" fill="none" version="1.1" width="18" height="18" viewBox="0 0 18 18"><g><path d="M16,0C16.5304,4.44089e-16,17.0391,0.210714,17.4142,0.585786C17.7893,0.960859,18,1.46957,18,2C18,2,18,16,18,16C18,16.5304,17.7893,17.0391,17.4142,17.4142C17.0391,17.7893,16.5304,18,16,18C16,18,2,18,2,18C1.46957,18,0.960859,17.7893,0.585786,17.4142C0.210714,17.0391,4.44089e-16,16.5304,0,16C0,16,0,2,0,2C0,1.46957,0.210714,0.960859,0.585786,0.585786C0.960859,0.210714,1.46957,4.44089e-16,2,0C2,0,16,0,16,0ZM15.5,15.5C15.5,15.5,15.5,10.2,15.5,10.2C15.5,9.33539,15.1565,8.5062,14.5452,7.89483C13.9338,7.28346,13.1046,6.94,12.24,6.94C11.39,6.94,10.4,7.46,9.92,8.24C9.92,8.24,9.92,7.13,9.92,7.13C9.92,7.13,7.13,7.13,7.13,7.13C7.13,7.13,7.13,15.5,7.13,15.5C7.13,15.5,9.92,15.5,9.92,15.5C9.92,15.5,9.92,10.57,9.92,10.57C9.92,9.8,10.54,9.17,11.31,9.17C11.6813,9.17,12.0374,9.3175,12.2999,9.58005C12.5625,9.8426,12.71,10.1987,12.71,10.57C12.71,10.57,12.71,15.5,12.71,15.5C12.71,15.5,15.5,15.5,15.5,15.5ZM3.88,5.56C4.32556,5.56,4.75288,5.383,5.06794,5.06794C5.383,4.75288,5.56,4.32556,5.56,3.88C5.56,2.95,4.81,2.19,3.88,2.19C3.43178,2.19,3.00193,2.36805,2.68499,2.68499C2.36805,3.00193,2.19,3.43178,2.19,3.88C2.19,4.81,2.95,5.56,3.88,5.56ZM5.27,15.5C5.27,15.5,5.27,7.13,5.27,7.13C5.27,7.13,2.5,7.13,2.5,7.13C2.5,7.13,2.5,15.5,2.5,15.5C2.5,15.5,5.27,15.5,5.27,15.5Z" fill="#FF7A7A" fill-opacity="1"/></g></svg>