<svg xmlns="http://www.w3.org/2000/svg" xmlns:xlink="http://www.w3.org/1999/xlink" fill="none" version="1.1" width="24" height="24" viewBox="0 0 24 24"><defs><clipPath id="master_svg0_0_2271/0_277"><rect x="0" y="0" width="24" height="24" rx="0"/></clipPath></defs><g clip-path="url(#master_svg0_0_2271/0_277)"><g><path d="M5,5C5,5,11,5,11,5C11.55,5,12,4.55,12,4C12,3.45,11.55,3,11,3C11,3,5,3,5,3C3.9,3,3,3.9,3,5C3,5,3,19,3,19C3,20.1,3.9,21,5,21C5,21,11,21,11,21C11.55,21,12,20.55,12,20C12,19.45,11.55,19,11,19C11,19,5,19,5,19C5,19,5,5,5,5Z" fill="#222222" fill-opacity="1"/></g><g><path d="M20.65,11.64999603942871C20.65,11.64999603942871,17.86,8.859999039428711,17.86,8.859999039428711C17.79045,8.78855083942871,17.701169999999998,8.73948023942871,17.603569999999998,8.719067339428712C17.505969999999998,8.69865446942871,17.4045,8.707828521428711,17.312150000000003,8.745414539428712C17.21979,8.783000539428711,17.14075,8.847289039428711,17.08515,8.93005303942871C17.02954,9.012816039428712,16.99989,9.110290039428712,17,9.21000003942871C17,9.21000003942871,17,10.99999603942871,17,10.99999603942871C17,10.99999603942871,10,10.99999603942871,10,10.99999603942871C9.45,10.99999603942871,9,11.449996039428711,9,11.99999603942871C9,12.549996039428711,9.45,12.999996039428712,10,12.999996039428712C10,12.999996039428712,17,12.999996039428712,17,12.999996039428712C17,12.999996039428712,17,14.789996039428711,17,14.789996039428711C17,15.23999603942871,17.54,15.459996039428711,17.85,15.139996039428711C17.85,15.139996039428711,20.64,12.34999603942871,20.64,12.34999603942871C20.84,12.15999603942871,20.84,11.839996039428712,20.65,11.64999603942871Z" fill="#222222" fill-opacity="1"/></g></g></svg>