<svg xmlns="http://www.w3.org/2000/svg" xmlns:xlink="http://www.w3.org/1999/xlink" fill="none" version="1.1" width="120" height="120" viewBox="0 0 120 120"><defs><clipPath id="master_svg0_0_5705"><rect x="0" y="0" width="120" height="120" rx="0"/></clipPath></defs><g clip-path="url(#master_svg0_0_5705)"><g><path d="M54.48,0C54.48,0,65.52,0,65.52,0C65.52,0,72,0.72,72,0.72C72,0.72,77.76,2.16,77.76,2.16C77.76,2.16,84,4.56,84,4.56C84,4.56,88.56,6.72,88.56,6.72C88.56,6.72,93.84,10.08,93.84,10.08C93.84,10.08,96.48,11.76,96.48,11.76C96.48,11.76,99.12,13.92,99.12,13.92C99.12,13.92,99.36,14.64,99.36,14.64C99.36,14.64,100.32,15.12,100.32,15.12C100.32,15.12,106.8,21.6,106.8,21.6C106.8,21.6,109.44,25.2,109.44,25.2C109.44,25.2,110.64,27.36,110.64,27.36C110.64,27.36,113.52,31.92,113.52,31.92C113.52,31.92,115.68,36.48,115.68,36.48C115.68,36.48,117.84,42.24,117.84,42.24C117.84,42.24,119.28,48,119.28,48C119.28,48,120,54.48,120,54.48C120,54.48,120,65.52,120,65.52C120,65.52,119.52,70.56,119.52,70.56C119.52,70.56,118.32,75.84,118.32,75.84C118.32,75.84,117.12,79.68,117.12,79.68C117.12,79.68,115.2,84.48,115.2,84.48C115.2,84.48,113.28,88.56,113.28,88.56C113.28,88.56,109.92,93.84,109.92,93.84C109.92,93.84,108.24,96.48,108.24,96.48C108.24,96.48,106.08,99.12,106.08,99.12C106.08,99.12,98.4,106.8,98.4,106.8C98.4,106.8,94.8,109.44,94.8,109.44C94.8,109.44,92.64,110.64,92.64,110.64C92.64,110.64,88.8,113.04,88.8,113.04C88.8,113.04,84.96,114.96,84.96,114.96C84.96,114.96,81.6,116.4,81.6,116.4C81.6,116.4,76.8,118.08,76.8,118.08C76.8,118.08,72,119.28,72,119.28C72,119.28,65.28,120,65.28,120C65.28,120,54.48,120,54.48,120C54.48,120,48,119.28,48,119.28C48,119.28,43.2,118.08,43.2,118.08C43.2,118.08,39.6,116.88,39.6,116.88C39.6,116.88,33.84,114.48,33.84,114.48C33.84,114.48,29.52,112.08,29.52,112.08C29.52,112.08,25.92,109.68,25.92,109.68C25.92,109.68,24.48,108.96,24.48,108.96C24.48,108.96,20.64,105.84,20.64,105.84C20.64,105.84,14.64,99.84,14.64,99.84C14.64,99.84,14.64,99.36,14.64,99.36C14.64,99.36,13.68,98.88,13.68,98.88C13.68,98.88,11.04,95.52,11.04,95.52C11.04,95.52,9.36,92.64,9.36,92.64C9.36,92.64,6.48,88.08,6.48,88.08C6.48,88.08,4.32,83.52,4.32,83.52C4.32,83.52,1.92,76.8,1.92,76.8C1.92,76.8,0.72,72,0.72,72C0.72,72,0,65.52,0,65.52C0,65.52,0,54.48,0,54.48C0,54.48,0.72,48,0.72,48C0.72,48,2.16,42.24,2.16,42.24C2.16,42.24,4.56,36,4.56,36C4.56,36,6.72,31.44,6.72,31.44C6.72,31.44,10.08,26.16,10.08,26.16C10.08,26.16,11.76,23.52,11.76,23.52C11.76,23.52,14.4,20.4,14.4,20.4C14.4,20.4,21.36,13.44,21.36,13.44C21.36,13.44,24.48,11.04,24.48,11.04C24.48,11.04,27.36,9.36,27.36,9.36C27.36,9.36,31.2,6.96,31.2,6.96C31.2,6.96,35.04,5.04,35.04,5.04C35.04,5.04,39.6,3.12,39.6,3.12C39.6,3.12,44.88,1.44,44.88,1.44C44.88,1.44,49.44,0.48,49.44,0.48C49.44,0.48,54.48,0,54.48,0Z" fill="#C7DFFD" fill-opacity="1"/></g><g><path d="M49.44000160217285,74.15999603271484C49.44000160217285,74.15999603271484,49.92000160217285,74.39999603271484,49.92000160217285,74.39999603271484C49.92000160217285,74.39999603271484,48.72000160217285,77.03999603271484,48.72000160217285,77.03999603271484C48.72000160217285,77.03999603271484,48.00000160217285,80.15999603271484,48.00000160217285,80.15999603271484C48.00000160217285,80.15999603271484,48.00000160217285,86.63999603271485,48.00000160217285,86.63999603271485C48.00000160217285,86.63999603271485,48.96000160217285,92.87999603271484,48.96000160217285,92.87999603271484C48.96000160217285,92.87999603271484,51.36000160217285,101.27999603271485,51.36000160217285,101.27999603271485C51.36000160217285,101.27999603271485,53.76000160217285,107.75999603271484,53.76000160217285,107.75999603271484C53.76000160217285,107.75999603271484,54.24000160217285,106.55999603271485,54.24000160217285,106.55999603271485C54.24000160217285,106.55999603271485,54.72000160217285,103.67999603271484,54.72000160217285,103.67999603271484C54.72000160217285,103.67999603271484,55.44000160217285,101.51999603271484,55.44000160217285,101.51999603271484C55.44000160217285,101.51999603271484,56.160001602172855,98.87999603271484,56.160001602172855,98.87999603271484C56.160001602172855,98.87999603271484,56.880001602172854,95.03999603271484,56.880001602172854,95.03999603271484C56.880001602172854,95.03999603271484,56.64000160217285,94.07999603271485,56.64000160217285,94.07999603271485C56.64000160217285,94.07999603271485,54.72000160217285,91.43999603271484,54.72000160217285,91.43999603271484C54.72000160217285,91.43999603271484,54.24000160217285,91.19999603271484,54.24000160217285,91.19999603271484C54.24000160217285,91.19999603271484,54.48000160217285,90.23999603271484,54.48000160217285,90.23999603271484C54.48000160217285,90.23999603271484,57.840001602172855,87.35999603271485,57.840001602172855,87.35999603271485C57.840001602172855,87.35999603271485,60.00000160217285,85.67999603271484,60.00000160217285,85.67999603271484C60.00000160217285,85.67999603271484,60.96000160217285,86.15999603271484,60.96000160217285,86.15999603271484C60.96000160217285,86.15999603271484,63.60000160217285,88.31999603271484,63.60000160217285,88.31999603271484C63.60000160217285,88.31999603271484,65.76000160217285,90.23999603271484,65.76000160217285,90.23999603271484C65.76000160217285,90.23999603271484,65.28000160217286,91.43999603271484,65.28000160217286,91.43999603271484C65.28000160217286,91.43999603271484,63.12000160217285,94.31999603271484,63.12000160217285,94.31999603271484C63.12000160217285,94.31999603271484,63.60000160217285,96.95999603271484,63.60000160217285,96.95999603271484C63.60000160217285,96.95999603271484,64.32000160217285,99.59999603271484,64.32000160217285,99.59999603271484C64.32000160217285,99.59999603271484,65.04000160217285,103.43999603271484,65.04000160217285,103.43999603271484C65.04000160217285,103.43999603271484,65.76000160217285,105.59999603271484,65.76000160217285,105.59999603271484C65.76000160217285,105.59999603271484,66.24000160217285,107.75999603271484,66.24000160217285,107.75999603271484C66.24000160217285,107.75999603271484,68.88000160217285,100.55999603271485,68.88000160217285,100.55999603271485C68.88000160217285,100.55999603271485,70.80000160217284,93.59999603271484,70.80000160217284,93.59999603271484C70.80000160217284,93.59999603271484,71.52000160217285,90.23999603271484,71.52000160217285,90.23999603271484C71.52000160217285,90.23999603271484,72.00000160217286,86.63999603271485,72.00000160217286,86.63999603271485C72.00000160217286,86.63999603271485,72.00000160217286,80.15999603271484,72.00000160217286,80.15999603271484C72.00000160217286,80.15999603271484,71.04000160217285,76.31999603271484,71.04000160217285,76.31999603271484C71.04000160217285,76.31999603271484,70.32000160217285,74.87999603271484,70.32000160217285,74.87999603271484C70.32000160217285,74.87999603271484,70.32000160217285,74.39999603271484,70.32000160217285,74.39999603271484C70.32000160217285,74.39999603271484,71.76000160217285,74.87999603271484,71.76000160217285,74.87999603271484C71.76000160217285,74.87999603271484,75.12000160217285,76.55999603271485,75.12000160217285,76.55999603271485C75.12000160217285,76.55999603271485,76.80000160217284,77.27999603271485,76.80000160217284,77.27999603271485C76.80000160217284,77.27999603271485,82.08000160217286,79.91999603271485,82.08000160217286,79.91999603271485C82.08000160217286,79.91999603271485,84.48000160217285,80.87999603271484,84.48000160217285,80.87999603271484C84.48000160217285,80.87999603271484,94.08000160217286,83.99999603271485,94.08000160217286,83.99999603271485C94.08000160217286,83.99999603271485,95.52000160217285,84.47999603271484,95.52000160217285,84.47999603271484C95.52000160217285,84.47999603271484,98.16000160217285,85.91999603271485,98.16000160217285,85.91999603271485C98.16000160217285,85.91999603271485,100.56000160217285,88.07999603271485,100.56000160217285,88.07999603271485C100.56000160217285,88.07999603271485,102.24000160217285,90.47999603271484,102.24000160217285,90.47999603271484C102.24000160217285,90.47999603271484,102.96000160217285,92.15999603271484,102.96000160217285,92.15999603271484C102.96000160217285,92.15999603271484,103.44000160217286,94.31999603271484,103.44000160217286,94.31999603271484C103.44000160217286,94.31999603271484,103.68000160217285,94.79999603271484,103.68000160217285,94.79999603271484C103.68000160217285,94.79999603271484,103.68000160217285,101.51999603271484,103.68000160217285,101.51999603271484C103.68000160217285,101.51999603271484,98.40000160217285,106.79999603271484,98.40000160217285,106.79999603271484C98.40000160217285,106.79999603271484,94.80000160217286,109.43999603271484,94.80000160217286,109.43999603271484C94.80000160217286,109.43999603271484,92.64000160217284,110.63999603271483,92.64000160217284,110.63999603271483C92.64000160217284,110.63999603271483,88.80000160217286,113.03999603271484,88.80000160217286,113.03999603271484C88.80000160217286,113.03999603271484,84.96000160217285,114.95999603271484,84.96000160217285,114.95999603271484C84.96000160217285,114.95999603271484,81.60000160217285,116.39999603271485,81.60000160217285,116.39999603271485C81.60000160217285,116.39999603271485,76.80000160217284,118.07999603271485,76.80000160217284,118.07999603271485C76.80000160217284,118.07999603271485,72.00000160217286,119.27999603271485,72.00000160217286,119.27999603271485C72.00000160217286,119.27999603271485,65.28000160217286,119.99999603271485,65.28000160217286,119.99999603271485C65.28000160217286,119.99999603271485,54.48000160217285,119.99999603271485,54.48000160217285,119.99999603271485C54.48000160217285,119.99999603271485,48.00000160217285,119.27999603271485,48.00000160217285,119.27999603271485C48.00000160217285,119.27999603271485,43.20000160217285,118.07999603271485,43.20000160217285,118.07999603271485C43.20000160217285,118.07999603271485,39.60000160217285,116.87999603271484,39.60000160217285,116.87999603271484C39.60000160217285,116.87999603271484,33.84000160217285,114.47999603271484,33.84000160217285,114.47999603271484C33.84000160217285,114.47999603271484,29.52000160217285,112.07999603271485,29.52000160217285,112.07999603271485C29.52000160217285,112.07999603271485,25.920001602172853,109.67999603271485,25.920001602172853,109.67999603271485C25.920001602172853,109.67999603271485,24.48000160217285,108.95999603271484,24.48000160217285,108.95999603271484C24.48000160217285,108.95999603271484,20.640001602172852,105.83999603271485,20.640001602172852,105.83999603271485C20.640001602172852,105.83999603271485,16.32000160217285,101.51999603271484,16.32000160217285,101.51999603271484C16.32000160217285,101.51999603271484,16.32000160217285,94.55999603271485,16.32000160217285,94.55999603271485C16.32000160217285,94.55999603271485,17.52000160217285,90.95999603271484,17.52000160217285,90.95999603271484C17.52000160217285,90.95999603271484,19.440001602172853,88.07999603271485,19.440001602172853,88.07999603271485C19.440001602172853,88.07999603271485,21.36000160217285,86.15999603271484,21.36000160217285,86.15999603271484C21.36000160217285,86.15999603271484,23.52000160217285,84.71999603271485,23.52000160217285,84.71999603271485C23.52000160217285,84.71999603271485,24.48000160217285,84.71999603271485,24.48000160217285,84.71999603271485C24.48000160217285,84.71999603271485,24.48000160217285,84.23999603271484,24.48000160217285,84.23999603271484C24.48000160217285,84.23999603271484,28.560001602172854,83.03999603271484,28.560001602172854,83.03999603271484C28.560001602172854,83.03999603271484,31.68000160217285,82.07999603271485,31.68000160217285,82.07999603271485C31.68000160217285,82.07999603271485,37.68000160217285,80.15999603271484,37.68000160217285,80.15999603271484C37.68000160217285,80.15999603271484,42.00000160217285,77.75999603271484,42.00000160217285,77.75999603271484C42.00000160217285,77.75999603271484,45.84000160217285,75.83999603271485,45.84000160217285,75.83999603271485C45.84000160217285,75.83999603271485,49.44000160217285,74.15999603271484,49.44000160217285,74.15999603271484Z" fill="#003759" fill-opacity="1"/></g><g><path d="M69.84000244140626,32.15999984741211C69.84000244140626,32.15999984741211,71.52000244140625,32.15999984741211,71.52000244140625,32.15999984741211C71.52000244140625,32.15999984741211,73.44000244140625,33.11999984741211,73.44000244140625,33.11999984741211C73.44000244140625,33.11999984741211,74.88000244140625,34.79999984741211,74.88000244140625,34.79999984741211C74.88000244140625,34.79999984741211,75.12000244140626,40.319999847412106,75.12000244140626,40.319999847412106C75.12000244140626,40.319999847412106,75.60000244140625,40.319999847412106,75.60000244140625,40.319999847412106C75.60000244140625,40.319999847412106,76.56000244140625,41.51999984741211,76.56000244140625,41.51999984741211C76.56000244140625,41.51999984741211,77.52000244140625,41.99999984741211,77.52000244140625,41.99999984741211C77.52000244140625,41.99999984741211,82.56000244140625,42.23999984741211,82.56000244140625,42.23999984741211C82.56000244140625,42.23999984741211,82.56000244140625,49.43999984741211,82.56000244140625,49.43999984741211C82.56000244140625,49.43999984741211,81.60000244140625,50.87999984741211,81.60000244140625,50.87999984741211C81.60000244140625,50.87999984741211,80.40000244140626,51.59999984741211,80.40000244140626,51.59999984741211C80.40000244140626,51.59999984741211,78.72000244140625,51.83999984741211,78.72000244140625,51.83999984741211C78.72000244140625,51.83999984741211,78.24000244140625,55.919999847412114,78.24000244140625,55.919999847412114C78.24000244140625,55.919999847412114,76.80000244140625,59.51999984741211,76.80000244140625,59.51999984741211C76.80000244140625,59.51999984741211,75.12000244140626,62.399999847412104,75.12000244140626,62.399999847412104C75.12000244140626,62.399999847412104,72.48000244140624,65.27999984741211,72.48000244140624,65.27999984741211C72.48000244140624,65.27999984741211,70.32000244140625,66.9599998474121,70.32000244140625,66.9599998474121C70.32000244140625,66.9599998474121,70.08000244140625,74.15999984741211,70.08000244140625,74.15999984741211C70.08000244140625,74.15999984741211,67.92000244140625,76.79999984741211,67.92000244140625,76.79999984741211C67.92000244140625,76.79999984741211,66.96000244140625,77.7599998474121,66.96000244140625,77.7599998474121C66.96000244140625,77.7599998474121,64.80000244140625,80.39999984741212,64.80000244140625,80.39999984741212C64.80000244140625,80.39999984741212,61.680002441406245,83.99999984741211,61.680002441406245,83.99999984741211C61.680002441406245,83.99999984741211,60.48000244140625,85.67999984741212,60.48000244140625,85.67999984741212C60.48000244140625,85.67999984741212,59.04000244140625,86.6399998474121,59.04000244140625,86.6399998474121C59.04000244140625,86.6399998474121,55.44000244140625,89.7599998474121,55.44000244140625,89.7599998474121C55.44000244140625,89.7599998474121,54.48000244140625,90.4799998474121,54.48000244140625,90.4799998474121C54.48000244140625,90.4799998474121,54.24000244140625,91.1999998474121,54.24000244140625,91.1999998474121C54.24000244140625,91.1999998474121,54.960002441406246,91.43999984741211,54.960002441406246,91.43999984741211C54.960002441406246,91.43999984741211,57.12000244140625,94.3199998474121,57.12000244140625,94.3199998474121C57.12000244140625,94.3199998474121,56.64000244140625,96.9599998474121,56.64000244140625,96.9599998474121C56.64000244140625,96.9599998474121,56.16000244140625,99.5999998474121,56.16000244140625,99.5999998474121C56.16000244140625,99.5999998474121,55.200002441406255,103.43999984741211,55.200002441406255,103.43999984741211C55.200002441406255,103.43999984741211,54.72000244140625,104.63999984741211,54.72000244140625,104.63999984741211C54.72000244140625,104.63999984741211,54.24000244140625,107.27999984741211,54.24000244140625,107.27999984741211C54.24000244140625,107.27999984741211,53.76000244140625,107.99999984741211,53.76000244140625,107.99999984741211C53.76000244140625,107.99999984741211,52.56000244140625,105.1199998474121,52.56000244140625,105.1199998474121C52.56000244140625,105.1199998474121,50.88000244140625,100.55999984741212,50.88000244140625,100.55999984741212C50.88000244140625,100.55999984741212,48.72000244140625,92.87999984741211,48.72000244140625,92.87999984741211C48.72000244140625,92.87999984741211,47.76000244140625,86.6399998474121,47.76000244140625,86.6399998474121C47.76000244140625,86.6399998474121,47.76000244140625,80.15999984741211,47.76000244140625,80.15999984741211C47.76000244140625,80.15999984741211,48.72000244140625,76.3199998474121,48.72000244140625,76.3199998474121C48.72000244140625,76.3199998474121,49.68000244140625,74.39999984741212,49.68000244140625,74.39999984741212C49.68000244140625,74.39999984741212,49.68000244140625,66.9599998474121,49.68000244140625,66.9599998474121C49.68000244140625,66.9599998474121,47.04000244140625,64.79999984741211,47.04000244140625,64.79999984741211C47.04000244140625,64.79999984741211,44.40000244140625,61.679999847412105,44.40000244140625,61.679999847412105C44.40000244140625,61.679999847412105,42.72000244140625,58.79999984741211,42.72000244140625,58.79999984741211C42.72000244140625,58.79999984741211,42.00000244140625,56.87999984741211,42.00000244140625,56.87999984741211C42.00000244140625,56.87999984741211,41.52000244140625,54.47999984741211,41.52000244140625,54.47999984741211C41.52000244140625,54.47999984741211,41.52000244140625,52.07999984741211,41.52000244140625,52.07999984741211C41.52000244140625,52.07999984741211,40.56000244140625,51.59999984741211,40.56000244140625,51.59999984741211C40.56000244140625,51.59999984741211,38.64000244140625,51.11999984741211,38.64000244140625,51.11999984741211C38.64000244140625,51.11999984741211,37.68000244140625,49.919999847412114,37.68000244140625,49.919999847412114C37.68000244140625,49.919999847412114,37.44000244140625,49.43999984741211,37.44000244140625,49.43999984741211C37.44000244140625,49.43999984741211,37.44000244140625,42.47999984741211,37.44000244140625,42.47999984741211C37.44000244140625,42.47999984741211,41.76000244140625,42.23999984741211,41.76000244140625,42.23999984741211C41.76000244140625,42.23999984741211,43.68000244140625,41.27999984741211,43.68000244140625,41.27999984741211C43.68000244140625,41.27999984741211,44.88000244140625,39.83999984741211,44.88000244140625,39.83999984741211C44.88000244140625,39.83999984741211,45.12000244140625,35.03999984741211,45.12000244140625,35.03999984741211C45.12000244140625,35.03999984741211,46.08000244140625,33.59999984741211,46.08000244140625,33.59999984741211C46.08000244140625,33.59999984741211,47.52000244140625,32.39999984741211,47.52000244140625,32.39999984741211C47.52000244140625,32.39999984741211,50.40000244140625,32.39999984741211,50.40000244140625,32.39999984741211C50.40000244140625,32.39999984741211,54.00000244140625,33.35999984741211,54.00000244140625,33.35999984741211C54.00000244140625,33.35999984741211,57.84000244140625,33.83999984741211,57.84000244140625,33.83999984741211C57.84000244140625,33.83999984741211,62.88000244140625,33.83999984741211,62.88000244140625,33.83999984741211C62.88000244140625,33.83999984741211,66.72000244140625,33.11999984741211,66.72000244140625,33.11999984741211C66.72000244140625,33.11999984741211,69.84000244140626,32.15999984741211,69.84000244140626,32.15999984741211Z" fill="#FEDCCE" fill-opacity="1"/></g><g><path d="M48.48000244140625,17.040000915527344C48.48000244140625,17.040000915527344,70.56000244140625,17.040000915527344,70.56000244140625,17.040000915527344C70.56000244140625,17.040000915527344,72.96000244140626,18.240000915527343,72.96000244140626,18.240000915527343C72.96000244140626,18.240000915527343,74.40000244140626,19.920000915527343,74.40000244140626,19.920000915527343C74.40000244140626,19.920000915527343,74.88000244140625,20.880000915527344,74.88000244140625,20.880000915527344C74.88000244140625,20.880000915527344,74.88000244140625,23.520000915527344,74.88000244140625,23.520000915527344C74.88000244140625,23.520000915527344,75.36000244140625,23.520000915527344,75.36000244140625,23.520000915527344C75.36000244140625,23.520000915527344,75.84000244140626,24.240000915527343,75.84000244140626,24.240000915527343C75.84000244140626,24.240000915527343,79.20000244140624,24.720000915527343,79.20000244140624,24.720000915527343C79.20000244140624,24.720000915527343,79.92000244140624,25.440000915527342,79.92000244140624,25.440000915527342C79.92000244140624,25.440000915527342,81.12000244140626,26.16000091552734,81.12000244140626,26.16000091552734C81.12000244140626,26.16000091552734,82.56000244140625,28.560000915527343,82.56000244140625,28.560000915527343C82.56000244140625,28.560000915527343,82.56000244140625,42.24000091552735,82.56000244140625,42.24000091552735C82.56000244140625,42.24000091552735,77.52000244140625,42.24000091552735,77.52000244140625,42.24000091552735C77.52000244140625,42.24000091552735,76.08000244140625,41.28000091552734,76.08000244140625,41.28000091552734C76.08000244140625,41.28000091552734,75.60000244140625,40.320000915527345,75.60000244140625,40.320000915527345C75.60000244140625,40.320000915527345,75.12000244140626,40.320000915527345,75.12000244140626,40.320000915527345C75.12000244140626,40.320000915527345,74.88000244140625,39.600000915527346,74.88000244140625,39.600000915527346C74.88000244140625,39.600000915527346,74.64000244140625,34.80000091552735,74.64000244140625,34.80000091552735C74.64000244140625,34.80000091552735,73.20000244140624,33.12000091552734,73.20000244140624,33.12000091552734C73.20000244140624,33.12000091552734,71.52000244140625,32.40000091552734,71.52000244140625,32.40000091552734C71.52000244140625,32.40000091552734,69.84000244140626,32.40000091552734,69.84000244140626,32.40000091552734C69.84000244140626,32.40000091552734,66.00000244140625,33.600000915527346,66.00000244140625,33.600000915527346C66.00000244140625,33.600000915527346,62.88000244140625,34.08000091552734,62.88000244140625,34.08000091552734C62.88000244140625,34.08000091552734,57.84000244140625,34.08000091552734,57.84000244140625,34.08000091552734C57.84000244140625,34.08000091552734,53.04000244140625,33.360000915527344,53.04000244140625,33.360000915527344C53.04000244140625,33.360000915527344,50.40000244140625,32.640000915527345,50.40000244140625,32.640000915527345C50.40000244140625,32.640000915527345,47.52000244140625,32.640000915527345,47.52000244140625,32.640000915527345C47.52000244140625,32.640000915527345,45.84000244140625,34.08000091552734,45.84000244140625,34.08000091552734C45.84000244140625,34.08000091552734,45.36000244140625,35.040000915527344,45.36000244140625,35.040000915527344C45.36000244140625,35.040000915527344,45.12000244140625,39.84000091552734,45.12000244140625,39.84000091552734C45.12000244140625,39.84000091552734,43.44000244140625,41.76000091552734,43.44000244140625,41.76000091552734C43.44000244140625,41.76000091552734,42.24000244140625,42.24000091552735,42.24000244140625,42.24000091552735C42.24000244140625,42.24000091552735,37.44000244140625,42.24000091552735,37.44000244140625,42.24000091552735C37.44000244140625,42.24000091552735,37.44000244140625,28.080000915527343,37.44000244140625,28.080000915527343C37.44000244140625,28.080000915527343,37.92000244140625,25.920000915527346,37.92000244140625,25.920000915527346C37.92000244140625,25.920000915527346,39.36000244140625,23.040000915527344,39.36000244140625,23.040000915527344C39.36000244140625,23.040000915527344,41.28000244140625,20.640000915527345,41.28000244140625,20.640000915527345C41.28000244140625,20.640000915527345,43.920002441406254,18.720000915527343,43.920002441406254,18.720000915527343C43.920002441406254,18.720000915527343,46.56000244140625,17.520000915527344,46.56000244140625,17.520000915527344C46.56000244140625,17.520000915527344,48.48000244140625,17.040000915527344,48.48000244140625,17.040000915527344Z" fill="#385F7E" fill-opacity="1"/></g><g><path d="M36.72000160217285,80.4000015258789C36.72000160217285,80.4000015258789,37.440001602172856,80.4000015258789,37.440001602172856,80.4000015258789C37.440001602172856,80.4000015258789,37.92000160217285,82.32000152587891,37.92000160217285,82.32000152587891C37.92000160217285,82.32000152587891,40.08000160217286,86.6400015258789,40.08000160217286,86.6400015258789C40.08000160217286,86.6400015258789,40.08000160217286,89.0400015258789,40.08000160217286,89.0400015258789C40.08000160217286,89.0400015258789,38.40000160217285,90.96000152587891,38.40000160217285,90.96000152587891C38.40000160217285,90.96000152587891,37.440001602172856,92.16000152587891,37.440001602172856,92.16000152587891C37.440001602172856,92.16000152587891,37.440001602172856,94.5600015258789,37.440001602172856,94.5600015258789C37.440001602172856,94.5600015258789,38.40000160217285,96.7200015258789,38.40000160217285,96.7200015258789C38.40000160217285,96.7200015258789,40.32000160217285,100.08000152587891,40.32000160217285,100.08000152587891C40.32000160217285,100.08000152587891,42.96000160217285,103.68000152587891,42.96000160217285,103.68000152587891C42.96000160217285,103.68000152587891,45.60000160217285,106.80000152587891,45.60000160217285,106.80000152587891C45.60000160217285,106.80000152587891,47.520001602172854,109.2000015258789,47.520001602172854,109.2000015258789C47.520001602172854,109.2000015258789,51.36000160217285,113.2800015258789,51.36000160217285,113.2800015258789C51.36000160217285,113.2800015258789,56.40000160217285,118.32000152587891,56.40000160217285,118.32000152587891C56.40000160217285,118.32000152587891,58.08000160217285,119.7600015258789,58.08000160217285,119.7600015258789C58.08000160217285,119.7600015258789,58.08000160217285,120.0000015258789,58.08000160217285,120.0000015258789C58.08000160217285,120.0000015258789,54.48000160217285,120.0000015258789,54.48000160217285,120.0000015258789C54.48000160217285,120.0000015258789,48.00000160217285,119.2800015258789,48.00000160217285,119.2800015258789C48.00000160217285,119.2800015258789,43.20000160217285,118.08000152587891,43.20000160217285,118.08000152587891C43.20000160217285,118.08000152587891,39.60000160217285,116.8800015258789,39.60000160217285,116.8800015258789C39.60000160217285,116.8800015258789,33.84000160217285,114.4800015258789,33.84000160217285,114.4800015258789C33.84000160217285,114.4800015258789,29.52000160217285,112.08000152587891,29.52000160217285,112.08000152587891C29.52000160217285,112.08000152587891,25.920001602172853,109.68000152587891,25.920001602172853,109.68000152587891C25.920001602172853,109.68000152587891,24.48000160217285,108.96000152587891,24.48000160217285,108.96000152587891C24.48000160217285,108.96000152587891,20.640001602172852,105.8400015258789,20.640001602172852,105.8400015258789C20.640001602172852,105.8400015258789,16.32000160217285,101.52000152587891,16.32000160217285,101.52000152587891C16.32000160217285,101.52000152587891,16.32000160217285,94.5600015258789,16.32000160217285,94.5600015258789C16.32000160217285,94.5600015258789,17.52000160217285,90.96000152587891,17.52000160217285,90.96000152587891C17.52000160217285,90.96000152587891,19.440001602172853,88.08000152587891,19.440001602172853,88.08000152587891C19.440001602172853,88.08000152587891,21.36000160217285,86.16000152587891,21.36000160217285,86.16000152587891C21.36000160217285,86.16000152587891,23.52000160217285,84.7200015258789,23.52000160217285,84.7200015258789C23.52000160217285,84.7200015258789,24.48000160217285,84.7200015258789,24.48000160217285,84.7200015258789C24.48000160217285,84.7200015258789,24.48000160217285,84.24000152587891,24.48000160217285,84.24000152587891C24.48000160217285,84.24000152587891,28.560001602172854,83.0400015258789,28.560001602172854,83.0400015258789C28.560001602172854,83.0400015258789,31.68000160217285,82.08000152587891,31.68000160217285,82.08000152587891C31.68000160217285,82.08000152587891,36.72000160217285,80.4000015258789,36.72000160217285,80.4000015258789Z" fill="#003759" fill-opacity="1"/></g><g><path d="M49.440000762939455,74.15999603271484C49.440000762939455,74.15999603271484,49.92000076293945,74.39999603271484,49.92000076293945,74.39999603271484C49.92000076293945,74.39999603271484,48.72000076293945,77.03999603271484,48.72000076293945,77.03999603271484C48.72000076293945,77.03999603271484,48.00000076293945,80.15999603271484,48.00000076293945,80.15999603271484C48.00000076293945,80.15999603271484,48.00000076293945,86.63999603271485,48.00000076293945,86.63999603271485C48.00000076293945,86.63999603271485,48.96000076293945,92.87999603271484,48.96000076293945,92.87999603271484C48.96000076293945,92.87999603271484,51.36000076293945,101.27999603271485,51.36000076293945,101.27999603271485C51.36000076293945,101.27999603271485,53.760000762939455,107.75999603271484,53.760000762939455,107.75999603271484C53.760000762939455,107.75999603271484,54.24000076293945,106.55999603271485,54.24000076293945,106.55999603271485C54.24000076293945,106.55999603271485,54.72000076293945,103.67999603271484,54.72000076293945,103.67999603271484C54.72000076293945,103.67999603271484,55.44000076293945,101.51999603271484,55.44000076293945,101.51999603271484C55.44000076293945,101.51999603271484,56.160000762939454,98.87999603271484,56.160000762939454,98.87999603271484C56.160000762939454,98.87999603271484,56.88000076293945,95.03999603271484,56.88000076293945,95.03999603271484C56.88000076293945,95.03999603271484,56.64000076293945,94.07999603271485,56.64000076293945,94.07999603271485C56.64000076293945,94.07999603271485,54.72000076293945,91.43999603271484,54.72000076293945,91.43999603271484C54.72000076293945,91.43999603271484,54.24000076293945,91.19999603271484,54.24000076293945,91.19999603271484C54.24000076293945,91.19999603271484,54.480000762939454,90.23999603271484,54.480000762939454,90.23999603271484C54.480000762939454,90.23999603271484,57.840000762939454,87.35999603271485,57.840000762939454,87.35999603271485C57.840000762939454,87.35999603271485,60.00000076293945,85.67999603271484,60.00000076293945,85.67999603271484C60.00000076293945,85.67999603271484,60.96000076293946,86.15999603271484,60.96000076293946,86.15999603271484C60.96000076293946,86.15999603271484,63.60000076293945,88.31999603271484,63.60000076293945,88.31999603271484C63.60000076293945,88.31999603271484,65.76000076293946,90.23999603271484,65.76000076293946,90.23999603271484C65.76000076293946,90.23999603271484,65.28000076293945,91.43999603271484,65.28000076293945,91.43999603271484C65.28000076293945,91.43999603271484,63.120000762939455,94.31999603271484,63.120000762939455,94.31999603271484C63.120000762939455,94.31999603271484,63.60000076293945,96.95999603271484,63.60000076293945,96.95999603271484C63.60000076293945,96.95999603271484,64.32000076293946,99.59999603271484,64.32000076293946,99.59999603271484C64.32000076293946,99.59999603271484,65.04000076293946,103.43999603271484,65.04000076293946,103.43999603271484C65.04000076293946,103.43999603271484,65.76000076293946,105.59999603271484,65.76000076293946,105.59999603271484C65.76000076293946,105.59999603271484,66.24000076293945,108.23999603271484,66.24000076293945,108.23999603271484C66.24000076293945,108.23999603271484,65.04000076293946,111.59999603271484,65.04000076293946,111.59999603271484C65.04000076293946,111.59999603271484,63.36000076293945,114.95999603271484,63.36000076293945,114.95999603271484C63.36000076293945,114.95999603271484,60.96000076293946,119.99999603271485,60.96000076293946,119.99999603271485C60.96000076293946,119.99999603271485,58.08000076293945,119.99999603271485,58.08000076293945,119.99999603271485C58.08000076293945,119.99999603271485,56.88000076293945,119.03999603271484,56.88000076293945,119.03999603271484C56.88000076293945,119.03999603271484,56.88000076293945,118.55999603271485,56.88000076293945,118.55999603271485C56.88000076293945,118.55999603271485,55.92000076293945,118.07999603271485,55.92000076293945,118.07999603271485C55.92000076293945,118.07999603271485,48.96000076293945,111.11999603271485,48.96000076293945,111.11999603271485C48.96000076293945,111.11999603271485,47.28000076293945,109.19999603271484,47.28000076293945,109.19999603271484C47.28000076293945,109.19999603271484,44.400000762939456,105.83999603271485,44.400000762939456,105.83999603271485C44.400000762939456,105.83999603271485,42.480000762939454,103.43999603271484,42.480000762939454,103.43999603271484C42.480000762939454,103.43999603271484,39.60000076293945,99.35999603271485,39.60000076293945,99.35999603271485C39.60000076293945,99.35999603271485,37.68000076293945,95.99999603271485,37.68000076293945,95.99999603271485C37.68000076293945,95.99999603271485,37.20000076293945,94.55999603271485,37.20000076293945,94.55999603271485C37.20000076293945,94.55999603271485,37.20000076293945,92.15999603271484,37.20000076293945,92.15999603271484C37.20000076293945,92.15999603271484,38.88000076293945,90.23999603271484,38.88000076293945,90.23999603271484C38.88000076293945,90.23999603271484,39.840000762939454,89.03999603271484,39.840000762939454,89.03999603271484C39.840000762939454,89.03999603271484,39.840000762939454,86.63999603271485,39.840000762939454,86.63999603271485C39.840000762939454,86.63999603271485,37.440000762939455,81.83999603271485,37.440000762939455,81.83999603271485C37.440000762939455,81.83999603271485,37.440000762939455,80.39999603271484,37.440000762939455,80.39999603271484C37.440000762939455,80.39999603271484,39.36000076293945,79.19999603271485,39.36000076293945,79.19999603271485C39.36000076293945,79.19999603271485,43.20000076293945,77.27999603271485,43.20000076293945,77.27999603271485C43.20000076293945,77.27999603271485,47.28000076293945,75.11999603271484,47.28000076293945,75.11999603271484C47.28000076293945,75.11999603271484,49.440000762939455,74.15999603271484,49.440000762939455,74.15999603271484Z" fill="#004A79" fill-opacity="1"/></g><g><path d="M69.84000564575196,32.15999984741211C69.84000564575196,32.15999984741211,71.52000564575195,32.15999984741211,71.52000564575195,32.15999984741211C71.52000564575195,32.15999984741211,73.44000564575195,33.11999984741211,73.44000564575195,33.11999984741211C73.44000564575195,33.11999984741211,74.88000564575195,34.79999984741211,74.88000564575195,34.79999984741211C74.88000564575195,34.79999984741211,75.12000564575195,40.319999847412106,75.12000564575195,40.319999847412106C75.12000564575195,40.319999847412106,75.60000564575195,40.319999847412106,75.60000564575195,40.319999847412106C75.60000564575195,40.319999847412106,76.56000564575196,41.51999984741211,76.56000564575196,41.51999984741211C76.56000564575196,41.51999984741211,77.52000564575195,41.99999984741211,77.52000564575195,41.99999984741211C77.52000564575195,41.99999984741211,82.56000564575196,42.23999984741211,82.56000564575196,42.23999984741211C82.56000564575196,42.23999984741211,82.56000564575196,49.43999984741211,82.56000564575196,49.43999984741211C82.56000564575196,49.43999984741211,81.60000564575195,50.87999984741211,81.60000564575195,50.87999984741211C81.60000564575195,50.87999984741211,80.40000564575195,51.59999984741211,80.40000564575195,51.59999984741211C80.40000564575195,51.59999984741211,78.72000564575195,51.83999984741211,78.72000564575195,51.83999984741211C78.72000564575195,51.83999984741211,78.24000564575195,55.919999847412114,78.24000564575195,55.919999847412114C78.24000564575195,55.919999847412114,76.80000564575195,59.51999984741211,76.80000564575195,59.51999984741211C76.80000564575195,59.51999984741211,75.12000564575195,62.399999847412104,75.12000564575195,62.399999847412104C75.12000564575195,62.399999847412104,72.48000564575196,65.27999984741211,72.48000564575196,65.27999984741211C72.48000564575196,65.27999984741211,69.84000564575196,67.1999998474121,69.84000564575196,67.1999998474121C69.84000564575196,67.1999998474121,66.48000564575196,68.87999984741211,66.48000564575196,68.87999984741211C66.48000564575196,68.87999984741211,62.88000564575195,69.83999984741212,62.88000564575195,69.83999984741212C62.88000564575195,69.83999984741212,58.08000564575195,69.83999984741212,58.08000564575195,69.83999984741212C58.08000564575195,69.83999984741212,58.80000564575195,69.11999984741212,58.80000564575195,69.11999984741212C58.80000564575195,69.11999984741212,60.960005645751956,67.43999984741211,60.960005645751956,67.43999984741211C60.960005645751956,67.43999984741211,63.12000564575195,65.27999984741211,63.12000564575195,65.27999984741211C63.12000564575195,65.27999984741211,64.32000564575195,63.59999984741211,64.32000564575195,63.59999984741211C64.32000564575195,63.59999984741211,65.28000564575196,61.919999847412114,65.28000564575196,61.919999847412114C65.28000564575196,61.919999847412114,66.48000564575196,58.319999847412106,66.48000564575196,58.319999847412106C66.48000564575196,58.319999847412106,66.96000564575195,55.43999984741211,66.96000564575195,55.43999984741211C66.96000564575195,55.43999984741211,67.20000564575196,33.35999984741211,67.20000564575196,33.35999984741211C67.20000564575196,33.35999984741211,66.72000564575195,33.11999984741211,66.72000564575195,33.11999984741211C66.72000564575195,33.11999984741211,69.84000564575196,32.15999984741211,69.84000564575196,32.15999984741211Z" fill="#FECABE" fill-opacity="1"/></g><g><path d="M70.32000289916992,74.4000015258789C70.32000289916992,74.4000015258789,71.76000289916992,74.88000152587891,71.76000289916992,74.88000152587891C71.76000289916992,74.88000152587891,75.12000289916992,76.5600015258789,75.12000289916992,76.5600015258789C75.12000289916992,76.5600015258789,76.80000289916993,77.2800015258789,76.80000289916993,77.2800015258789C76.80000289916993,77.2800015258789,82.08000289916993,79.9200015258789,82.08000289916993,79.9200015258789C82.08000289916993,79.9200015258789,82.56000289916992,80.4000015258789,82.56000289916992,80.4000015258789C82.56000289916992,80.4000015258789,82.56000289916992,81.8400015258789,82.56000289916992,81.8400015258789C82.56000289916992,81.8400015258789,79.92000289916993,87.1200015258789,79.92000289916993,87.1200015258789C79.92000289916993,87.1200015258789,79.92000289916993,88.5600015258789,79.92000289916993,88.5600015258789C79.92000289916993,88.5600015258789,80.88000289916992,90.0000015258789,80.88000289916992,90.0000015258789C80.88000289916992,90.0000015258789,82.80000289916993,92.16000152587891,82.80000289916993,92.16000152587891C82.80000289916993,92.16000152587891,82.80000289916993,94.5600015258789,82.80000289916993,94.5600015258789C82.80000289916993,94.5600015258789,80.88000289916992,98.4000015258789,80.88000289916992,98.4000015258789C80.88000289916992,98.4000015258789,78.72000289916993,101.7600015258789,78.72000289916993,101.7600015258789C78.72000289916993,101.7600015258789,76.32000289916992,104.88000152587891,76.32000289916992,104.88000152587891C76.32000289916992,104.88000152587891,73.68000289916992,108.0000015258789,73.68000289916992,108.0000015258789C73.68000289916992,108.0000015258789,72.00000289916991,109.92000152587892,72.00000289916991,109.92000152587892C72.00000289916991,109.92000152587892,69.12000289916992,113.0400015258789,69.12000289916992,113.0400015258789C69.12000289916992,113.0400015258789,66.48000289916992,115.68000152587891,66.48000289916992,115.68000152587891C66.48000289916992,115.68000152587891,65.28000289916992,116.8800015258789,65.28000289916992,116.8800015258789C65.28000289916992,116.8800015258789,63.12000289916992,119.0400015258789,63.12000289916992,119.0400015258789C63.12000289916992,119.0400015258789,61.92000289916992,120.0000015258789,61.92000289916992,120.0000015258789C61.92000289916992,120.0000015258789,60.96000289916992,120.0000015258789,60.96000289916992,120.0000015258789C60.96000289916992,120.0000015258789,61.44000289916992,118.5600015258789,61.44000289916992,118.5600015258789C61.44000289916992,118.5600015258789,63.60000289916992,114.0000015258789,63.60000289916992,114.0000015258789C63.60000289916992,114.0000015258789,65.04000289916992,111.1200015258789,65.04000289916992,111.1200015258789C65.04000289916992,111.1200015258789,66.48000289916992,107.0400015258789,66.48000289916992,107.0400015258789C66.48000289916992,107.0400015258789,68.88000289916992,100.5600015258789,68.88000289916992,100.5600015258789C68.88000289916992,100.5600015258789,70.80000289916993,93.60000152587891,70.80000289916993,93.60000152587891C70.80000289916993,93.60000152587891,71.52000289916992,90.24000152587891,71.52000289916992,90.24000152587891C71.52000289916992,90.24000152587891,72.00000289916991,86.6400015258789,72.00000289916991,86.6400015258789C72.00000289916991,86.6400015258789,72.00000289916991,80.16000152587891,72.00000289916991,80.16000152587891C72.00000289916991,80.16000152587891,71.04000289916992,76.32000152587891,71.04000289916992,76.32000152587891C71.04000289916992,76.32000152587891,70.32000289916992,74.88000152587891,70.32000289916992,74.88000152587891C70.32000289916992,74.88000152587891,70.32000289916992,74.4000015258789,70.32000289916992,74.4000015258789Z" fill="#004A79" fill-opacity="1"/></g><g><path d="M82.5599935913086,80.4000015258789C82.5599935913086,80.4000015258789,85.1999935913086,81.1200015258789,85.1999935913086,81.1200015258789C85.1999935913086,81.1200015258789,94.0799935913086,84.0000015258789,94.0799935913086,84.0000015258789C94.0799935913086,84.0000015258789,95.51999359130859,84.4800015258789,95.51999359130859,84.4800015258789C95.51999359130859,84.4800015258789,98.15999359130859,85.9200015258789,98.15999359130859,85.9200015258789C98.15999359130859,85.9200015258789,99.1199935913086,86.88000152587891,99.1199935913086,86.88000152587891C99.1199935913086,86.88000152587891,98.15999359130859,87.3600015258789,98.15999359130859,87.3600015258789C98.15999359130859,87.3600015258789,96.7199935913086,90.0000015258789,96.7199935913086,90.0000015258789C96.7199935913086,90.0000015258789,95.51999359130859,92.4000015258789,95.51999359130859,92.4000015258789C95.51999359130859,92.4000015258789,95.03999359130859,92.4000015258789,95.03999359130859,92.4000015258789C95.03999359130859,92.4000015258789,94.5599935913086,93.60000152587891,94.5599935913086,93.60000152587891C94.5599935913086,93.60000152587891,92.15999359130859,96.96000152587891,92.15999359130859,96.96000152587891C92.15999359130859,96.96000152587891,89.2799935913086,100.32000152587891,89.2799935913086,100.32000152587891C89.2799935913086,100.32000152587891,88.0799935913086,101.7600015258789,88.0799935913086,101.7600015258789C88.0799935913086,101.7600015258789,86.15999359130859,103.4400015258789,86.15999359130859,103.4400015258789C86.15999359130859,103.4400015258789,83.9999935913086,105.60000152587891,83.9999935913086,105.60000152587891C83.9999935913086,105.60000152587891,79.9199935913086,108.7200015258789,79.9199935913086,108.7200015258789C79.9199935913086,108.7200015258789,75.59999359130859,111.60000152587891,75.59999359130859,111.60000152587891C75.59999359130859,111.60000152587891,71.9999935913086,113.7600015258789,71.9999935913086,113.7600015258789C71.9999935913086,113.7600015258789,70.31999359130859,114.4800015258789,70.31999359130859,114.4800015258789C70.31999359130859,114.4800015258789,67.9199935913086,115.4400015258789,67.9199935913086,115.4400015258789C67.9199935913086,115.4400015258789,66.7199935913086,115.68000152587891,66.7199935913086,115.68000152587891C66.7199935913086,115.68000152587891,67.1999935913086,114.7200015258789,67.1999935913086,114.7200015258789C67.1999935913086,114.7200015258789,70.79999359130859,111.1200015258789,70.79999359130859,111.1200015258789C70.79999359130859,111.1200015258789,72.4799935913086,109.2000015258789,72.4799935913086,109.2000015258789C72.4799935913086,109.2000015258789,75.3599935913086,105.8400015258789,75.3599935913086,105.8400015258789C75.3599935913086,105.8400015258789,77.75999359130859,102.7200015258789,77.75999359130859,102.7200015258789C77.75999359130859,102.7200015258789,80.15999359130859,99.36000152587891,80.15999359130859,99.36000152587891C80.15999359130859,99.36000152587891,82.31999359130859,95.2800015258789,82.31999359130859,95.2800015258789C82.31999359130859,95.2800015258789,82.5599935913086,94.5600015258789,82.5599935913086,94.5600015258789C82.5599935913086,94.5600015258789,82.5599935913086,92.16000152587891,82.5599935913086,92.16000152587891C82.5599935913086,92.16000152587891,80.3999935913086,89.7600015258789,80.3999935913086,89.7600015258789C80.3999935913086,89.7600015258789,79.6799935913086,88.5600015258789,79.6799935913086,88.5600015258789C79.6799935913086,88.5600015258789,79.6799935913086,87.1200015258789,79.6799935913086,87.1200015258789C79.6799935913086,87.1200015258789,82.31999359130859,81.8400015258789,82.31999359130859,81.8400015258789C82.31999359130859,81.8400015258789,82.5599935913086,80.4000015258789,82.5599935913086,80.4000015258789Z" fill="#003759" fill-opacity="1"/></g><g><path d="M60.000005950927736,85.68000793457031C60.000005950927736,85.68000793457031,60.96000595092774,86.16000793457032,60.96000595092774,86.16000793457032C60.96000595092774,86.16000793457032,63.60000595092774,88.32000793457031,63.60000595092774,88.32000793457031C63.60000595092774,88.32000793457031,65.76000595092773,90.24000793457031,65.76000595092773,90.24000793457031C65.76000595092773,90.24000793457031,65.28000595092773,91.44000793457032,65.28000595092773,91.44000793457032C65.28000595092773,91.44000793457032,63.120005950927734,94.32000793457031,63.120005950927734,94.32000793457031C63.120005950927734,94.32000793457031,63.60000595092774,96.96000793457031,63.60000595092774,96.96000793457031C63.60000595092774,96.96000793457031,64.32000595092774,99.60000793457031,64.32000595092774,99.60000793457031C64.32000595092774,99.60000793457031,65.04000595092774,103.44000793457032,65.04000595092774,103.44000793457032C65.04000595092774,103.44000793457032,65.76000595092773,105.60000793457031,65.76000595092773,105.60000793457031C65.76000595092773,105.60000793457031,66.24000595092774,108.24000793457031,66.24000595092774,108.24000793457031C66.24000595092774,108.24000793457031,65.04000595092774,111.60000793457031,65.04000595092774,111.60000793457031C65.04000595092774,111.60000793457031,63.360005950927736,114.96000793457031,63.360005950927736,114.96000793457031C63.360005950927736,114.96000793457031,60.96000595092774,120.0000079345703,60.96000595092774,120.0000079345703C60.96000595092774,120.0000079345703,59.040005950927736,120.0000079345703,59.040005950927736,120.0000079345703C59.040005950927736,120.0000079345703,57.120005950927734,116.16000793457032,57.120005950927734,116.16000793457032C57.120005950927734,116.16000793457032,55.680005950927736,113.2800079345703,55.680005950927736,113.2800079345703C55.680005950927736,113.2800079345703,54.48000595092773,110.16000793457032,54.48000595092773,110.16000793457032C54.48000595092773,110.16000793457032,53.760005950927734,108.0000079345703,53.760005950927734,108.0000079345703C53.760005950927734,108.0000079345703,54.24000595092773,106.56000793457031,54.24000595092773,106.56000793457031C54.24000595092773,106.56000793457031,54.720005950927735,103.68000793457031,54.720005950927735,103.68000793457031C54.720005950927735,103.68000793457031,55.440005950927734,101.52000793457032,55.440005950927734,101.52000793457032C55.440005950927734,101.52000793457032,56.16000595092773,98.88000793457032,56.16000595092773,98.88000793457032C56.16000595092773,98.88000793457032,56.88000595092773,95.04000793457031,56.88000595092773,95.04000793457031C56.88000595092773,95.04000793457031,56.64000595092774,94.08000793457032,56.64000595092774,94.08000793457032C56.64000595092774,94.08000793457032,54.720005950927735,91.44000793457032,54.720005950927735,91.44000793457032C54.720005950927735,91.44000793457032,54.24000595092773,91.20000793457031,54.24000595092773,91.20000793457031C54.24000595092773,91.20000793457031,54.48000595092773,90.24000793457031,54.48000595092773,90.24000793457031C54.48000595092773,90.24000793457031,57.84000595092773,87.36000793457032,57.84000595092773,87.36000793457032C57.84000595092773,87.36000793457032,60.000005950927736,85.68000793457031,60.000005950927736,85.68000793457031Z" fill="#C60000" fill-opacity="1"/></g><g><path d="M67.19999694824219,17.279998779296875C67.19999694824219,17.279998779296875,69.5999969482422,17.279998779296875,69.5999969482422,17.279998779296875C69.5999969482422,17.279998779296875,71.75999694824219,17.519998779296873,71.75999694824219,17.519998779296873C71.75999694824219,17.519998779296873,73.67999694824219,18.959998779296875,73.67999694824219,18.959998779296875C73.67999694824219,18.959998779296875,74.8799969482422,20.879998779296876,74.8799969482422,20.879998779296876C74.8799969482422,20.879998779296876,74.8799969482422,23.519998779296877,74.8799969482422,23.519998779296877C74.8799969482422,23.519998779296877,75.35999694824218,23.519998779296877,75.35999694824218,23.519998779296877C75.35999694824218,23.519998779296877,75.83999694824219,24.239998779296876,75.83999694824219,24.239998779296876C75.83999694824219,24.239998779296876,79.19999694824219,24.719998779296876,79.19999694824219,24.719998779296876C79.19999694824219,24.719998779296876,79.91999694824219,25.439998779296875,79.91999694824219,25.439998779296875C79.91999694824219,25.439998779296875,81.11999694824219,26.159998779296878,81.11999694824219,26.159998779296878C81.11999694824219,26.159998779296878,82.55999694824219,28.559998779296876,82.55999694824219,28.559998779296876C82.55999694824219,28.559998779296876,82.55999694824219,42.239998779296876,82.55999694824219,42.239998779296876C82.55999694824219,42.239998779296876,77.51999694824218,42.239998779296876,77.51999694824218,42.239998779296876C77.51999694824218,42.239998779296876,76.07999694824218,41.279998779296875,76.07999694824218,41.279998779296875C76.07999694824218,41.279998779296875,75.5999969482422,40.319998779296874,75.5999969482422,40.319998779296874C75.5999969482422,40.319998779296874,75.11999694824219,40.319998779296874,75.11999694824219,40.319998779296874C75.11999694824219,40.319998779296874,74.8799969482422,39.599998779296875,74.8799969482422,39.599998779296875C74.8799969482422,39.599998779296875,74.63999694824219,34.79999877929687,74.63999694824219,34.79999877929687C74.63999694824219,34.79999877929687,73.19999694824219,33.11999877929688,73.19999694824219,33.11999877929688C73.19999694824219,33.11999877929688,71.51999694824218,32.39999877929687,71.51999694824218,32.39999877929687C71.51999694824218,32.39999877929687,69.83999694824219,32.39999877929687,69.83999694824219,32.39999877929687C69.83999694824219,32.39999877929687,68.39999694824219,32.879998779296876,68.39999694824219,32.879998779296876C68.39999694824219,32.879998779296876,67.19999694824219,32.879998779296876,67.19999694824219,32.879998779296876C67.19999694824219,32.879998779296876,67.19999694824219,17.279998779296875,67.19999694824219,17.279998779296875Z" fill="#2D4F67" fill-opacity="1"/></g><g><path d="M49.9199983215332,74.15999603271484C49.9199983215332,74.15999603271484,51.59999832153321,75.59999603271484,51.59999832153321,75.59999603271484C51.59999832153321,75.59999603271484,53.7599983215332,77.99999603271485,53.7599983215332,77.99999603271485C53.7599983215332,77.99999603271485,55.9199983215332,80.63999603271485,55.9199983215332,80.63999603271485C55.9199983215332,80.63999603271485,58.319998321533205,83.27999603271485,58.319998321533205,83.27999603271485C58.319998321533205,83.27999603271485,59.999998321533205,85.19999603271484,59.999998321533205,85.19999603271484C59.999998321533205,85.19999603271484,59.999998321533205,85.91999603271485,59.999998321533205,85.91999603271485C59.999998321533205,85.91999603271485,57.359998321533205,88.07999603271485,57.359998321533205,88.07999603271485C57.359998321533205,88.07999603271485,54.4799983215332,90.47999603271484,54.4799983215332,90.47999603271484C54.4799983215332,90.47999603271484,54.23999832153321,91.19999603271484,54.23999832153321,91.19999603271484C54.23999832153321,91.19999603271484,54.959998321533206,91.43999603271484,54.959998321533206,91.43999603271484C54.959998321533206,91.43999603271484,57.1199983215332,94.31999603271484,57.1199983215332,94.31999603271484C57.1199983215332,94.31999603271484,56.639998321533206,96.95999603271484,56.639998321533206,96.95999603271484C56.639998321533206,96.95999603271484,56.1599983215332,99.59999603271484,56.1599983215332,99.59999603271484C56.1599983215332,99.59999603271484,55.1999983215332,103.43999603271484,55.1999983215332,103.43999603271484C55.1999983215332,103.43999603271484,54.719998321533204,104.63999603271485,54.719998321533204,104.63999603271485C54.719998321533204,104.63999603271485,54.23999832153321,107.27999603271485,54.23999832153321,107.27999603271485C54.23999832153321,107.27999603271485,53.7599983215332,107.99999603271485,53.7599983215332,107.99999603271485C53.7599983215332,107.99999603271485,52.5599983215332,105.11999603271485,52.5599983215332,105.11999603271485C52.5599983215332,105.11999603271485,50.8799983215332,100.55999603271485,50.8799983215332,100.55999603271485C50.8799983215332,100.55999603271485,48.719998321533204,92.87999603271484,48.719998321533204,92.87999603271484C48.719998321533204,92.87999603271484,47.7599983215332,86.63999603271485,47.7599983215332,86.63999603271485C47.7599983215332,86.63999603271485,47.7599983215332,80.15999603271484,47.7599983215332,80.15999603271484C47.7599983215332,80.15999603271484,48.719998321533204,76.31999603271484,48.719998321533204,76.31999603271484C48.719998321533204,76.31999603271484,49.9199983215332,74.15999603271484,49.9199983215332,74.15999603271484Z" fill="#F2F9FD" fill-opacity="1"/></g><g><path d="M69.84000717163086,74.15999603271484C69.84000717163086,74.15999603271484,70.56000717163086,74.87999603271484,70.56000717163086,74.87999603271484C70.56000717163086,74.87999603271484,71.76000717163086,77.75999603271484,71.76000717163086,77.75999603271484C71.76000717163086,77.75999603271484,72.24000717163086,80.15999603271484,72.24000717163086,80.15999603271484C72.24000717163086,80.15999603271484,72.24000717163086,86.63999603271485,72.24000717163086,86.63999603271485C72.24000717163086,86.63999603271485,71.52000717163085,91.19999603271484,71.52000717163085,91.19999603271484C71.52000717163085,91.19999603271484,70.08000717163085,97.19999603271484,70.08000717163085,97.19999603271484C70.08000717163085,97.19999603271484,68.64000717163086,101.75999603271484,68.64000717163086,101.75999603271484C68.64000717163086,101.75999603271484,66.48000717163086,107.75999603271484,66.48000717163086,107.75999603271484C66.48000717163086,107.75999603271484,66.00000717163086,107.99999603271485,66.00000717163086,107.99999603271485C66.00000717163086,107.99999603271485,65.04000717163086,103.67999603271484,65.04000717163086,103.67999603271484C65.04000717163086,103.67999603271484,64.32000717163086,101.51999603271484,64.32000717163086,101.51999603271484C64.32000717163086,101.51999603271484,63.84000717163086,99.11999603271485,63.84000717163086,99.11999603271485C63.84000717163086,99.11999603271485,62.88000717163086,95.03999603271484,62.88000717163086,95.03999603271484C62.88000717163086,95.03999603271484,63.12000717163086,94.07999603271485,63.12000717163086,94.07999603271485C63.12000717163086,94.07999603271485,65.04000717163086,91.43999603271484,65.04000717163086,91.43999603271484C65.04000717163086,91.43999603271484,65.52000717163087,90.23999603271484,65.52000717163087,90.23999603271484C65.52000717163087,90.23999603271484,63.60000717163086,88.55999603271485,63.60000717163086,88.55999603271485C63.60000717163086,88.55999603271485,60.48000717163086,85.91999603271485,60.48000717163086,85.91999603271485C60.48000717163086,85.91999603271485,60.72000717163086,84.95999603271484,60.72000717163086,84.95999603271484C60.72000717163086,84.95999603271484,62.88000717163086,82.31999603271484,62.88000717163086,82.31999603271484C62.88000717163086,82.31999603271484,65.04000717163086,79.91999603271485,65.04000717163086,79.91999603271485C65.04000717163086,79.91999603271485,66.24000717163086,78.23999603271484,66.24000717163086,78.23999603271484C66.24000717163086,78.23999603271484,66.72000717163085,78.23999603271484,66.72000717163085,78.23999603271484C66.72000717163085,78.23999603271484,67.20000717163086,77.03999603271484,67.20000717163086,77.03999603271484C67.20000717163086,77.03999603271484,67.92000717163086,76.79999603271484,67.92000717163086,76.79999603271484C67.92000717163086,76.79999603271484,68.40000717163086,75.83999603271485,68.40000717163086,75.83999603271485C68.40000717163086,75.83999603271485,69.84000717163086,74.15999603271484,69.84000717163086,74.15999603271484Z" fill="#F2F8FD" fill-opacity="1"/></g><g><path d="M71.52000106811523,88.08000183105469C71.52000106811523,88.08000183105469,71.76000106811523,88.08000183105469,71.76000106811523,88.08000183105469C71.76000106811523,88.08000183105469,71.76000106811523,90.24000183105468,71.76000106811523,90.24000183105468C71.76000106811523,90.24000183105468,70.32000106811523,96.4800018310547,70.32000106811523,96.4800018310547C70.32000106811523,96.4800018310547,68.64000106811524,101.7600018310547,68.64000106811524,101.7600018310547C68.64000106811524,101.7600018310547,66.48000106811523,107.7600018310547,66.48000106811523,107.7600018310547C66.48000106811523,107.7600018310547,66.00000106811524,108.00000183105469,66.00000106811524,108.00000183105469C66.00000106811524,108.00000183105469,65.04000106811523,103.68000183105468,65.04000106811523,103.68000183105468C65.04000106811523,103.68000183105468,64.32000106811523,101.52000183105469,64.32000106811523,101.52000183105469C64.32000106811523,101.52000183105469,63.840001068115235,99.12000183105468,63.840001068115235,99.12000183105468C63.840001068115235,99.12000183105468,62.880001068115234,95.04000183105468,62.880001068115234,95.04000183105468C62.880001068115234,95.04000183105468,63.120001068115236,94.08000183105469,63.120001068115236,94.08000183105469C63.120001068115236,94.08000183105469,65.04000106811523,91.44000183105469,65.04000106811523,91.44000183105469C65.04000106811523,91.44000183105469,66.00000106811524,90.24000183105468,66.00000106811524,90.24000183105468C66.00000106811524,90.24000183105468,66.00000106811524,90.72000183105469,66.00000106811524,90.72000183105469C66.00000106811524,90.72000183105469,66.72000106811524,90.96000183105468,66.72000106811524,90.96000183105468C66.72000106811524,90.96000183105468,68.88000106811523,90.96000183105468,68.88000106811523,90.96000183105468C68.88000106811523,90.96000183105468,70.08000106811524,90.00000183105469,70.08000106811524,90.00000183105469C70.08000106811524,90.00000183105469,71.52000106811523,88.08000183105469,71.52000106811523,88.08000183105469Z" fill="#E3F3FC" fill-opacity="1"/></g><g><path d="M48.24000549316406,88.08000183105469C48.24000549316406,88.08000183105469,49.20000549316406,89.04000183105468,49.20000549316406,89.04000183105468C49.20000549316406,89.04000183105468,50.88000549316406,90.96000183105468,50.88000549316406,90.96000183105468C50.88000549316406,90.96000183105468,51.36000549316406,91.20000183105469,51.36000549316406,91.20000183105469C51.36000549316406,91.20000183105469,53.04000549316406,91.20000183105469,53.04000549316406,91.20000183105469C53.04000549316406,91.20000183105469,54.00000549316406,90.96000183105468,54.00000549316406,90.96000183105468C54.00000549316406,90.96000183105468,54.24000549316406,90.4800018310547,54.24000549316406,90.4800018310547C54.24000549316406,90.4800018310547,54.24000549316406,91.20000183105469,54.24000549316406,91.20000183105469C54.24000549316406,91.20000183105469,54.96000549316406,91.44000183105469,54.96000549316406,91.44000183105469C54.96000549316406,91.44000183105469,57.120005493164065,94.32000183105468,57.120005493164065,94.32000183105468C57.120005493164065,94.32000183105468,56.64000549316406,96.96000183105468,56.64000549316406,96.96000183105468C56.64000549316406,96.96000183105468,56.160005493164064,99.60000183105468,56.160005493164064,99.60000183105468C56.160005493164064,99.60000183105468,55.20000549316406,103.44000183105469,55.20000549316406,103.44000183105469C55.20000549316406,103.44000183105469,54.72000549316407,104.64000183105469,54.72000549316407,104.64000183105469C54.72000549316407,104.64000183105469,54.24000549316406,107.28000183105469,54.24000549316406,107.28000183105469C54.24000549316406,107.28000183105469,53.76000549316406,108.00000183105469,53.76000549316406,108.00000183105469C53.76000549316406,108.00000183105469,52.56000549316406,105.12000183105468,52.56000549316406,105.12000183105468C52.56000549316406,105.12000183105468,50.88000549316406,100.56000183105469,50.88000549316406,100.56000183105469C50.88000549316406,100.56000183105469,48.72000549316406,92.88000183105468,48.72000549316406,92.88000183105468C48.72000549316406,92.88000183105468,48.24000549316406,90.00000183105469,48.24000549316406,90.00000183105469C48.24000549316406,90.00000183105469,48.24000549316406,88.08000183105469,48.24000549316406,88.08000183105469Z" fill="#E3F3FC" fill-opacity="1"/></g><g><path d="M60.000001678466795,85.68000793457031C60.000001678466795,85.68000793457031,60.960001678466796,86.16000793457032,60.960001678466796,86.16000793457032C60.960001678466796,86.16000793457032,63.600001678466796,88.32000793457031,63.600001678466796,88.32000793457031C63.600001678466796,88.32000793457031,65.7600016784668,90.24000793457031,65.7600016784668,90.24000793457031C65.7600016784668,90.24000793457031,65.28000167846679,91.44000793457032,65.28000167846679,91.44000793457032C65.28000167846679,91.44000793457032,62.8800016784668,94.56000793457031,62.8800016784668,94.56000793457031C62.8800016784668,94.56000793457031,57.1200016784668,94.56000793457031,57.1200016784668,94.56000793457031C57.1200016784668,94.56000793457031,54.960001678466796,91.92000793457031,54.960001678466796,91.92000793457031C54.960001678466796,91.92000793457031,54.2400016784668,91.20000793457031,54.2400016784668,91.20000793457031C54.2400016784668,91.20000793457031,54.4800016784668,90.24000793457031,54.4800016784668,90.24000793457031C54.4800016784668,90.24000793457031,57.8400016784668,87.36000793457032,57.8400016784668,87.36000793457032C57.8400016784668,87.36000793457032,60.000001678466795,85.68000793457031,60.000001678466795,85.68000793457031Z" fill="#670000" fill-opacity="1"/></g><g><path d="M61.20000564575195,117.5999984741211C61.20000564575195,117.5999984741211,61.92000564575196,117.5999984741211,61.92000564575196,117.5999984741211C61.92000564575196,117.5999984741211,61.44000564575195,119.03999847412109,61.44000564575195,119.03999847412109C61.44000564575195,119.03999847412109,60.960005645751956,119.9999984741211,60.960005645751956,119.9999984741211C60.960005645751956,119.9999984741211,59.040005645751954,119.9999984741211,59.040005645751954,119.9999984741211C59.040005645751954,119.9999984741211,58.08000564575195,118.0799984741211,58.08000564575195,118.0799984741211C58.08000564575195,118.0799984741211,60.48000564575195,117.83999847412109,60.48000564575195,117.83999847412109C60.48000564575195,117.83999847412109,61.20000564575195,117.5999984741211,61.20000564575195,117.5999984741211Z" fill="#C60000" fill-opacity="1"/></g><g><path d="M56.63999755859375,118.55999755859375C56.63999755859375,118.55999755859375,58.079997558593746,119.75999755859375,58.079997558593746,119.75999755859375C58.079997558593746,119.75999755859375,58.079997558593746,119.99999755859375,58.079997558593746,119.99999755859375C58.079997558593746,119.99999755859375,54.47999755859375,119.99999755859375,54.47999755859375,119.99999755859375C54.47999755859375,119.99999755859375,52.55999755859375,119.75999755859375,52.55999755859375,119.75999755859375C52.55999755859375,119.75999755859375,52.79999755859375,119.27999755859375,52.79999755859375,119.27999755859375C52.79999755859375,119.27999755859375,56.15999755859375,118.79999755859374,56.15999755859375,118.79999755859374C56.15999755859375,118.79999755859374,56.63999755859375,118.55999755859375,56.63999755859375,118.55999755859375Z" fill="#407296" fill-opacity="1"/></g></g></svg>