<svg xmlns="http://www.w3.org/2000/svg" xmlns:xlink="http://www.w3.org/1999/xlink" fill="none" version="1.1" width="190.25927734375" height="199.9998779296875" viewBox="0 0 190.25927734375 199.9998779296875"><g><g><g><g><path d="M153.9046625,75.01809215087891C153.9046625,75.01809215087891,88.9211325,75.01809215087891,88.9211325,75.01809215087891C87.3294225,75.01809215087891,86.0390625,73.72779215087891,86.0390625,72.1360621508789C86.0390625,72.1360621508789,86.0390625,65.55747215087891,86.0390625,65.55747215087891C86.0390625,63.96576215087891,87.3294225,62.675392150878906,88.9211325,62.675392150878906C88.9211325,62.675392150878906,153.9046625,62.675392150878906,153.9046625,62.675392150878906C155.4963625,62.675392150878906,156.7866625,63.96576215087891,156.7866625,65.55747215087891C156.7866625,65.55747215087891,156.7866625,72.1360621508789,156.7866625,72.1360621508789C156.7866625,73.72779215087891,155.4963625,75.01809215087891,153.9046625,75.01809215087891Z" fill="#3A9EC1" fill-opacity="1"/></g><g><path d="M127.58430167236328,36.354765349121095C127.58430167236328,36.354765349121095,127.58430167236328,60.17114534912109,127.58430167236328,60.17114534912109C127.58430167236328,60.17114534912109,115.24140167236328,60.17114534912109,115.24140167236328,60.17114534912109C115.24140167236328,60.17114534912109,115.24140167236328,36.354765349121095,115.24140167236328,36.354765349121095C115.24140167236328,34.763655349121095,116.53200167236328,33.473045349121094,118.12323167236327,33.473045349121094C118.12323167236327,33.473045349121094,124.70253167236328,33.473045349121094,124.70253167236328,33.473045349121094C126.29360167236328,33.47304534912111,127.58430167236328,34.763655349121095,127.58430167236328,36.354765349121095Z" fill="#2B7FAD" fill-opacity="1"/></g><g><path d="M115.24151798436328,77.52226257324219C115.24151798436328,77.52226257324219,127.58440167236328,77.52226257324219,127.58440167236328,77.52226257324219C127.58440167236328,77.52226257324219,127.58440167236328,101.33856257324219,127.58440167236328,101.33856257324219C127.58440167236328,102.92966257324218,126.29380167236329,104.22036257324218,124.70253167236328,104.22036257324218C124.70253167236328,104.22036257324218,118.12323167236327,104.22036257324218,118.12323167236327,104.22036257324218C116.53212167236327,104.22036257324218,115.24140167236328,102.92976257324219,115.24140167236328,101.33856257324219C115.24140167236328,101.33856257324219,115.24151798436328,77.52226257324219,115.24151798436328,77.52226257324219Z" fill="#2B7FAD" fill-opacity="1"/></g><g><path d="M184.84701333618165,42.04690000000091C181.37901333618163,33.84820000000091,176.41601333618163,26.48590000000091,170.09501333618164,20.16470000000091C163.77401333618164,13.84350000000091,156.41101333618164,8.88003000000091,148.21261333618165,5.41232000000091C139.72151333618166,1.8209800000009095,130.70491333618165,9.094947017729282e-13,121.41271333618164,9.094947017729282e-13C112.12061333618163,9.094947017729282e-13,103.10401333618164,1.8209800000009095,94.61291333618163,5.41232000000091C86.41401333618164,8.88015000000091,79.05191333618164,13.84360000000091,72.73071333618164,20.16470000000091C66.40951333618165,26.48570000000091,61.446173336181644,33.84800000000091,57.97833333618164,42.04690000000091C54.38699333618164,50.538000000000906,52.56601333618164,59.554700000000906,52.56601333618164,68.84670000000091C52.56601333618164,78.13890000000092,54.38699333618164,87.15550000000091,57.97833333618164,95.64660000000092C60.79550333618164,102.30700000000091,64.59961333618165,108.41500000000092,69.31671333618164,113.8620000000009C69.31671333618164,113.8620000000009,61.08576333618164,122.09300000000091,61.08576333618164,122.09300000000091C61.08576333618164,122.09300000000091,68.16671333618164,129.17400000000092,68.16671333618164,129.17400000000092C68.16671333618164,129.17400000000092,76.39761333618165,120.94300000000091,76.39761333618165,120.94300000000091C81.84411333618164,125.6600000000009,87.95251333618164,129.4640000000009,94.61291333618163,132.28100000000092C103.10401333618164,135.87200000000092,112.12061333618163,137.69300000000092,121.41271333618164,137.69300000000092C130.70491333618165,137.69300000000092,139.72151333618166,135.87200000000092,148.21261333618165,132.28100000000092C156.41101333618164,128.8130000000009,163.77401333618164,123.8500000000009,170.09501333618164,117.5290000000009C176.41601333618163,111.20800000000091,181.37901333618163,103.84500000000091,184.84701333618165,95.64660000000092C188.43801333618165,87.15550000000091,190.25901333618165,78.13890000000092,190.25901333618165,68.84670000000091C190.25901333618165,59.554700000000906,188.43801333618165,50.538000000000906,184.84701333618165,42.04690000000091ZM175.62401333618163,91.7456000000009C172.66101333618164,98.7507000000009,168.41801333618164,105.04300000000092,163.01401333618162,110.4480000000009C157.60901333618165,115.85200000000091,151.31671333618164,120.09500000000091,144.31161333618164,123.05800000000092C137.06161333618164,126.12500000000091,129.35731333618165,127.67900000000091,121.41271333618164,127.67900000000091C113.46811333618163,127.67900000000091,105.76391333618164,126.12500000000091,98.51391333618164,123.05800000000092C91.50881333618165,120.09500000000091,85.21651333618163,115.85200000000091,79.81181333618164,110.4480000000009C74.40711333618164,105.04300000000092,70.16431333618164,98.7507000000009,67.20141333618164,91.7456000000009C64.13491333618164,84.4956000000009,62.580013336181636,76.79130000000092,62.580013336181636,68.84670000000091C62.580013336181636,60.90210000000091,64.13491333618164,53.19790000000091,67.20141333618164,45.94790000000091C70.16431333618164,38.94280000000091,74.40711333618164,32.65040000000091,79.81181333618164,27.24570000000091C85.21661333618164,21.84100000000091,91.50881333618165,17.598300000000908,98.51391333618164,14.63540000000091C105.76391333618164,11.568900000000909,113.46811333618163,10.014000000000909,121.41271333618164,10.014000000000909C129.35731333618165,10.014000000000909,137.06161333618164,11.568900000000909,144.31161333618164,14.63540000000091C151.31671333618164,17.598300000000908,157.60901333618165,21.84100000000091,163.01401333618162,27.24570000000091C168.41801333618164,32.65040000000091,172.66101333618164,38.94270000000091,175.62401333618163,45.94790000000091C178.69101333618164,53.19790000000091,180.24501333618164,60.90210000000091,180.24501333618164,68.84670000000091C180.24501333618164,76.79130000000092,178.69101333618164,84.49550000000092,175.62401333618163,91.7456000000009Z" fill="#BDD2DB" fill-opacity="1"/></g><g><path d="M4.05619999999909,186.20309847412108C-1.3520700000009096,180.79489847412108,-1.3520700000009096,172.0263984741211,4.05619999999909,166.6181984741211C4.05619999999909,166.6181984741211,47.20569999999909,123.4686984741211,47.20569999999909,123.4686984741211C52.61389999999909,118.0604284741211,61.38239999999909,118.0604284741211,66.79069999999909,123.4686984741211C72.19889999999909,128.8769784741211,72.19889999999909,137.6453984741211,66.79069999999909,143.0536984741211C66.79069999999909,143.0536984741211,23.641199999999092,186.20309847412108,23.641199999999092,186.20309847412108C18.23279999999909,191.6112984741211,9.46435999999909,191.6112984741211,4.05619999999909,186.20309847412108Z" fill="#2E4D5B" fill-opacity="1"/></g></g><g><path d="M165.8915765991211,197.21712194824218Q165.8915765991211,197.28543194824218,165.8065765991211,197.35366194824218Q165.7205765991211,197.42189194824218,165.5505765991211,197.48987194824218Q165.3805765991211,197.5578619482422,165.1255765991211,197.62543194824218Q164.87057659912108,197.6930019482422,164.53157659912108,197.76000194824218Q164.19257659912108,197.82700194824218,163.77057659912109,197.8932719482422Q163.3485765991211,197.9595319482422,162.8445765991211,198.0249119482422Q162.3405765991211,198.0902819482422,161.7545765991211,198.15460194824217Q161.1695765991211,198.21891194824218,160.5045765991211,198.28203194824218Q159.8405765991211,198.3451419482422,159.09757659912108,198.4068919482422Q158.3545765991211,198.46865194824218,157.5355765991211,198.52889194824218Q156.7175765991211,198.5891419482422,155.82357659912108,198.64773194824218Q154.93057659912108,198.7063319482422,153.9655765991211,198.76313194824218Q153.0005765991211,198.81993194824219,151.9655765991211,198.87480194824218Q150.9315765991211,198.92967194824217,149.82957659912108,198.9824719482422Q148.7275765991211,199.0352819482422,147.56057659912108,199.0858919482422Q146.3935765991211,199.13651194824217,145.1655765991211,199.1848219482422Q143.9375765991211,199.2331219482422,142.6505765991211,199.27900194824218Q141.36357659912107,199.3248719482422,140.0205765991211,199.3682119482422Q138.6775765991211,199.4115519482422,137.28257659912111,199.45224194824218Q135.88757659912108,199.4929319482422,134.44257659912108,199.53089194824219Q132.9985765991211,199.56884194824218,131.5085765991211,199.6039619482422Q130.0185765991211,199.6390819482422,128.4865765991211,199.67128194824218Q126.9545765991211,199.7034819482422,125.38457659912109,199.73269194824218Q123.8137765991211,199.76190194824218,122.2088765991211,199.78804194824218Q120.6040765991211,199.81418194824218,118.96847659912109,199.83719194824218Q117.3328765991211,199.86021194824218,115.67057659912109,199.8800419482422Q114.00827659912109,199.89987194824218,112.32327659912109,199.9164719482422Q110.6381765991211,199.9330719482422,108.9344765991211,199.9463919482422Q107.2307765991211,199.9597219482422,105.5124765991211,199.9697419482422Q103.79417659912109,199.9797719482422,102.0653765991211,199.98646194824218Q100.33667659912109,199.99316194824218,98.60167659912109,199.9965119482422Q96.86657659912109,199.9998619482422,95.12947659912109,199.9998619482422Q93.39237659912109,199.9998619482422,91.6573765991211,199.9965119482422Q89.9223765991211,199.99316194824218,88.19367659912109,199.98646194824218Q86.46487659912108,199.9797719482422,84.74657659912108,199.9697419482422Q83.02827659912109,199.9597219482422,81.32457659912109,199.9463919482422Q79.62077659912109,199.9330719482422,77.93577659912108,199.9164719482422Q76.25067659912109,199.89987194824218,74.58837659912109,199.8800419482422Q72.9260765991211,199.86021194824218,71.2905765991211,199.83719194824218Q69.65497659912108,199.81418194824218,68.0500765991211,199.78804194824218Q66.44517659912108,199.76190194824218,64.8748765991211,199.73269194824218Q63.30457659912109,199.7034819482422,61.772576599121095,199.67128194824218Q60.24057659912109,199.6390819482422,58.750576599121096,199.6039619482422Q57.26067659912109,199.56884194824218,55.816276599121096,199.53089194824219Q54.3719765991211,199.4929319482422,52.97667659912109,199.45224194824218Q51.58137659912109,199.4115519482422,50.23857659912109,199.3682119482422Q48.89577659912109,199.3248719482422,47.6086765991211,199.27900194824218Q46.321576599121094,199.2331219482422,45.0932765991211,199.1848219482422Q43.86497659912109,199.13651194824217,42.69837659912109,199.0858919482422Q41.531776599121095,199.0352819482422,40.4297765991211,198.9824719482422Q39.327776599121094,198.92967194824217,38.29297659912109,198.87480194824218Q37.25817659912109,198.81993194824219,36.29307659912109,198.76313194824218Q35.32807659912109,198.7063319482422,34.43497659912109,198.64773194824218Q33.5419265991211,198.5891419482422,32.723056599121094,198.52889194824218Q31.904186599121093,198.46865194824218,31.161476599121094,198.4068919482422Q30.418766599121092,198.3451419482422,29.754006599121094,198.28203194824218Q29.089246599121093,198.21891194824218,28.504036599121093,198.15460194824217Q27.918816599121094,198.0902819482422,27.414566599121095,198.0249119482422Q26.910306599121093,197.9595319482422,26.488226599121095,197.8932719482422Q26.066136599121094,197.82700194824218,25.727246599121095,197.76000194824218Q25.388356599121092,197.6930019482422,25.133467599121094,197.62543194824218Q24.878580599121094,197.5578619482422,24.708314599121096,197.48987194824218Q24.538048599121094,197.42189194824218,24.452812399121093,197.35366194824218Q24.367576599121094,197.28543194824218,24.367576599121094,197.21712194824218Q24.367576599121094,197.14880194824218,24.452812399121093,197.08057194824218Q24.538048599121094,197.01234194824218,24.708314599121096,196.94436194824218Q24.878580599121094,196.8763819482422,25.133467599121094,196.80880194824218Q25.388356599121092,196.7412319482422,25.727246599121095,196.67423194824218Q26.066136599121094,196.6072319482422,26.488226599121095,196.5409619482422Q26.910306599121093,196.4747019482422,27.414566599121095,196.4093319482422Q27.918816599121094,196.3439619482422,28.504026599121094,196.2796419482422Q29.089246599121093,196.21532194824218,29.754006599121094,196.15221194824218Q30.418766599121092,196.08909194824219,31.161476599121094,196.0273419482422Q31.904186599121093,195.96559194824218,32.723056599121094,195.90534194824218Q33.5419265991211,195.84509194824219,34.43497659912109,195.78650194824218Q35.32807659912109,195.7279119482422,36.29307659912109,195.67111194824219Q37.25817659912109,195.61431194824218,38.29297659912109,195.55944194824218Q39.327776599121094,195.5045719482422,40.4297765991211,195.4517619482422Q41.531776599121095,195.3989559482422,42.69837659912109,195.3483399482422Q43.86497659912109,195.29772394824218,45.0932765991211,195.24941994824218Q46.321576599121094,195.20111494824218,47.6086765991211,195.1552389482422Q48.89577659912109,195.1093629482422,50.23857659912109,195.06602594824218Q51.58137659912109,195.02268894824218,52.97667659912109,194.9819959482422Q54.3719765991211,194.9413019482422,55.816276599121096,194.90334894824218Q57.26067659912109,194.8653969482422,58.750576599121096,194.8302769482422Q60.24057659912109,194.79515794824218,61.772576599121095,194.7629549482422Q63.30457659912109,194.73075294824218,64.8748765991211,194.7015449482422Q66.44517659912108,194.6723379482422,68.0500765991211,194.6461959482422Q69.65497659912108,194.6200539482422,71.2905765991211,194.59703994824218Q72.9260765991211,194.5740259482422,74.58837659912109,194.55419594824218Q76.25067659912109,194.5343659482422,77.93577659912108,194.5177673482422Q79.62077659912109,194.50116874824218,81.32457659912109,194.48784164824218Q83.02827659912109,194.47451454824218,84.74657659912108,194.4644909482422Q86.46487659912108,194.45446744824218,88.19367659912109,194.4477716482422Q89.9223765991211,194.4410758282422,91.6573765991211,194.43772388824218Q93.39237659912109,194.4343719482422,95.12947659912109,194.4343719482422Q96.86657659912109,194.4343719482422,98.60167659912109,194.43772388824218Q100.33667659912109,194.4410758282422,102.0653765991211,194.4477716482422Q103.79417659912109,194.45446744824218,105.5124765991211,194.4644909482422Q107.2307765991211,194.47451454824218,108.9344765991211,194.48784164824218Q110.6381765991211,194.50116874824218,112.32327659912109,194.5177673482422Q114.00827659912109,194.5343659482422,115.67057659912109,194.55419594824218Q117.3328765991211,194.5740259482422,118.96847659912109,194.59703994824218Q120.6040765991211,194.6200539482422,122.2088765991211,194.6461959482422Q123.8137765991211,194.6723379482422,125.38457659912109,194.7015449482422Q126.9545765991211,194.73075294824218,128.4865765991211,194.7629549482422Q130.0185765991211,194.79515794824218,131.5085765991211,194.8302769482422Q132.9985765991211,194.8653969482422,134.44257659912108,194.90334894824218Q135.88757659912108,194.9413019482422,137.28257659912111,194.9819959482422Q138.6775765991211,195.02268894824218,140.0205765991211,195.06602594824218Q141.36357659912107,195.1093629482422,142.6505765991211,195.1552389482422Q143.9375765991211,195.20111494824218,145.1655765991211,195.24941994824218Q146.3935765991211,195.29772394824218,147.56057659912108,195.3483399482422Q148.7275765991211,195.3989559482422,149.82957659912108,195.4517619482422Q150.9315765991211,195.5045719482422,151.9655765991211,195.55944194824218Q153.0005765991211,195.61431194824218,153.9655765991211,195.67111194824219Q154.93057659912108,195.7279119482422,155.82357659912108,195.78650194824218Q156.7175765991211,195.84509194824219,157.5355765991211,195.90534194824218Q158.3545765991211,195.96559194824218,159.09757659912108,196.0273419482422Q159.8405765991211,196.08909194824219,160.5045765991211,196.15221194824218Q161.1695765991211,196.21532194824218,161.7545765991211,196.2796419482422Q162.3405765991211,196.3439619482422,162.8445765991211,196.4093319482422Q163.3485765991211,196.4747019482422,163.77057659912109,196.5409619482422Q164.19257659912108,196.6072319482422,164.53157659912108,196.67423194824218Q164.87057659912108,196.7412319482422,165.1255765991211,196.80880194824218Q165.3805765991211,196.8763819482422,165.5505765991211,196.94436194824218Q165.7205765991211,197.01234194824218,165.8065765991211,197.08057194824218Q165.8915765991211,197.14880194824218,165.8915765991211,197.21712194824218Z" fill="#CFDDE2" fill-opacity="1"/></g></g></g></svg>