<svg xmlns="http://www.w3.org/2000/svg" xmlns:xlink="http://www.w3.org/1999/xlink" fill="none" version="1.1" width="56" height="56" viewBox="0 0 56 56"><defs><clipPath id="master_svg0_0_5697"><rect x="0" y="0" width="56" height="56" rx="0"/></clipPath><linearGradient x1="0.5" y1="-3.0616171314629196e-17" x2="0.5" y2="1" id="master_svg1_0_5690"><stop offset="0%" stop-color="#F30000" stop-opacity="1"/><stop offset="100%" stop-color="#11A3FF" stop-opacity="1"/></linearGradient></defs><g clip-path="url(#master_svg0_0_5697)"><g><g></g><g><path d="M29.638,5.121666853942871C28.5819,4.725780353942871,27.4181,4.725780353942871,26.362,5.121666853942871C26.362,5.121666853942871,10.02867,11.246661853942872,10.02867,11.246661853942872C9.13895,11.580171853942872,8.37224,12.17733185394287,7.831024,12.958291853942871C7.289809,13.739261853942871,6.999881704,14.66683185394287,7.0000000362082,15.61695185394287C7.0000000362082,15.61695185394287,7.0000000362082,28.130651853942872,7.0000000362082,28.130651853942872C6.9999159261,32.03065185394287,8.08587,35.85365185394287,10.13616,39.171151853942874C12.18646,42.48875185394287,15.12009,45.16985185394287,18.6083,46.91395185394287C18.6083,46.91395185394287,26.4343,50.82705185394287,26.4343,50.82705185394287C26.9204,51.07015185394287,27.4565,51.19675185394287,28,51.19675185394287C28.5435,51.19675185394287,29.0796,51.07015185394287,29.5657,50.82705185394287C29.5657,50.82705185394287,37.3917,46.91395185394287,37.3917,46.91395185394287C40.8799,45.16985185394287,43.8135,42.48875185394287,45.8638,39.171151853942874C47.9141,35.85365185394287,49.0001,32.03065185394287,49,28.130651853942872C49,28.130651853942872,49,15.61695185394287,49,15.61695185394287C49.0001,14.66683185394287,48.7102,13.739261853942871,48.169,12.958291853942871C47.6278,12.17733185394287,46.861,11.580171853942872,45.9713,11.246661853942872C45.9713,11.246661853942872,29.638,5.121666853942871,29.638,5.121666853942871ZM25.6667,10.36700185394287C25.6667,10.36700185394287,11.66667,15.61695185394287,11.66667,15.61695185394287C11.66667,15.61695185394287,11.66667,28.130651853942872,11.66667,28.130651853942872C11.667200000000001,31.16365185394287,12.51225,34.13665185394287,14.107140000000001,36.71645185394287C15.70202,39.29635185394287,17.9837,41.38115185394287,20.6967,42.73735185394287C20.6967,42.73735185394287,25.6667,45.22695185394287,25.6667,45.22695185394287C25.6667,45.22695185394287,25.6667,10.36700185394287,25.6667,10.36700185394287ZM30.3333,45.22695185394287C30.3333,45.22695185394287,35.3033,42.739651853942874,35.3033,42.739651853942874C38.0166,41.38325185394287,40.2986,39.29815185394287,41.8935,36.717851853942875C43.4884,34.13755185394287,44.3332,31.164051853942873,44.3333,28.130651853942872C44.3333,28.130651853942872,44.3333,15.61695185394287,44.3333,15.61695185394287C44.3333,15.61695185394287,30.3333,10.36700185394287,30.3333,10.36700185394287C30.3333,10.36700185394287,30.3333,45.22695185394287,30.3333,45.22695185394287Z" fill-rule="evenodd" fill="url(#master_svg1_0_5690)" fill-opacity="1"/></g></g></g></svg>