<svg width="200" height="200" viewBox="0 0 200 200" fill="none" xmlns="http://www.w3.org/2000/svg">
<path d="M136.8 154.806C136.8 154.806 156 153.606 169.2 130.006C182.4 106.406 180 70.4064 163.6 50.4064C147.2 30.4064 121.6 23.6064 97.2 30.0064C85.3112 33.1248 77.3836 41.2128 70.5324 50.9616C64.5644 59.454 57.8536 67.6412 48.82 73.016C39.8752 78.3376 30.6808 82.5824 26.164 92.6968C15.1716 117.311 23.2048 145.951 49.2 155.606C77.2 166.006 124 160.406 136.8 154.806Z" fill="#88D1FF"/>
<path opacity="0.7" d="M136.8 154.806C136.8 154.806 156 153.606 169.2 130.006C182.4 106.406 180 70.4064 163.6 50.4064C147.2 30.4064 121.6 23.6064 97.2 30.0064C85.3112 33.1248 77.3836 41.2128 70.5324 50.9616C64.5644 59.454 57.8536 67.6412 48.82 73.016C39.8752 78.3376 30.6808 82.5824 26.164 92.6968C15.1716 117.311 23.2048 145.951 49.2 155.606C77.2 166.006 124 160.406 136.8 154.806Z" fill="white"/>
<path d="M102.067 172.406C139.806 172.406 170.4 169.72 170.4 166.406C170.4 163.093 139.806 160.406 102.067 160.406C64.3275 160.406 33.7336 163.093 33.7336 166.406C33.7336 169.72 64.3275 172.406 102.067 172.406Z" fill="#88D1FF"/>
<path opacity="0.5" d="M102.067 172.406C139.806 172.406 170.4 169.72 170.4 166.406C170.4 163.093 139.806 160.406 102.067 160.406C64.3275 160.406 33.7336 163.093 33.7336 166.406C33.7336 169.72 64.3275 172.406 102.067 172.406Z" fill="white"/>
<path d="M32.3881 90.5212V94.0696" stroke="#005E99" stroke-miterlimit="10" stroke-linecap="round" stroke-linejoin="round"/>
<path d="M34.1624 92.2952H30.614" stroke="#005E99" stroke-miterlimit="10" stroke-linecap="round" stroke-linejoin="round"/>
<path d="M153.455 60.1212V63.6696" stroke="#005E99" stroke-miterlimit="10" stroke-linecap="round" stroke-linejoin="round"/>
<path d="M155.229 61.8952H151.681" stroke="#005E99" stroke-miterlimit="10" stroke-linecap="round" stroke-linejoin="round"/>
<path d="M103.055 32.6548V36.2028" stroke="#005E99" stroke-miterlimit="10" stroke-linecap="round" stroke-linejoin="round"/>
<path d="M104.829 34.4288H101.281" stroke="#005E99" stroke-miterlimit="10" stroke-linecap="round" stroke-linejoin="round"/>
<path d="M44.6549 130.255V133.803" stroke="#005E99" stroke-miterlimit="10" stroke-linecap="round" stroke-linejoin="round"/>
<path d="M46.4289 132.029H42.8809" stroke="#005E99" stroke-miterlimit="10" stroke-linecap="round" stroke-linejoin="round"/>
<path d="M151.867 47.3332C151.867 48.9532 150.554 50.2664 148.934 50.2664C147.314 50.2664 146 48.9532 146 47.3332C146 45.7132 147.314 44.4 148.934 44.4C150.553 44.4 151.867 45.7132 151.867 47.3332Z" stroke="#005E99" stroke-miterlimit="10" stroke-linecap="round" stroke-linejoin="round"/>
<path d="M26.3249 117.779C27.8216 117.159 28.5323 115.443 27.9124 113.946C27.2924 112.45 25.5765 111.739 24.0799 112.359C22.5832 112.979 21.8724 114.695 22.4924 116.191C23.1124 117.688 24.8282 118.399 26.3249 117.779Z" stroke="#005E99" stroke-miterlimit="10" stroke-linecap="round" stroke-linejoin="round"/>
<path d="M165.2 77.3332C165.2 77.7016 164.902 78 164.533 78C164.165 78 163.866 77.7016 163.866 77.3332C163.866 76.9652 164.165 76.6664 164.533 76.6664C164.902 76.6668 165.2 76.9652 165.2 77.3332Z" stroke="#005E99" stroke-miterlimit="10" stroke-linecap="round" stroke-linejoin="round"/>
<path d="M63.4668 67.7332C63.4668 68.1016 63.1684 68.4 62.8 68.4C62.4316 68.4 62.1332 68.1016 62.1332 67.7332C62.1332 67.3652 62.4316 67.0664 62.8 67.0664C63.1684 67.0664 63.4668 67.3652 63.4668 67.7332Z" stroke="#005E99" stroke-miterlimit="10" stroke-linecap="round" stroke-linejoin="round"/>
<path d="M175.57 107.068L175.584 107.05C175.584 107.05 175.575 107.049 175.561 107.048C175.555 107.034 175.552 107.027 175.552 107.027L175.538 107.046C174.981 106.99 169.225 106.496 163.972 109.225C166.008 106.599 167.377 103.199 166.946 98.8908C165.678 86.2136 153.714 78.9544 152.793 78.4132V78.3792C152.793 78.3792 152.782 78.3856 152.764 78.396C152.746 78.3856 152.734 78.3792 152.734 78.3792V78.4132C151.813 78.9544 139.849 86.2136 138.581 98.8908C138.305 101.657 138.771 104.048 139.678 106.101C132.942 102.074 125.082 102.752 124.359 102.824L124.342 102.802C124.342 102.802 124.338 102.812 124.33 102.828C124.313 102.83 124.302 102.831 124.302 102.831L124.319 102.854C123.964 103.674 119.467 114.483 124.87 123.671C129.7 131.887 139.832 129.715 142.583 128.944C144.896 131.373 149.11 136.899 150.974 146.333H148.346L149.612 164.198H155.517L156.782 146.333H153.692C155.512 138.391 158.544 132.435 161.235 128.366C163.99 129.051 171.448 130.211 175.123 123.96C179.507 116.505 175.858 107.734 175.57 107.068ZM152.584 106.998L146.343 98.3312C146.288 98.2552 146.306 98.1492 146.382 98.0944C146.458 98.04 146.564 98.0572 146.619 98.1328L152.594 106.432V97.652L152.584 97.6652L146.343 88.998C146.288 88.922 146.306 88.816 146.382 88.7612C146.458 88.7068 146.564 88.7236 146.619 88.8L152.594 97.0988V84.3176C152.594 84.224 152.67 84.148 152.764 84.148C152.857 84.148 152.933 84.224 152.933 84.3176V96.6732L159.414 88.4544C159.472 88.3808 159.578 88.3684 159.652 88.4264C159.726 88.4844 159.738 88.5912 159.68 88.6648L152.934 97.2216V106.006L159.414 97.7872C159.472 97.7136 159.579 97.7012 159.652 97.7592C159.726 97.8172 159.739 97.924 159.681 97.9976L152.934 106.554V113.982L159.414 105.763C159.473 105.689 159.579 105.677 159.653 105.735C159.726 105.793 159.739 105.9 159.681 105.973L152.934 114.53V114.692H152.382L146.344 106.306C146.29 106.23 146.307 106.124 146.383 106.07C146.459 106.015 146.566 106.032 146.62 106.108L152.595 114.407V106.985L152.584 106.998ZM142.67 128.157L142.054 127.315L133.274 124.867C133.198 124.846 133.154 124.768 133.175 124.692C133.196 124.617 133.274 124.573 133.35 124.593L141.784 126.945L138.117 121.929L129.336 119.48C129.261 119.459 129.217 119.381 129.238 119.306C129.258 119.23 129.337 119.186 129.412 119.207L137.846 121.559L133.51 115.626L124.729 113.178C124.653 113.156 124.609 113.078 124.63 113.003C124.651 112.928 124.73 112.883 124.805 112.904L133.239 115.256L127.139 106.911C127.093 106.848 127.107 106.759 127.17 106.712C127.233 106.666 127.322 106.68 127.368 106.743L133.678 115.376L133.617 106.821C133.616 106.742 133.679 106.678 133.758 106.678C133.836 106.677 133.9 106.74 133.9 106.819L133.965 115.753L133.951 115.75L138.286 121.679L138.224 113.124C138.223 113.046 138.287 112.982 138.365 112.982C138.443 112.981 138.507 113.044 138.508 113.122L138.572 122.057L138.558 122.053L142.222 127.066L142.161 118.511C142.16 118.433 142.224 118.369 142.302 118.368C142.38 118.368 142.444 118.43 142.444 118.509L142.509 127.443L142.495 127.44L143.02 128.158H142.67V128.157ZM143.668 128.157C144.95 126.21 148.644 119.811 146.438 113.656C148.655 115.128 150.768 116.027 151.911 116.457V144.231C149.885 135.721 146.066 130.616 143.739 128.157H143.668ZM153.268 142.521V116.585C154.204 116.251 156.259 115.437 158.503 114.034C154.98 119.682 158.926 126.204 159.966 127.743C157.645 131.278 155.108 136.167 153.268 142.521ZM175.237 115.446L168.112 117.432L164.594 122.246L171.437 120.338C171.498 120.322 171.562 120.357 171.579 120.418C171.596 120.48 171.56 120.543 171.499 120.56L164.374 122.547L161.399 126.617L168.242 124.709C168.304 124.692 168.367 124.728 168.384 124.789C168.402 124.85 168.366 124.914 168.304 124.931L161.18 126.918L160.806 127.43C160.738 127.391 160.67 127.352 160.607 127.311L160.821 127.018L160.81 127.021L160.862 119.772C160.863 119.708 160.915 119.657 160.978 119.658C161.042 119.658 161.093 119.71 161.093 119.774L161.043 126.715L164.016 122.648L164.005 122.651L164.057 115.402C164.057 115.338 164.109 115.287 164.173 115.288C164.236 115.288 164.288 115.34 164.287 115.404L164.237 122.345L167.754 117.534L167.743 117.537L167.795 110.288C167.795 110.224 167.847 110.173 167.911 110.174C167.974 110.174 168.026 110.226 168.025 110.29L167.975 117.231L173.095 110.226C173.133 110.175 173.205 110.164 173.256 110.201C173.307 110.239 173.318 110.311 173.281 110.362L168.332 117.132L175.175 115.224C175.237 115.207 175.3 115.243 175.317 115.304C175.334 115.365 175.299 115.429 175.237 115.446Z" fill="#005E99"/>
<path d="M136.356 165.871H74.5927C73.1023 165.871 71.8939 164.662 71.8939 163.172V47.532C71.8939 46.0416 73.1023 44.8332 74.5927 44.8332H136.355C137.846 44.8332 139.054 46.0416 139.054 47.532V163.172C139.054 164.663 137.846 165.871 136.356 165.871Z" fill="#005E99" stroke="#005E99" stroke-miterlimit="10" stroke-linecap="round" stroke-linejoin="round"/>
<path d="M134.226 165.871H72.4639C70.9735 165.871 69.7651 164.662 69.7651 163.172V47.532C69.7651 46.0416 70.9735 44.8332 72.4639 44.8332H134.226C135.717 44.8332 136.925 46.0416 136.925 47.532V163.172C136.925 164.663 135.717 165.871 134.226 165.871Z" fill="white"/>
<mask id="mask0_1483_757" style="mask-type:luminance" maskUnits="userSpaceOnUse" x="69" y="44" width="68" height="122">
<path d="M134.226 165.871H72.4639C70.9735 165.871 69.7651 164.662 69.7651 163.172V47.532C69.7651 46.0416 70.9735 44.8332 72.4639 44.8332H134.226C135.717 44.8332 136.925 46.0416 136.925 47.532V163.172C136.925 164.663 135.717 165.871 134.226 165.871Z" fill="white"/>
</mask>
<g mask="url(#mask0_1483_757)">
<path d="M136.925 90.5044L77.8676 165.871H134.226C135.717 165.871 136.925 164.662 136.925 163.172V90.5044Z" fill="#88D1FF"/>
</g>
<mask id="mask1_1483_757" style="mask-type:luminance" maskUnits="userSpaceOnUse" x="69" y="44" width="68" height="122">
<path d="M134.226 165.871H72.4639C70.9735 165.871 69.7651 164.662 69.7651 163.172V47.532C69.7651 46.0416 70.9735 44.8332 72.4639 44.8332H134.226C135.717 44.8332 136.925 46.0416 136.925 47.532V163.172C136.925 164.663 135.717 165.871 134.226 165.871Z" fill="white"/>
</mask>
<g mask="url(#mask1_1483_757)">
<path opacity="0.5" d="M136.925 90.5044L77.8676 165.871H134.226C135.717 165.871 136.925 164.662 136.925 163.172V90.5044Z" fill="white"/>
</g>
<path d="M134.226 165.871H72.4639C70.9735 165.871 69.7651 164.662 69.7651 163.172V47.532C69.7651 46.0416 70.9735 44.8332 72.4639 44.8332H134.226C135.717 44.8332 136.925 46.0416 136.925 47.532V163.172C136.925 164.663 135.717 165.871 134.226 165.871Z" stroke="#005E99" stroke-miterlimit="10" stroke-linecap="round" stroke-linejoin="round"/>
<path d="M107.988 52.0632H99.6271C99.1535 52.0632 98.7695 51.6792 98.7695 51.2056C98.7695 50.732 99.1535 50.348 99.6271 50.348H107.988C108.462 50.348 108.846 50.732 108.846 51.2056C108.846 51.6796 108.462 52.0632 107.988 52.0632Z" fill="#005E99" stroke="#005E99" stroke-miterlimit="10" stroke-linecap="round" stroke-linejoin="round"/>
<path d="M132.681 155.052H74.0092V52.1624H87.916L89.4804 53.4604C90.0272 53.914 90.7152 54.1624 91.4256 54.1624H115.962C116.702 54.1624 117.416 53.8932 117.972 53.4048L119.386 52.1624H132.681V155.052H132.681Z" fill="#005E99" stroke="#005E99" stroke-miterlimit="10" stroke-linecap="round" stroke-linejoin="round"/>
<path d="M85.0164 132.868H121.674" stroke="white" stroke-miterlimit="10" stroke-linecap="round" stroke-linejoin="round"/>
<path d="M85.0164 137.692H121.674" stroke="white" stroke-miterlimit="10" stroke-linecap="round" stroke-linejoin="round"/>
<path d="M85.0164 142.515H121.674" stroke="white" stroke-miterlimit="10" stroke-linecap="round" stroke-linejoin="round"/>
<path d="M88.4132 88.0816C86.3912 91.0072 85.2068 94.556 85.2068 98.3816C85.2068 108.399 93.3276 116.52 103.345 116.52C113.363 116.52 121.484 108.399 121.484 98.3816C121.484 88.364 113.363 80.2432 103.345 80.2432C102.212 80.2432 101.104 80.3472 100.029 80.5456" stroke="white" stroke-miterlimit="10" stroke-linecap="round" stroke-linejoin="round"/>
<path d="M91.4932 84.6504C90.8824 85.178 90.3072 85.7456 89.772 86.3492" stroke="white" stroke-miterlimit="10" stroke-linecap="round" stroke-linejoin="round"/>
<path d="M117.498 104.414C120.828 96.5938 117.189 87.5548 109.369 84.2245C101.549 80.8943 92.51 84.5338 89.1797 92.3537C85.8495 100.174 89.4891 109.213 97.3089 112.543C105.129 115.873 114.168 112.234 117.498 104.414Z" fill="#88D1FF"/>
<path d="M96.2363 96.7896L102.074 103.423L111.627 89.8904" stroke="#005E99" stroke-width="3" stroke-miterlimit="10" stroke-linecap="round" stroke-linejoin="round"/>
<path d="M117.972 53.4048C117.416 53.8932 116.702 54.1624 115.962 54.1624H91.4256C90.7152 54.1624 90.0272 53.914 89.4804 53.4604L87.916 52.1624H74.0092V62.6888H132.681V52.1624H119.386L117.972 53.4048Z" fill="#88D1FF" stroke="#005E99" stroke-miterlimit="10" stroke-linecap="round" stroke-linejoin="round"/>
<path d="M105.219 158.223C105.219 157.486 104.622 156.89 103.886 156.89C103.15 156.89 102.553 157.486 102.553 158.223C102.553 158.959 103.15 159.556 103.886 159.556C104.622 159.556 105.219 158.959 105.219 158.223Z" fill="#005E99" stroke="#005E99" stroke-miterlimit="10" stroke-linecap="round" stroke-linejoin="round"/>
<path d="M53.0316 117.304L47.7996 164.1C47.7996 164.1 43.964 167.437 44.2996 168.786C44.6352 170.134 49.0656 167.997 49.676 166.874C50.2864 165.75 50.596 163.959 50.596 163.959L61.6136 128.771L70.0844 166.52C70.0844 166.52 73.706 169.477 75.7032 169.376C77.7004 169.274 76.9932 168.491 75.852 167.046C74.7104 165.602 72.132 164.777 72.132 164.777L70.8616 116.125L53.0316 117.304Z" fill="#005E99" stroke="#005E99" stroke-width="0.5" stroke-miterlimit="10" stroke-linecap="round" stroke-linejoin="round"/>
<path d="M70.5467 115.301L52.9696 116.194L53.0913 118.591L70.6684 117.698L70.5467 115.301Z" fill="#005E99" stroke="#005E99" stroke-width="0.5" stroke-miterlimit="10" stroke-linecap="round" stroke-linejoin="round"/>
<path d="M63.8792 116.822C63.9096 117.416 63.1512 117.938 62.1852 117.986C61.2196 118.036 60.412 117.594 60.382 116.999C60.3516 116.405 61.11 115.883 62.076 115.834C63.0416 115.785 63.8492 116.227 63.8792 116.822Z" fill="white"/>
<path d="M60.8692 92.2284L54.2592 94.166L55.0808 116.253L70.5812 115.866L68.6204 93.036L60.8692 92.2284Z" fill="white" stroke="#005E99" stroke-width="0.5" stroke-miterlimit="10" stroke-linecap="round" stroke-linejoin="round"/>
<path d="M57.978 92.4752L57.0896 130.169L48.672 126.091L52.3728 114.188L49.8496 94.09L57.978 92.4752Z" fill="#88D1FF" stroke="#005E99" stroke-width="0.5" stroke-miterlimit="10" stroke-linecap="round" stroke-linejoin="round"/>
<path d="M64.6696 92.1352L69.3736 129.545L77.3348 124.634L72.4468 113.168L72.9196 92.9176L64.6696 92.1352Z" fill="#88D1FF" stroke="#005E99" stroke-width="0.5" stroke-miterlimit="10" stroke-linecap="round" stroke-linejoin="round"/>
<path d="M59.6611 96.6952L60.9711 98.8316L59.9243 113.704L62.4103 116.648L63.6991 113.112L61.7067 98.8608L62.9371 96.796L61.1507 94.4836L59.6611 96.6952Z" fill="#005E99" stroke="#005E99" stroke-width="0.5" stroke-miterlimit="10" stroke-linecap="round" stroke-linejoin="round"/>
<path d="M61.282 96.4128L58.8068 98.274L56.8252 93.4348L57.9392 91.7096L63.998 91.4016L65.4312 93.3316L64.2528 97.7304L61.282 96.4128Z" fill="white" stroke="#005E99" stroke-width="0.5" stroke-miterlimit="10" stroke-linecap="round" stroke-linejoin="round"/>
<path d="M58.4452 89.848L59.002 92.924L61.282 96.4128L63.376 92.3012L63.2444 89.7044L58.4452 89.848Z" fill="white" stroke="#005E99" stroke-width="0.5" stroke-miterlimit="10" stroke-linecap="round" stroke-linejoin="round"/>
<path d="M49.8496 94.09L38.6244 107.677L46.0824 116.51L49.0868 114.555L45.4004 107.032L50.9056 103.048L49.8496 94.09Z" fill="#88D1FF" stroke="#005E99" stroke-width="0.5" stroke-miterlimit="10" stroke-linecap="round" stroke-linejoin="round"/>
<path d="M49.0868 114.555L49.5372 115.533L47.0064 116.964L46.6664 116.18L49.0868 114.555Z" fill="white" stroke="#005E99" stroke-width="0.5" stroke-miterlimit="10" stroke-linecap="round" stroke-linejoin="round"/>
<path d="M49.5372 115.533L52.1116 118.907L51.2636 119.951L50.6492 119.682L49.4016 120.747C49.4016 120.747 48.4876 120.493 48.3724 120.198C48.2572 119.904 47.0184 119.166 46.9928 118.666C46.9676 118.167 47.0064 116.964 47.0064 116.964L49.5372 115.533Z" fill="white" stroke="#005E99" stroke-width="0.5" stroke-miterlimit="10" stroke-linecap="round" stroke-linejoin="round"/>
<path d="M79.1708 95.5692C79.1708 95.5692 79.4548 94.8004 79.2692 94.3248C79.0836 93.8492 78.6764 92.1996 78.7564 91.6568C78.8364 91.114 79.658 90.318 79.73 89.614C79.802 88.91 79.7156 88.268 79.75 87.8888C79.7848 87.51 80.2548 87.2164 80.6552 87.6812C81.056 88.1456 81.2956 88.6184 81.1052 89.1132C80.9148 89.6076 80.9212 90.7928 80.9212 90.7928C80.9212 90.7928 81.5588 91.6764 81.9112 92.2512C82.2636 92.826 82.2328 94.336 81.994 94.9408C81.7552 95.5456 81.084 96.1184 81.084 96.1184L81.1224 97.1616L79.1708 95.5692Z" fill="white" stroke="#005E99" stroke-width="0.5" stroke-miterlimit="10" stroke-linecap="round" stroke-linejoin="round"/>
<path d="M80.3404 89.96C80.3404 89.96 80.0588 90.7824 80.5536 90.9728C81.048 91.1632 83.0556 91.4384 83.0768 90.7908C83.0976 90.1432 83.1352 89.818 82.8128 89.8344C82.4904 89.8508 80.9804 89.8196 80.9804 89.8196C80.9804 89.8196 80.2784 89.8016 80.3404 89.96Z" fill="white" stroke="#005E99" stroke-width="0.5" stroke-miterlimit="10" stroke-linecap="round" stroke-linejoin="round"/>
<path d="M80.5696 93.9908C80.5696 93.9908 80.368 94.6028 80.7244 94.7452C81.0808 94.8876 82.5268 95.0948 82.5412 94.6128C82.5556 94.1308 82.582 93.8884 82.3496 93.9004C82.1176 93.912 81.03 93.8872 81.03 93.8872C81.03 93.8872 80.5248 93.8728 80.5696 93.9908Z" fill="white" stroke="#005E99" stroke-width="0.5" stroke-miterlimit="10" stroke-linecap="round" stroke-linejoin="round"/>
<path d="M80.3 92.694C80.3 92.694 80.0664 93.4028 80.4792 93.5676C80.892 93.7324 82.5664 93.9728 82.5832 93.4144C82.5996 92.856 82.6304 92.5756 82.3616 92.5892C82.0928 92.6028 80.8332 92.574 80.8332 92.574C80.8332 92.574 80.2484 92.5572 80.3 92.694Z" fill="white" stroke="#005E99" stroke-width="0.5" stroke-miterlimit="10" stroke-linecap="round" stroke-linejoin="round"/>
<path d="M80.1456 91.4248C80.1456 91.4248 79.864 92.2472 80.3588 92.4376C80.8532 92.628 82.8608 92.9032 82.8816 92.2556C82.9028 91.608 82.94 91.2828 82.6176 91.2992C82.2952 91.3156 80.7848 91.2844 80.7848 91.2844C80.7848 91.2844 80.0836 91.2664 80.1456 91.4248Z" fill="white" stroke="#005E99" stroke-width="0.5" stroke-miterlimit="10" stroke-linecap="round" stroke-linejoin="round"/>
<path d="M78.9427 96.3888L79.2564 95.1336L81.4232 96.4244L81.0616 97.79L78.9427 96.3888Z" fill="white" stroke="#005E99" stroke-width="0.5" stroke-miterlimit="10" stroke-linecap="round" stroke-linejoin="round"/>
<path d="M72.9196 92.9176L77.0732 101.752L79.1108 96.0696L81.11 97.9708L79.0632 108.51C78.78 109.969 76.89 110.381 76.0248 109.173L72.7092 104.544L72.9196 92.9176Z" fill="#88D1FF" stroke="#005E99" stroke-width="0.5" stroke-miterlimit="10" stroke-linecap="round" stroke-linejoin="round"/>
<path d="M56.5115 86.2544C56.5115 86.2544 55.6735 85.3604 55.5627 86.0144C55.4519 86.6684 55.7975 87.8036 56.3227 88.2092C56.8475 88.6148 57.3179 87.9424 57.3179 87.9424L56.5115 86.2544Z" fill="white" stroke="#005E99" stroke-width="0.5" stroke-miterlimit="10" stroke-linecap="round" stroke-linejoin="round"/>
<path d="M64.4507 85.8512C64.4507 85.8512 65.1939 84.8768 65.3703 85.5164C65.5467 86.156 65.3179 87.3204 64.8367 87.7768C64.3555 88.2336 63.8199 87.6124 63.8199 87.6124L64.4507 85.8512Z" fill="white" stroke="#005E99" stroke-width="0.5" stroke-miterlimit="10" stroke-linecap="round" stroke-linejoin="round"/>
<path d="M56.8463 87.174L56.0399 85.486C56.0399 85.486 55.1155 84.308 54.7331 82.4544C54.3507 80.6008 54.9927 79.0552 55.8331 78.58C56.6735 78.1052 57.4031 78.284 57.4031 78.284C57.4031 78.284 57.5639 77.1952 60.1827 76.2696C62.8015 75.344 65.6951 76.998 65.6527 77.5768C65.6099 78.1552 64.9023 78.4072 64.9023 78.4072C64.9023 78.4072 66.9583 79.1672 66.2151 80.1416C65.4719 81.116 64.4843 81.5264 64.4843 81.5264C64.4843 81.5264 64.7435 82.3776 64.8483 83.0208C64.9531 83.664 64.3731 86.4312 64.3731 86.4312L62.9507 82.5408L58.4955 82.7672C58.4955 82.7672 58.2311 84.6536 57.7611 85.326C57.2911 85.9984 57.2703 87.008 57.2703 87.008C57.2703 87.008 57.0911 87.738 56.8463 87.174Z" fill="#005E99" stroke="#005E99" stroke-width="0.5" stroke-miterlimit="10" stroke-linecap="round" stroke-linejoin="round"/>
<path d="M57.6419 80.1452C57.6419 80.1452 57.6151 82.452 57.3859 83.6164C57.1567 84.7808 56.4603 85.2484 56.4603 85.2484C56.4603 85.2484 57.0267 87.8852 57.7463 89.2896C58.4659 90.694 59.9655 91.8424 61.4707 91.694C62.9759 91.5456 64.1855 89.8268 64.3283 88.3788C64.4707 86.9308 63.7659 81.5632 63.7659 81.5632C63.7659 81.5632 59.0523 82.3788 57.6419 80.1452Z" fill="white" stroke="#005E99" stroke-width="0.5" stroke-miterlimit="10" stroke-linecap="round" stroke-linejoin="round"/>
<path d="M58.038 85.5572C58.038 85.5572 58.8808 85.0468 59.6376 85.476" stroke="#005E99" stroke-width="0.5" stroke-miterlimit="10" stroke-linecap="round" stroke-linejoin="round"/>
<path d="M57.9772 84.3576C57.9772 84.3576 58.07 83.5512 59.4028 83.4832" stroke="#005E99" stroke-width="0.5" stroke-miterlimit="10" stroke-linecap="round" stroke-linejoin="round"/>
<path d="M61.532 83.3084C61.532 83.3084 62.578 82.8544 63.292 83.7536" stroke="#005E99" stroke-width="0.5" stroke-miterlimit="10" stroke-linecap="round" stroke-linejoin="round"/>
<path d="M61.0631 84.602C61.0631 84.602 61.2775 86.1948 61.2879 86.3948C61.2979 86.5948 61.9679 86.6276 61.7883 87.0376C61.6087 87.4476 61.0291 87.878 60.5459 87.5684" stroke="#005E99" stroke-width="0.5" stroke-miterlimit="10" stroke-linecap="round" stroke-linejoin="round"/>
<path d="M61.8164 88.9068C61.8164 88.9068 61.3068 89.4004 60.2836 88.9848" stroke="#005E99" stroke-width="0.5" stroke-miterlimit="10" stroke-linecap="round" stroke-linejoin="round"/>
<path d="M62.8263 85.1136C62.8411 85.408 62.7043 85.6544 62.5203 85.6636C62.3363 85.6728 62.1751 85.4416 62.1599 85.1472C62.1451 84.8528 62.2819 84.6064 62.4659 84.5972C62.6503 84.588 62.8115 84.8192 62.8263 85.1136Z" fill="#005E99"/>
</svg>
