<svg xmlns="http://www.w3.org/2000/svg" xmlns:xlink="http://www.w3.org/1999/xlink" fill="none" version="1.1" width="18" height="18" viewBox="0 0 18 18"><g><path d="M2.57143,0C1.15313,0,0,1.15313,0,2.57143C0,2.57143,0,15.4286,0,15.4286C0,16.8469,1.15313,18,2.57143,18C2.57143,18,15.4286,18,15.4286,18C16.8469,18,18,16.8469,18,15.4286C18,15.4286,18,2.57143,18,2.57143C18,1.15313,16.8469,0,15.4286,0C15.4286,0,2.57143,0,2.57143,0ZM14.5085,3.375C14.5085,3.375,10.3379,8.14018,10.3379,8.14018C10.3379,8.14018,15.2437,14.625,15.2437,14.625C15.2437,14.625,11.4027,14.625,11.4027,14.625C11.4027,14.625,8.39732,10.6915,8.39732,10.6915C8.39732,10.6915,4.95402,14.625,4.95402,14.625C4.95402,14.625,3.04554,14.625,3.04554,14.625C3.04554,14.625,7.50536,9.52634,7.50536,9.52634C7.50536,9.52634,2.80045,3.375,2.80045,3.375C2.80045,3.375,6.73795,3.375,6.73795,3.375C6.73795,3.375,9.45804,6.97098,9.45804,6.97098C9.45804,6.97098,12.6,3.375,12.6,3.375C12.6,3.375,14.5085,3.375,14.5085,3.375ZM12.9897,13.4839C12.9897,13.4839,6.16339,4.4558,6.16339,4.4558C6.16339,4.4558,5.02634,4.4558,5.02634,4.4558C5.02634,4.4558,11.929,13.4839,11.929,13.4839C11.929,13.4839,12.9857,13.4839,12.9857,13.4839C12.9857,13.4839,12.9897,13.4839,12.9897,13.4839Z" fill="#FF7A7A" fill-opacity="1"/></g></svg>