<svg width="21" height="20" viewBox="0 0 21 20" fill="none" xmlns="http://www.w3.org/2000/svg">
<path d="M18.6915 9.20425C18.9448 9.55925 19.0715 9.73758 19.0715 10.0001C19.0715 10.2634 18.9448 10.4409 18.6915 10.7959C17.5531 12.3926 14.6456 15.8334 10.7381 15.8334C6.82979 15.8334 3.92312 12.3917 2.78479 10.7959C2.53145 10.4409 2.40479 10.2626 2.40479 10.0001C2.40479 9.73675 2.53145 9.55925 2.78479 9.20425C3.92312 7.60758 6.83062 4.16675 10.7381 4.16675C14.6465 4.16675 17.5531 7.60841 18.6915 9.20425Z" stroke="#BD751D" stroke-width="1.375" stroke-linecap="round" stroke-linejoin="round"/>
<path d="M13.238 10C13.238 9.33696 12.9746 8.70107 12.5058 8.23223C12.037 7.76339 11.4011 7.5 10.738 7.5C10.075 7.5 9.43911 7.76339 8.97027 8.23223C8.50143 8.70107 8.23804 9.33696 8.23804 10C8.23804 10.663 8.50143 11.2989 8.97027 11.7678C9.43911 12.2366 10.075 12.5 10.738 12.5C11.4011 12.5 12.037 12.2366 12.5058 11.7678C12.9746 11.2989 13.238 10.663 13.238 10Z" stroke="#BD751D" stroke-width="1.375" stroke-linecap="round" stroke-linejoin="round"/>
</svg>
