<svg width="55" height="54" viewBox="0 0 55 54" fill="none" xmlns="http://www.w3.org/2000/svg">
<path d="M27.4997 21.6668C30.3286 21.6668 33.0418 20.543 35.0421 18.5426C37.0425 16.5422 38.1663 13.8291 38.1663 11.0002C38.1663 8.17119 37.0425 5.45808 35.0421 3.45769C33.0418 1.4573 30.3286 0.333496 27.4997 0.333496C24.6707 0.333496 21.9576 1.4573 19.9572 3.45769C17.9568 5.45808 16.833 8.17119 16.833 11.0002C16.833 13.8291 17.9568 16.5422 19.9572 18.5426C21.9576 20.543 24.6707 21.6668 27.4997 21.6668ZM10.1663 29.6668C11.9345 29.6668 13.6301 28.9644 14.8804 27.7142C16.1306 26.464 16.833 24.7683 16.833 23.0002C16.833 21.2321 16.1306 19.5364 14.8804 18.2861C13.6301 17.0359 11.9345 16.3335 10.1663 16.3335C8.39823 16.3335 6.70254 17.0359 5.4523 18.2861C4.20205 19.5364 3.49967 21.2321 3.49967 23.0002C3.49967 24.7683 4.20205 26.464 5.4523 27.7142C6.70254 28.9644 8.39823 29.6668 10.1663 29.6668ZM51.4997 23.0002C51.4997 24.7683 50.7973 26.464 49.5471 27.7142C48.2968 28.9644 46.6011 29.6668 44.833 29.6668C43.0649 29.6668 41.3692 28.9644 40.119 27.7142C38.8687 26.464 38.1663 24.7683 38.1663 23.0002C38.1663 21.2321 38.8687 19.5364 40.119 18.2861C41.3692 17.0359 43.0649 16.3335 44.833 16.3335C46.6011 16.3335 48.2968 17.0359 49.5471 18.2861C50.7973 19.5364 51.4997 21.2321 51.4997 23.0002ZM27.4997 24.3335C31.0359 24.3335 34.4273 25.7383 36.9278 28.2387C39.4282 30.7392 40.833 34.1306 40.833 37.6668V53.6668H14.1663V37.6668C14.1663 34.1306 15.5711 30.7392 18.0716 28.2387C20.5721 25.7383 23.9635 24.3335 27.4997 24.3335ZM8.83301 37.6668C8.83301 35.8188 9.09967 34.0348 9.60101 32.3495L9.14767 32.3868C6.86202 32.6378 4.74944 33.7237 3.21504 35.4362C1.68064 37.1487 0.832411 39.3674 0.833008 41.6668V53.6668H8.83301V37.6668ZM54.1663 53.6668V41.6668C54.1666 39.2891 53.2595 37.001 51.63 35.2694C50.0005 33.5379 47.7717 32.4935 45.3983 32.3495C45.897 34.0348 46.1663 35.8188 46.1663 37.6668V53.6668H54.1663Z" fill="#005E99"/>
</svg>
