<svg width="64" height="64" viewBox="0 0 64 64" fill="none" xmlns="http://www.w3.org/2000/svg">
<g clip-path="url(#clip0_677_6979)">
<path d="M5.74597 48.0137C5.74597 44.7771 5.74597 6.88102 5.74597 3.64157C8.95068 3.64157 43.1388 3.64157 46.3435 3.64157C46.3435 4.78696 46.3435 10.2709 46.3435 17.0131C47.1274 16.8685 47.9314 16.7702 48.7558 16.7702C49.178 16.7702 49.5772 16.8569 49.9937 16.8946V0H2.09863V51.6553H32.22V48.0137C21.2579 48.0137 7.70701 48.0137 5.74597 48.0137Z" fill="#005E99"/>
<path d="M10.9316 27.735H35.6703C35.9132 26.3727 36.3934 25.1058 37.0239 23.9199H10.9316V27.735Z" fill="#005E99"/>
<path d="M41.1514 11.9917H10.9316V15.8068H41.1514V11.9917Z" fill="#005E99"/>
<path d="M10.9316 39.6662H36.5785C37.2639 39.2497 37.9958 38.9112 38.7795 38.703C38.0361 37.8381 37.4259 36.8664 36.9052 35.8511H10.9316V39.6662Z" fill="#005E99"/>
<path d="M48.7587 40.0483C54.2659 40.0483 58.7027 35.5969 58.7027 30.1071C58.7027 24.6116 54.2657 20.1631 48.7587 20.1631C43.2748 20.1631 38.835 24.6116 38.835 30.1071C38.835 35.5969 43.2748 40.0483 48.7587 40.0483Z" fill="#005E99"/>
<path d="M56.7385 41.6621H40.8014C37.9553 41.6621 35.624 44.2711 35.624 47.4845V63.4853C35.624 63.6617 35.705 63.8179 35.7165 64.0002H61.8088C61.8203 63.8209 61.9013 63.6617 61.9013 63.4853V47.4845C61.913 44.2796 59.5875 41.6621 56.7385 41.6621Z" fill="#005E99"/>
</g>
<defs>
<clipPath id="clip0_677_6979">
<rect width="64" height="64" fill="white"/>
</clipPath>
</defs>
</svg>
