<svg xmlns="http://www.w3.org/2000/svg" xmlns:xlink="http://www.w3.org/1999/xlink" fill="none" version="1.1" width="32" height="32" viewBox="0 0 32 32"><defs><clipPath id="master_svg0_0_11739/0_2165"><rect x="0" y="0" width="32" height="32" rx="0"/></clipPath></defs><g clip-path="url(#master_svg0_0_11739/0_2165)"><g><path d="M8.6669921875,13.333333373069763C8.6669921875,13.333333373069763,6.0003221875,13.333333373069763,6.0003221875,13.333333373069763C6.0003221875,13.333333373069763,6.0003221875,22.666633373069764,6.0003221875,22.666633373069764C6.0003221875,22.666633373069764,8.6669921875,22.666633373069764,8.6669921875,22.666633373069764C8.6669921875,22.666633373069764,8.6669921875,13.333333373069763,8.6669921875,13.333333373069763ZM16.6669921875,13.333333373069763C16.6669921875,13.333333373069763,14.0002921875,13.333333373069763,14.0002921875,13.333333373069763C14.0002921875,13.333333373069763,14.0002921875,22.666633373069764,14.0002921875,22.666633373069764C14.0002921875,22.666633373069764,16.6669921875,22.666633373069764,16.6669921875,22.666633373069764C16.6669921875,22.666633373069764,16.6669921875,13.333333373069763,16.6669921875,13.333333373069763ZM28.0002921875,25.333333373069763C28.0002921875,25.333333373069763,2.6669921875,25.333333373069763,2.6669921875,25.333333373069763C2.6669921875,25.333333373069763,2.6669921875,28.000033373069762,2.6669921875,28.000033373069762C2.6669921875,28.000033373069762,28.0002921875,28.000033373069762,28.0002921875,28.000033373069762C28.0002921875,28.000033373069762,28.0002921875,25.333333373069763,28.0002921875,25.333333373069763ZM24.6669921875,13.333333373069763C24.6669921875,13.333333373069763,22.0002921875,13.333333373069763,22.0002921875,13.333333373069763C22.0002921875,13.333333373069763,22.0002921875,22.666633373069764,22.0002921875,22.666633373069764C22.0002921875,22.666633373069764,24.6669921875,22.666633373069764,24.6669921875,22.666633373069764C24.6669921875,22.666633373069764,24.6669921875,13.333333373069763,24.6669921875,13.333333373069763ZM15.3336921875,4.346663373069763C15.3336921875,4.346663373069763,22.2802921875,8.000003373069763,22.2802921875,8.000003373069763C22.2802921875,8.000003373069763,8.386992187499999,8.000003373069763,8.386992187499999,8.000003373069763C8.386992187499999,8.000003373069763,15.3336921875,4.346663373069763,15.3336921875,4.346663373069763ZM15.3336921875,1.3333333730697632C15.3336921875,1.3333333730697632,2.6669921875,8.000003373069763,2.6669921875,8.000003373069763C2.6669921875,8.000003373069763,2.6669921875,10.666663373069763,2.6669921875,10.666663373069763C2.6669921875,10.666663373069763,28.0002921875,10.666663373069763,28.0002921875,10.666663373069763C28.0002921875,10.666663373069763,28.0002921875,8.000003373069763,28.0002921875,8.000003373069763C28.0002921875,8.000003373069763,15.3336921875,1.3333333730697632,15.3336921875,1.3333333730697632Z" fill="#221F1F" fill-opacity="1"/></g></g></svg>