<svg xmlns="http://www.w3.org/2000/svg" xmlns:xlink="http://www.w3.org/1999/xlink" fill="none" version="1.1" width="32" height="32" viewBox="0 0 32 32"><defs><clipPath id="master_svg0_1_67713"><rect x="0" y="0" width="32" height="32" rx="0"/></clipPath></defs><g clip-path="url(#master_svg0_1_67713)"><g><g><path d="M13.638966746139527,3.6466707461395265Q13.723166746139526,3.6295857461395262,13.803166746139526,3.5984057461395262Q13.883166746139526,3.5672247461395266,13.956666746139526,3.522862746139526Q14.030166746139527,3.4785007461395265,14.095066746139526,3.4222547461395263Q14.159966746139526,3.3660087461395265,14.214266746139526,3.2995267461395263Q14.268566746139527,3.2330437461395265,14.310866746139526,3.1582707461395265Q14.353066746139527,3.0834977461395265,14.381866746139526,3.0026227461395263Q14.410766746139526,2.921748746139526,14.425366746139526,2.8371407461395264Q14.439966746139527,2.7525319461395266,14.439966746139527,2.6666667461395264Q14.439966746139527,2.5681753461395265,14.420766746139526,2.4715767461395264Q14.401566746139526,2.3749777461395265,14.363866746139527,2.2839837461395263Q14.326166746139526,2.1929887461395263,14.271466746139525,2.1110967461395265Q14.216766746139527,2.0292037461395265,14.147066746139526,1.9595597461395262Q14.077466746139526,1.8899157461395264,13.995566746139527,1.8351967461395264Q13.913666746139526,1.7804787461395264,13.822666746139527,1.7427877461395265Q13.731666746139526,1.7050967461395263,13.635066746139527,1.6858817461395263Q13.538466746139527,1.6666667461395264,13.439966746139527,1.6666667461395264Q13.339466746139527,1.6666667461395264,13.240966746139526,1.6866727461395263L13.240566746139526,1.6867467461395265Q8.243756746139526,2.7014282461395265,4.977516746139527,6.653436746139526Q1.6666667461395264,10.659426746139527,1.6666677461395265,15.865366746139527Q1.6666667461395264,21.858566746139527,5.904056746139526,26.095966746139528Q10.141446746139525,30.333366746139525,16.134666746139526,30.333366746139525Q21.340566746139526,30.333366746139525,25.346566746139526,27.022466746139525Q29.298766746139528,23.756066746139528,30.313366746139526,18.758966746139528Q30.333366746139525,18.660466746139527,30.333366746139525,18.559966746139526Q30.333366746139525,18.46146674613953,30.314166746139527,18.364866746139526Q30.294866746139526,18.268266746139524,30.257166746139525,18.177266746139527Q30.219566746139527,18.086366746139525,30.164766746139527,18.004466746139528Q30.110066746139527,17.922566746139527,30.040466746139526,17.852866746139526Q29.970766746139525,17.783266746139525,29.888866746139527,17.728566746139528Q29.806966746139526,17.673766746139528,29.715966746139525,17.636166746139526Q29.625066746139527,17.59846674613953,29.528466746139525,17.579166746139528Q29.431866746139526,17.559966746139526,29.333366746139525,17.559966746139526Q29.247466746139526,17.559966746139526,29.162866746139528,17.574666746139528Q29.078266746139526,17.589266746139526,28.997366746139527,17.618166746139526Q28.916466746139527,17.646966746139526,28.841766746139527,17.689166746139527Q28.766966746139527,17.73136674613953,28.700466746139526,17.785766746139526Q28.633966746139528,17.840066746139527,28.577766746139527,17.90496674613953Q28.521466746139527,17.969866746139527,28.477166746139527,18.043366746139526Q28.432766746139528,18.11686674613953,28.401566746139526,18.196866746139527Q28.370366746139528,18.276866746139525,28.353366746139525,18.361066746139528L28.352866746139526,18.363266746139526Q27.478566746139528,22.665766746139525,24.072466746139526,25.480866746139526Q20.621066746139526,28.333366746139525,16.134666746139526,28.333366746139525Q10.969876746139526,28.333366746139525,7.318276746139526,24.681766746139527Q3.6666667461395264,21.030166746139525,3.6666667461395264,15.865366746139527Q3.6666667461395264,11.378936746139527,6.519146746139526,7.927556746139526Q9.334966746139527,4.520546746139527,13.638966746139527,3.6466707461395265Z" fill-rule="evenodd" fill="#003759" fill-opacity="1"/></g><g><path d="M22,12.999999761581421Q23.2426,12.999999761581421,24.1213,12.121319761581422Q25,11.24263976158142,25,9.999999761581421Q25,8.75735576158142,24.1213,7.878676761581421Q23.2426,6.999999761581421,22,6.999999761581421Q20.7574,6.999999761581421,19.878700000000002,7.878677761581421Q19,8.75735776158142,19,9.999999761581421Q19,11.24263976158142,19.878700000000002,12.121319761581422Q20.7574,12.999999761581421,22,12.999999761581421ZM23,9.999999761581421Q23,10.414209761581422,22.7071,10.707099761581421Q22.4142,10.999999761581421,22,10.999999761581421Q21.5858,10.999999761581421,21.2929,10.707109761581421Q21,10.414219761581421,21,9.999999761581421Q21,9.58578976158142,21.2929,9.29288976158142Q21.5858,8.999999761581421,22,8.999999761581421Q22.4142,8.999999761581421,22.7071,9.29289976158142Q23,9.58578976158142,23,9.999999761581421ZM8.71086,16.339499761581422Q10.0491,16.48733976158142,11.52671,17.10789976158142L11.5287,17.10873976158142Q11.596409999999999,17.13718976158142,11.65924,17.17521976158142Q11.722059999999999,17.21325976158142,11.77866,17.26006976158142Q11.83526,17.30687976158142,11.884409999999999,17.36144976158142Q11.93356,17.41602976158142,11.97421,17.47719976158142Q12.01486,17.53836976158142,12.04613,17.60482976158142Q12.07741,17.67127976158142,12.09864,17.741589761581423Q12.11987,17.811899761581422,12.1306,17.88455976158142Q12.14133,17.95721976158142,12.14133,18.03069976158142Q12.14133,18.12919976158142,12.12212,18.22579976158142Q12.1029,18.322399761581423,12.06521,18.41329976158142Q12.02752,18.50429976158142,11.9728,18.58619976158142Q11.91808,18.668099761581423,11.84844,18.73779976158142Q11.77879,18.807399761581422,11.6969,18.86209976158142Q11.61501,18.91689976158142,11.52402,18.95449976158142Q11.433019999999999,18.99219976158142,11.33642,19.01149976158142Q11.23982,19.03069976158142,11.14133,19.03069976158142Q10.939779999999999,19.03069976158142,10.753969999999999,18.95259976158142Q9.54187,18.44329976158142,8.49034,18.327299761581422Q8.399329999999999,18.31729976158142,8.31166,18.29089976158142Q8.22399,18.26449976158142,8.14257,18.22259976158142Q8.06114,18.180699761581423,7.9886800000000004,18.12469976158142Q7.91622,18.06869976158142,7.85513,18.000499761581423Q7.79404,17.93233976158142,7.74635,17.85417976158142Q7.69866,17.776019761581423,7.66596,17.69049976158142Q7.63326,17.604969761581422,7.61663,17.51492976158142Q7.6,17.424899761581422,7.6,17.33332976158142Q7.6,17.23483976158142,7.61921,17.13823976158142Q7.63843,17.041639761581422,7.67612,16.95064976158142Q7.7138100000000005,16.859649761581423,7.76853,16.77775976158142Q7.82325,16.69586976158142,7.8928899999999995,16.62622976158142Q7.962540000000001,16.55657976158142,8.04443,16.50185976158142Q8.12632,16.44713976158142,8.21732,16.40944976158142Q8.308309999999999,16.371759761581423,8.404910000000001,16.35254976158142Q8.50151,16.33332976158142,8.6,16.33332976158142Q8.65499,16.33332976158142,8.70966,16.33935976158142L8.71086,16.339499761581422ZM5.78423,18.70759976158142Q5.8538499999999996,18.68009976158142,5.9186,18.642599761581423Q5.98335,18.60509976158142,6.0418,18.55839976158142Q6.10025,18.511599761581422,6.1511,18.45669976158142Q6.2019400000000005,18.401799761581422,6.24404,18.33999976158142Q6.28615,18.278099761581423,6.318569999999999,18.21069976158142Q6.351,18.14319976158142,6.37303,18.07169976158142Q6.39506,18.00019976158142,6.4062,17.92616976158142Q6.41733,17.852169761581422,6.41733,17.77732976158142Q6.41733,17.678839761581422,6.3981200000000005,17.58223976158142Q6.3789,17.48563976158142,6.34121,17.39464976158142Q6.30352,17.30364976158142,6.2488,17.22175976158142Q6.19408,17.139869761581423,6.12444,17.070229761581423Q6.0548,17.00057976158142,5.9729,16.94585976158142Q5.89101,16.89113976158142,5.80002,16.853449761581423Q5.70902,16.81575976158142,5.61242,16.79654976158142Q5.51583,16.77732976158142,5.41733,16.77732976158142Q5.22726,16.77732976158142,5.05044,16.847069761581423L5.04896,16.847649761581422Q4.5848700000000004,17.03081976158142,3.802759,17.41723976158142Q3.641583,17.49687976158142,3.563258,17.53507976158142L3.56174,17.535819761581422Q3.435401,17.59741976158142,3.330939,17.69145976158142Q3.226476,17.78549976158142,3.151985,17.904689761581423Q3.0774939999999997,18.02389976158142,3.038747,18.15899976158142Q3,18.29409976158142,3,18.43469976158142Q3,18.53319976158142,3.019215,18.62979976158142Q3.03843,18.72639976158142,3.076121,18.81729976158142Q3.1138120000000002,18.90829976158142,3.16853,18.990199761581422Q3.223249,19.07209976158142,3.292893,19.14179976158142Q3.362537,19.21139976158142,3.44443,19.266099761581422Q3.526322,19.320899761581423,3.617317,19.35849976158142Q3.708311,19.39619976158142,3.80491,19.415499761581422Q3.9015086,19.43469976158142,4,19.43469976158142Q4.230803,19.43469976158142,4.43826,19.33349976158142Q4.521301,19.29299976158142,4.68869,19.21029976158142Q5.39738,18.86019976158142,5.78423,18.70759976158142ZM15.048,19.11229976158142Q15.325,19.306799761581424,15.8884,19.726299761581423Q16.4747,20.16299976158142,16.7588,20.36119976158142Q16.8579,20.430299761581423,16.9377,20.52099976158142Q17.017400000000002,20.61169976158142,17.0733,20.718799761581423Q17.1291,20.82589976158142,17.157899999999998,20.94319976158142Q17.186700000000002,21.06049976158142,17.186700000000002,21.18129976158142Q17.186700000000002,21.279799761581423,17.1674,21.37639976158142Q17.1482,21.47299976158142,17.110500000000002,21.56399976158142Q17.0729,21.654999761581422,17.0181,21.73689976158142Q16.9634,21.81879976158142,16.8938,21.88839976158142Q16.8241,21.958099761581423,16.7422,22.01279976158142Q16.6603,22.067499761581423,16.5693,22.10519976158142Q16.4784,22.14289976158142,16.3818,22.162099761581423Q16.2852,22.18129976158142,16.186700000000002,22.18129976158142Q16.0332,22.18129976158142,15.8868,22.13529976158142Q15.7404,22.089299761581422,15.6145,22.00149976158142Q15.3051,21.785599761581423,14.6938,21.33039976158142Q14.1529,20.92759976158142,13.89867,20.74909976158142Q13.80014,20.67989976158142,13.72084,20.589299761581422Q13.64154,20.49869976158142,13.58602,20.39179976158142Q13.53049,20.28499976158142,13.50191,20.16799976158142Q13.47333,20.05109976158142,13.47333,19.930699761581423Q13.47333,19.83219976158142,13.49255,19.73559976158142Q13.51176,19.63899976158142,13.54945,19.547999761581423Q13.58714,19.45699976158142,13.64186,19.37509976158142Q13.69658,19.29319976158142,13.76622,19.22359976158142Q13.83587,19.15389976158142,13.91776,19.09919976158142Q13.99965,19.04449976158142,14.0906,19.00679976158142Q14.1816,18.96909976158142,14.2782,18.94989976158142Q14.3748,18.930699761581423,14.4733,18.930699761581423Q14.6276,18.930699761581423,14.7747,18.97709976158142Q14.9218,19.023599761581423,15.048,19.11229976158142ZM19.9835,22.20459976158142Q21.0909,22.68719976158142,22.096,22.919799761581423L22.0984,22.92029976158142Q22.1804,22.93929976158142,22.2581,22.97169976158142Q22.3358,23.00399976158142,22.407,23.04899976158142Q22.4782,23.09389976158142,22.5409,23.150099761581423Q22.6036,23.20629976158142,22.656,23.27219976158142Q22.7084,23.33809976158142,22.749,23.41179976158142Q22.7897,23.485499761581423,22.8174,23.56499976158142Q22.8452,23.64449976158142,22.8593,23.72749976158142Q22.8733,23.81049976158142,22.8733,23.89469976158142Q22.8733,23.993199761581423,22.8541,24.08979976158142Q22.8349,24.18639976158142,22.7972,24.27729976158142Q22.7595,24.368299761581422,22.7048,24.45019976158142Q22.6501,24.53209976158142,22.5804,24.60179976158142Q22.5108,24.67139976158142,22.4289,24.72609976158142Q22.347,24.78079976158142,22.256,24.81849976158142Q22.165,24.856199761581422,22.0684,24.87549976158142Q21.9718,24.89469976158142,21.8733,24.89469976158142Q21.7593,24.89469976158142,21.6481,24.86899976158142Q20.4623,24.59489976158142,19.1845,24.03809976158142Q19.118000000000002,24.00909976158142,19.0563,23.97069976158142Q18.9946,23.932399761581422,18.9391,23.88559976158142Q18.8836,23.83879976158142,18.8354,23.78439976158142Q18.787300000000002,23.72999976158142,18.747500000000002,23.66929976158142Q18.707700000000003,23.60859976158142,18.6771,23.54269976158142Q18.6465,23.47679976158142,18.625700000000002,23.40729976158142Q18.605,23.33769976158142,18.5945,23.26579976158142Q18.584,23.193999761581424,18.584,23.12129976158142Q18.584,23.02279976158142,18.6032,22.926199761581422Q18.6224,22.82959976158142,18.6601,22.73859976158142Q18.6978,22.64769976158142,18.752499999999998,22.56579976158142Q18.8072,22.48389976158142,18.8769,22.414199761581422Q18.9465,22.34459976158142,19.028399999999998,22.28989976158142Q19.110300000000002,22.23509976158142,19.2013,22.19749976158142Q19.292299999999997,22.15979976158142,19.3889,22.14049976158142Q19.485500000000002,22.12129976158142,19.584,22.12129976158142Q19.7924,22.12129976158142,19.9835,22.20459976158142ZM27.1521,24.34489976158142Q27.2691,24.279999761581422,27.3649,24.18659976158142Q27.4606,24.09319976158142,27.5285,23.97789976158142Q27.5963,23.86259976158142,27.6315,23.73349976158142Q27.6667,23.60439976158142,27.6667,23.47069976158142Q27.6667,23.37219976158142,27.6475,23.27559976158142Q27.6282,23.178999761581423,27.5905,23.087999761581422Q27.5529,22.99699976158142,27.4981,22.915099761581423Q27.4434,22.83319976158142,27.3738,22.76359976158142Q27.3041,22.69389976158142,27.2222,22.639199761581423Q27.1403,22.58449976158142,27.0493,22.54679976158142Q26.9584,22.50909976158142,26.8618,22.48989976158142Q26.7652,22.47069976158142,26.6667,22.47069976158142Q26.4073,22.47069976158142,26.1807,22.59669976158142L26.1795,22.59739976158142Q25.6457,22.89399976158142,25.0484,23.02069976158142Q25.0463,23.02109976158142,25.0442,23.02159976158142Q24.9606,23.039199761581422,24.8813,23.070699761581423Q24.8019,23.10229976158142,24.7291,23.14679976158142Q24.6562,23.19129976158142,24.592,23.24759976158142Q24.5278,23.303799761581423,24.474,23.37009976158142Q24.4202,23.43639976158142,24.3784,23.51089976158142Q24.3367,23.58539976158142,24.3081,23.66589976158142Q24.2796,23.74629976158142,24.2651,23.83049976158142Q24.2507,23.91459976158142,24.2507,23.99999976158142Q24.2507,24.098499761581422,24.2699,24.19509976158142Q24.2891,24.29169976158142,24.3268,24.38269976158142Q24.3645,24.473699761581422,24.4192,24.55559976158142Q24.4739,24.63749976158142,24.5436,24.70709976158142Q24.6132,24.776699761581423,24.6951,24.83149976158142Q24.777,24.88619976158142,24.868,24.92389976158142Q24.959,24.96159976158142,25.0556,24.98079976158142Q25.1522,24.99999976158142,25.2507,24.99999976158142Q25.355,24.99999976158142,25.4572,24.97839976158142Q26.3514,24.78969976158142,27.1502,24.34599976158142Q27.1512,24.345499761581422,27.1521,24.34489976158142Z" fill-rule="evenodd" fill="#003759" fill-opacity="1"/></g><g><path d="M29.179079418563845,13.359066666666664Q31.190279418563843,10.013176666666665,29.690179418563844,6.571416666666664L29.689979418563844,6.571066666666664Q27.554079418563845,1.6666666666666643,21.999999418563842,1.6666666666666643Q16.445759418563842,1.6666666666666643,14.308574418563843,6.571226666666664Q12.813819418563842,10.001806666666663,14.806424418563843,13.332066666666664Q15.902869418563842,15.164566666666664,19.208859418563843,18.167966666666665Q19.74569941856384,18.655666666666665,20.009749418563842,18.899766666666665Q20.857609418563843,19.670966666666665,21.996199418563844,19.666666666666664Q23.142389418563845,19.670966666666665,23.99431941856384,18.895966666666663Q24.239179418563843,18.670766666666665,24.74747941856384,18.21046666666666Q28.072979418563843,15.199066666666665,29.179079418563845,13.359066666666664ZM21.999999418563842,3.6666666666666643Q26.243879418563843,3.6666666666666643,27.856479418563843,7.369916666666664L27.856679418563843,7.370266666666664Q28.944879418563843,9.866656666666664,27.464879418563843,12.328676666666665Q26.511279418563845,13.915166666666664,23.404969418563844,16.728066666666663Q22.890929418563843,17.193466666666666,22.640349418563844,17.423966666666665Q22.37202941856384,17.668066666666665,22.003799418563844,17.666666666666664Q21.627969418563843,17.668066666666665,21.355579418563842,17.420266666666663Q21.096989418563844,17.181166666666662,20.55368941856384,16.68756666666666Q17.46698941856384,13.883466666666664,16.522679418563843,12.305216666666665Q15.058231418563842,9.857656666666664,16.14208941856384,7.370106666666664Q17.755879418563843,3.6666666666666643,21.999999418563842,3.6666666666666643Z" fill-rule="evenodd" fill="#003759" fill-opacity="1"/></g></g></g></svg>