<svg xmlns="http://www.w3.org/2000/svg" xmlns:xlink="http://www.w3.org/1999/xlink" fill="none" version="1.1" width="24" height="24" viewBox="0 0 24 24"><defs><clipPath id="master_svg0_0_3419/0_1879"><rect x="0" y="0" width="24" height="24" rx="0"/></clipPath></defs><g clip-path="url(#master_svg0_0_3419/0_1879)"><g><g></g><g><path d="M11,9.000245625C11,9.000245625,11,15.000215625,11,15.000215625C11.00028,15.255115625,11.09788,15.500315625,11.27285,15.685615625C11.44782,15.870915625,11.68695,15.982515625,11.94139,15.997415625C12.19584,16.012315625,12.44638,15.929615625,12.64183,15.766015625C12.83729,15.602415625,12.9629,15.370315625,12.993,15.117215625C12.993,15.117215625,13,15.000215625,13,15.000215625C13,15.000215625,13,9.000245625,13,9.000245625C13,9.000245625,19,9.000245625,19,9.000245625C19.5046,9.000085625,19.9906,9.190655625,20.3605,9.533745625C20.7305,9.876835625,20.9572,10.347095625,20.995,10.850245625C20.995,10.850245625,21,11.000245625,21,11.000245625C21,11.000245625,21,20.000215625,21,20.000215625C21.0002,20.504815625,20.8096,20.990815625,20.4665,21.360815625C20.1234,21.730815625,19.6532,21.957415625,19.15,21.995215625C19.15,21.995215625,19,22.000215625,19,22.000215625C19,22.000215625,5,22.000215625,5,22.000215625C4.49542,22.000415625,4.00943,21.809815625,3.639452,21.466715625C3.2694710000000002,21.123615625,3.0428434,20.653415625,3.00500021,20.150215625C3.00500021,20.150215625,3.000000100268,20.000215625,3.000000100268,20.000215625C3.000000100268,20.000215625,3.000000100268,11.000245625,3.000000100268,11.000245625C2.999840421,10.495675625,3.190406,10.009685625,3.533497,9.639705625000001C3.876588,9.269715625,4.34684,9.043095625,4.85,9.005245625C4.85,9.005245625,5,9.000245625,5,9.000245625C5,9.000245625,11,9.000245625,11,9.000245625ZM12.884,2.469248625C12.884,2.469248625,16.243000000000002,5.827245625,16.243000000000002,5.827245625C16.4306,6.014885625,16.536099999999998,6.269385625,16.536099999999998,6.534745625C16.536099999999998,6.800115625,16.4306,7.054605625,16.243000000000002,7.242245625C16.0554,7.429885625,15.8009,7.535305625,15.5355,7.535305625C15.2701,7.535305625,15.0156,7.429885625,14.828,7.242245625C14.828,7.242245625,13,5.413245625,13,5.413245625C13,5.413245625,13,9.000245625,13,9.000245625C13,9.000245625,11,9.000245625,11,9.000245625C11,9.000245625,11,5.413245625,11,5.413245625C11,5.413245625,9.172,7.242245625,9.172,7.242245625C9.07909,7.335155625,8.96879,7.408855625,8.8474,7.459145625C8.725999999999999,7.509425625,8.5959,7.535305625,8.464500000000001,7.535305625C8.33311,7.535305625,8.203,7.509425625,8.0816,7.459145625C7.96021,7.408855625,7.84991,7.335155625,7.757,7.242245625C7.66409,7.149335625,7.59039,7.039035625,7.54011,6.917645625C7.48982,6.796255625,7.46394,6.666145625,7.46394,6.534745625C7.46394,6.403355625,7.48982,6.273245625,7.54011,6.151855625C7.59039,6.030455625,7.66409,5.920155625,7.757,5.827245625C7.757,5.827245625,11.117,2.469248625,11.117,2.469248625C11.35139,2.235062625,11.66917,2.103515625,12.0005,2.103515625C12.33183,2.103515625000001,12.64961,2.235062625,12.884,2.469248625Z" fill="#4E4949" fill-opacity="1"/></g></g></g></svg>