<svg xmlns="http://www.w3.org/2000/svg" xmlns:xlink="http://www.w3.org/1999/xlink" fill="none" version="1.1" width="16" height="18.000001907348633" viewBox="0 0 16 18.000001907348633"><g><path d="M3,18C2.45,18,1.97933,17.8043,1.588,17.413C1.19667,17.0217,1.00067,16.5507,1,16C1,16,1,3,1,3C1,3,0,3,0,3C0,3,0,1,0,1C0,1,5,1,5,1C5,1,5,0,5,0C5,0,11,0,11,0C11,0,11,1,11,1C11,1,16,1,16,1C16,1,16,3,16,3C16,3,15,3,15,3C15,3,15,16,15,16C15,16.55,14.8043,17.021,14.413,17.413C14.0217,17.805,13.5507,18.0007,13,18C13,18,3,18,3,18ZM13,3C13,3,3,3,3,3C3,3,3,16,3,16C3,16,13,16,13,16C13,16,13,3,13,3ZM5,14C5,14,7,14,7,14C7,14,7,5,7,5C7,5,5,5,5,5C5,5,5,14,5,14ZM9,14C9,14,11,14,11,14C11,14,11,5,11,5C11,5,9,5,9,5C9,5,9,14,9,14Z" fill="#C03744" fill-opacity="1"/></g></svg>