<svg xmlns="http://www.w3.org/2000/svg" xmlns:xlink="http://www.w3.org/1999/xlink" fill="none" version="1.1" width="24" height="24" viewBox="0 0 24 24"><defs><clipPath id="master_svg0_0_12693"><rect x="0" y="0" width="24" height="24" rx="0"/></clipPath></defs><g clip-path="url(#master_svg0_0_12693)"><g><path d="M5,19C5,19,6.425,19,6.425,19C6.425,19,16.2,9.225,16.2,9.225C16.2,9.225,14.775,7.8,14.775,7.8C14.775,7.8,5,17.575,5,17.575C5,17.575,5,19,5,19ZM3,21C3,21,3,16.75,3,16.75C3,16.75,16.2,3.575,16.2,3.575C16.4,3.391667,16.621000000000002,3.25,16.863,3.15C17.105,3.0500001,17.359,3,17.625,3C17.891,3,18.1493,3.0500001,18.4,3.15C18.6507,3.25,18.8673,3.4,19.05,3.6C19.05,3.6,20.425,5,20.425,5C20.625,5.18333,20.771,5.4,20.863,5.65C20.955,5.9,21.0007,6.15,21,6.4C21,6.66667,20.9543,6.920999999999999,20.863,7.163C20.7717,7.405,20.6257,7.62567,20.425,7.825C20.425,7.825,7.25,21,7.25,21C7.25,21,3,21,3,21ZM15.475,8.525C15.475,8.525,14.775,7.8,14.775,7.8C14.775,7.8,16.2,9.225,16.2,9.225C16.2,9.225,15.475,8.525,15.475,8.525Z" fill="#005E99" fill-opacity="1"/></g></g></svg>