<svg xmlns="http://www.w3.org/2000/svg" xmlns:xlink="http://www.w3.org/1999/xlink" fill="none" version="1.1" width="24" height="24" viewBox="0 0 24 24"><defs><clipPath id="master_svg0_1_67888"><rect x="0" y="0" width="24" height="24" rx="0"/></clipPath></defs><g clip-path="url(#master_svg0_1_67888)"><g><path d="M22,6C22,4.9,21.1,4,20,4C20,4,4,4,4,4C2.9,4,2,4.9,2,6C2,6,2,18,2,18C2,19.1,2.9,20,4,20C4,20,20,20,20,20C21.1,20,22,19.1,22,18C22,18,22,6,22,6ZM20,6C20,6,12,11,12,11C12,11,4,6,4,6C4,6,20,6,20,6ZM20,18C20,18,4,18,4,18C4,18,4,8,4,8C4,8,12,13,12,13C12,13,20,8,20,8C20,8,20,18,20,18Z" fill="#FFFFFF" fill-opacity="1"/></g></g></svg>