<svg width="324" height="180" viewBox="0 0 324 180" fill="none" xmlns="http://www.w3.org/2000/svg">
<path d="M280.638 0.142578L323.549 38.6299H137.383L101.006 0.142578H280.638Z" fill="#E4E4E4"/>
<path opacity="0.5" d="M280.638 0.142578L323.549 38.6299H137.383L101.006 0.142578H280.638Z" fill="#7A7474"/>
<path d="M280.724 0.142578H101.008V179.858H280.724V0.142578Z" fill="#E4E4E4"/>
<path opacity="0.2" d="M280.724 0.142578H101.008V179.858H280.724V0.142578Z" fill="#7A7474"/>
<path d="M222.992 0.142578H43.2764V179.858H222.992V0.142578Z" fill="#E4E4E4"/>
<path d="M43.3594 0.142578L0.450195 38.6299H186.614L222.991 0.142578H43.3594Z" fill="#E4E4E4"/>
<path opacity="0.3" d="M43.3594 0.142578L0.450195 38.6299H186.614L222.991 0.142578H43.3594Z" fill="white"/>
<path d="M136.063 62.0625C152.816 62.0625 164.193 71.9399 164.193 88.1911C164.193 105.818 151.692 113.571 134.939 113.571L134.441 123.449H122.062L121.438 103.818H125.563C139.693 103.818 150.57 101.319 150.57 88.1911C150.57 79.4401 145.194 74.0638 136.192 74.0638C127.316 74.0638 121.691 79.0624 121.691 87.8157H108.315C108.181 72.6908 119.061 62.0625 136.063 62.0625ZM128.06 151.079C122.933 151.079 118.934 147.078 118.934 141.955C118.934 136.827 122.935 132.828 128.06 132.828C133.061 132.828 137.063 136.829 137.063 141.955C137.065 147.078 133.064 151.079 128.06 151.079Z" fill="white"/>
</svg>
