<svg xmlns="http://www.w3.org/2000/svg" xmlns:xlink="http://www.w3.org/1999/xlink" fill="none" version="1.1" width="26.76315689086914" height="25.5" viewBox="0 0 26.76315689086914 25.5"><g><path d="M15.1372,4.47696Q15.3431,5.54605,16.159399999999998,6.36231Q17.251,7.45391,18.7947,7.45391Q19.5361,7.45391,20.221,7.17021Q20.9059,6.88652,21.4301,6.36231Q21.9543,5.8381,22.238,5.1532Q22.3753,4.82169,22.4461,4.47696L26.0132,4.47696Q26.087,4.47696,26.1595,4.462540000000001Q26.2319,4.44813,26.3002,4.4198699999999995Q26.3684,4.3916,26.4298,4.35056Q26.4913,4.30952,26.5435,4.257289999999999Q26.5957,4.20505,26.6368,4.14363Q26.6778,4.08221,26.7061,4.0139700000000005Q26.7343,3.94572,26.7487,3.87327Q26.7632,3.80082,26.7632,3.72696Q26.7632,3.65309,26.7487,3.58064Q26.7343,3.50819,26.7061,3.43994Q26.6778,3.3717,26.6368,3.31028Q26.5957,3.24886,26.5435,3.19663Q26.4913,3.14439,26.4298,3.10335Q26.3684,3.06231,26.3002,3.03405Q26.2319,3.00578,26.1595,2.99137Q26.087,2.97696,26.0132,2.97696L22.4461,2.97696Q22.3753,2.63223,22.238,2.30071Q21.9543,1.615809,21.4301,1.0916000000000001Q20.9059,0.567395,20.221,0.283698Q19.5361,0,18.7947,0Q17.251,0,16.159399999999998,1.091599Q15.3431,1.90786,15.1372,2.97696L0.75,2.97696Q0.6761315,2.97696,0.603682,2.99137Q0.5312330000000001,3.00578,0.462987,3.03405Q0.394742,3.06231,0.333322,3.10335Q0.271903,3.14439,0.21967000000000003,3.19663Q0.16743699999999995,3.24886,0.126398,3.31028Q0.08535899999999996,3.3717,0.057089999999999974,3.43994Q0.028822000000000014,3.50819,0.014410999999999952,3.58064Q0,3.65309,0,3.72696Q0,3.80082,0.014410999999999952,3.87327Q0.028822000000000014,3.94572,0.057089999999999974,4.0139700000000005Q0.08535899999999996,4.08221,0.126398,4.14363Q0.16743699999999995,4.20505,0.21967000000000003,4.257289999999999Q0.271903,4.30952,0.333322,4.35056Q0.394742,4.3916,0.462987,4.4198699999999995Q0.5312330000000001,4.44813,0.603682,4.462540000000001Q0.6761315,4.47696,0.75,4.47696L15.1372,4.47696ZM18.7947,5.95391Q17.8723,5.95391,17.22,5.30165Q16.5678,4.64939,16.5678,3.72696Q16.5678,2.80452,17.22,2.15226Q17.8723,1.5,18.7947,1.5Q19.2377,1.5,19.6469,1.669517Q20.0562,1.83903,20.3694,2.15226Q20.6826,2.46549,20.8522,2.87474Q21.0217,3.28398,21.0217,3.72696Q21.0217,4.16993,20.8522,4.57918Q20.6826,4.98842,20.3694,5.30165Q20.0562,5.61488,19.6469,5.78439Q19.2377,5.95391,18.7947,5.95391ZM2.50564,13.4993Q2.71152,14.5684,3.52779,15.3847Q4.61939,16.476300000000002,6.16314,16.476300000000002Q7.7069,16.476300000000002,8.7985,15.3847Q9.61477,14.5684,9.82065,13.4993L26.0132,13.4993Q26.087,13.4993,26.1595,13.4849Q26.2319,13.4705,26.3002,13.4422Q26.3684,13.414,26.4298,13.3729Q26.4913,13.3319,26.5435,13.2796Q26.5957,13.2274,26.6368,13.166Q26.6778,13.1046,26.7061,13.0363Q26.7343,12.9681,26.7487,12.8956Q26.7632,12.8232,26.7632,12.7493Q26.7632,12.6754,26.7487,12.603Q26.7343,12.5305,26.7061,12.4623Q26.6778,12.3941,26.6368,12.3326Q26.5957,12.2712,26.5435,12.219Q26.4913,12.1668,26.4298,12.1257Q26.3684,12.0847,26.3002,12.0564Q26.2319,12.0281,26.1595,12.0137Q26.087,11.9993,26.0132,11.9993L9.82065,11.9993Q9.61477,10.9302,8.7985,10.11396Q7.7069,9.02236,6.16314,9.02236Q4.61939,9.02236,3.52779,10.11396Q2.71152,10.9302,2.50564,11.9993L0.75,11.9993Q0.6761315,11.9993,0.603682,12.0137Q0.5312330000000001,12.0281,0.462987,12.0564Q0.394742,12.0847,0.333322,12.1257Q0.271903,12.1668,0.21967000000000003,12.219Q0.16743699999999995,12.2712,0.126398,12.3326Q0.08535899999999996,12.3941,0.057089999999999974,12.4623Q0.028822000000000014,12.5305,0.014410999999999952,12.603Q0,12.6754,0,12.7493Q0,12.8232,0.014410999999999952,12.8956Q0.028822000000000014,12.9681,0.057089999999999974,13.0363Q0.08535899999999996,13.1046,0.126398,13.166Q0.16743699999999995,13.2274,0.21967000000000003,13.2796Q0.271903,13.3319,0.333322,13.3729Q0.394742,13.414,0.462987,13.4422Q0.5312330000000001,13.4705,0.603682,13.4849Q0.6761315,13.4993,0.75,13.4993L2.50564,13.4993ZM6.16314,14.9763Q5.24071,14.9763,4.58845,14.324Q3.93619,13.6718,3.93619,12.7493Q3.93619,11.8269,4.58845,11.1746Q5.24071,10.52236,6.16314,10.52236Q7.08558,10.52236,7.73784,11.1746Q8.3901,11.8269,8.3901,12.7493Q8.3901,13.6718,7.73784,14.324Q7.08558,14.9763,6.16314,14.9763ZM11.528,22.5217Q11.7339,23.5908,12.5501,24.407Q13.6431,25.5,15.1855,25.5Q16.7295,25.5,17.8213,24.4082Q18.6383,23.5912,18.8444,22.5217L26.0132,22.5217Q26.087,22.5217,26.1595,22.5073Q26.2319,22.4929,26.3002,22.4646Q26.3684,22.4363,26.4298,22.3953Q26.4913,22.3542,26.5435,22.302Q26.5957,22.2498,26.6368,22.1884Q26.6778,22.1269,26.7061,22.0587Q26.7343,21.9904,26.7487,21.918Q26.7632,21.8455,26.7632,21.7717Q26.7632,21.6978,26.7487,21.6254Q26.7343,21.5529,26.7061,21.4847Q26.6778,21.4164,26.6368,21.355Q26.5957,21.2936,26.5435,21.2413Q26.4913,21.1891,26.4298,21.1481Q26.3684,21.107,26.3002,21.0788Q26.2319,21.0505,26.1595,21.0361Q26.087,21.0217,26.0132,21.0217L18.8442,21.0217Q18.6381,19.9533,17.8213,19.1365Q16.7295,18.0447,15.1855,18.0447Q13.6418,18.0447,12.5501,19.1363Q11.7339,19.9526,11.528,21.0217L0.75,21.0217Q0.6761315,21.0217,0.603682,21.0361Q0.5312330000000001,21.0505,0.462987,21.0788Q0.394742,21.107,0.333322,21.1481Q0.271903,21.1891,0.21967000000000003,21.2413Q0.16743699999999995,21.2936,0.126398,21.355Q0.08535899999999996,21.4164,0.057089999999999974,21.4847Q0.028822000000000014,21.5529,0.014410999999999952,21.6254Q0,21.6978,0,21.7717Q0,21.8455,0.014410999999999952,21.918Q0.028822000000000014,21.9904,0.057089999999999974,22.0587Q0.08535899999999996,22.1269,0.126398,22.1884Q0.16743699999999995,22.2498,0.21967000000000003,22.302Q0.271903,22.3542,0.333322,22.3953Q0.394742,22.4363,0.462987,22.4646Q0.5312330000000001,22.4929,0.603682,22.5073Q0.6761315,22.5217,0.75,22.5217L11.528,22.5217ZM15.1855,24Q14.2644,24,13.6108,23.3464Q12.9585,22.6941,12.9585,21.7717Q12.9585,20.8492,13.6108,20.197Q14.2631,19.5447,15.1855,19.5447Q16.1082,19.5447,16.7607,20.1972Q17.4138,20.8503,17.4138,21.7717Q17.4138,22.6944,16.7607,23.3475Q16.1082,24,15.1855,24Z" fill-rule="evenodd" fill="#0B0A0A" fill-opacity="1"/></g></svg>