<svg xmlns="http://www.w3.org/2000/svg" xmlns:xlink="http://www.w3.org/1999/xlink" fill="none" version="1.1" width="24" height="24" viewBox="0 0 24 24"><defs><clipPath id="master_svg0_0_2204"><rect x="0" y="0" width="24" height="24" rx="0"/></clipPath></defs><g clip-path="url(#master_svg0_0_2204)"><g><path d="M12,3.0000001320838927C10.14348,3.0000001320838927,8.36301,3.737500132083893,7.05025,5.050250132083892C5.7375,6.363010132083893,5,8.143480132083893,5,10.000000132083892C5,12.862000132083892,6.782,15.623000132083893,8.738,17.762000132083894C9.73814,18.85160013208389,10.82943,19.853900132083893,12,20.758000132083893C12.17467,20.624000132083893,12.37967,20.460700132083893,12.615,20.26800013208389C13.5548,19.496300132083892,14.4393,18.659500132083892,15.262,17.764000132083893C17.218,15.623000132083893,19,12.863000132083894,19,10.000000132083892C19,8.143480132083893,18.2625,6.363010132083893,16.9497,5.050250132083892C15.637,3.737500132083893,13.8565,3.0000001320838927,12,3.0000001320838927ZM12,23.214000132083893C12,23.214000132083893,11.433,22.824000132083892,11.433,22.824000132083892C11.433,22.824000132083892,11.43,22.822000132083893,11.43,22.822000132083893C11.43,22.822000132083893,11.424,22.817000132083894,11.424,22.817000132083894C11.424,22.817000132083894,11.404,22.80300013208389,11.404,22.80300013208389C11.404,22.80300013208389,11.329,22.750000132083894,11.329,22.750000132083894C11.329,22.750000132083894,11.059,22.55300013208389,11.059,22.55300013208389C9.69086,21.524800132083893,8.41988,20.373300132083894,7.262,19.113000132083894C5.218,16.87500013208389,3,13.636000132083893,3,9.999000132083893C3.0000000355683,7.612050132083893,3.948211,5.322870132083893,5.6360399999999995,3.6350401320838928C7.32387,1.9472121320838929,9.613050000000001,0.9990001320838917,12,0.9990001320838928C14.3869,0.9990001320838933,16.676099999999998,1.9472121320838929,18.364,3.6350401320838928C20.0518,5.322870132083893,21,7.612050132083893,21,9.999000132083893C21,13.636000132083893,18.782,16.876000132083895,16.738,19.11100013208389C15.5804,20.371300132083892,14.3098,21.522700132083894,12.942,22.551000132083892C12.82805,22.636100132083893,12.71305,22.719800132083893,12.597,22.802000132083894C12.597,22.802000132083894,12.576,22.816000132083893,12.576,22.816000132083893C12.576,22.816000132083893,12.57,22.821000132083892,12.57,22.821000132083892C12.57,22.821000132083892,12.568,22.822000132083893,12.568,22.822000132083893C12.568,22.822000132083893,12,23.214000132083893,12,23.214000132083893ZM12,8.000000132083894C11.46957,8.000000132083894,10.96086,8.210710132083893,10.58579,8.585790132083893C10.210709999999999,8.960860132083893,10,9.469570132083893,10,10.000000132083892C10,10.530430132083893,10.210709999999999,11.039100132083894,10.58579,11.414200132083893C10.96086,11.789300132083893,11.46957,12.000000132083892,12,12.000000132083892C12.53043,12.000000132083892,13.0391,11.789300132083893,13.4142,11.414200132083893C13.7893,11.039100132083894,14,10.530430132083893,14,10.000000132083892C14,9.469570132083893,13.7893,8.960860132083893,13.4142,8.585790132083893C13.0391,8.210710132083893,12.53043,8.000000132083894,12,8.000000132083894ZM8,10.000000132083892C8,8.939130132083893,8.42143,7.921720132083893,9.17157,7.171570132083893C9.92172,6.421430132083893,10.939129999999999,6.000000132083893,12,6.000000132083893C13.0609,6.000000132083893,14.0783,6.421430132083893,14.8284,7.171570132083893C15.5786,7.921720132083893,16,8.939130132083893,16,10.000000132083892C16,11.060900132083892,15.5786,12.078300132083893,14.8284,12.828400132083893C14.0783,13.578600132083892,13.0609,14.000000132083892,12,14.000000132083892C10.939129999999999,14.000000132083892,9.92172,13.578600132083892,9.17157,12.828400132083893C8.42143,12.078300132083893,8,11.060900132083892,8,10.000000132083892Z" fill="#908B8B" fill-opacity="1"/></g></g></svg>