<svg xmlns="http://www.w3.org/2000/svg" xmlns:xlink="http://www.w3.org/1999/xlink" fill="none" version="1.1" width="24" height="24" viewBox="0 0 24 24"><defs><clipPath id="master_svg0_0_1667/0_277"><rect x="0" y="0" width="24" height="24" rx="0"/></clipPath></defs><g clip-path="url(#master_svg0_0_1667/0_277)"><g><g><path d="M4.87868,3.87868Q4,4.757359,4,6L4,19Q4,20.2426,4.87868,21.1213Q5.757358,22,7,22L17,22Q18.2426,22,19.121299999999998,21.1213Q20,20.2426,20,19L20,6Q20,4.757358,19.121299999999998,3.87868Q18.2426,3,17,3L7,3Q5.757359,3,4.87868,3.87868ZM6,19L6,6Q6,5.58579,6.29289,5.29289Q6.58579,5,7,5L17,5Q17.4142,5,17.7071,5.29289Q18,5.58579,18,6L18,19Q18,19.4142,17.7071,19.7071Q17.4142,20,17,20L7,20Q6.58579,20,6.29289,19.7071Q6,19.4142,6,19Z" fill-rule="evenodd" fill="#222222" fill-opacity="1"/></g><g><path d="M9,8L15,8Q15.09849,8,15.19509,8.019214999999999Q15.29169,8.03843,15.38268,8.076121Q15.47368,8.113812,15.55557,8.16853Q15.63746,8.223249,15.70711,8.292893Q15.77675,8.362537,15.83147,8.44443Q15.88619,8.526322,15.92388,8.617317Q15.96157,8.708311,15.98078,8.80491Q16,8.9015086,16,9Q16,9.0984914,15.98078,9.19509Q15.96157,9.291689,15.92388,9.382683Q15.88619,9.473678,15.83147,9.55557Q15.77675,9.637463,15.70711,9.707107Q15.63746,9.776751,15.55557,9.83147Q15.47368,9.886188,15.38268,9.923879Q15.29169,9.96157,15.19509,9.980785000000001Q15.09849,10,15,10L9,10Q8.9015086,10,8.80491,9.980785000000001Q8.708311,9.96157,8.617317,9.923879Q8.526322,9.886188,8.44443,9.83147Q8.362537,9.776751,8.292893,9.707107Q8.223249,9.637463,8.16853,9.55557Q8.113812,9.473678,8.076121,9.382683Q8.03843,9.291689,8.019214999999999,9.19509Q8,9.0984914,8,9Q8,8.9015086,8.019214999999999,8.80491Q8.03843,8.708311,8.076121,8.617317Q8.113812,8.526322,8.16853,8.44443Q8.223249,8.362537,8.292893,8.292893Q8.362537,8.223249,8.44443,8.16853Q8.526322,8.113812,8.617317,8.076121Q8.708311,8.03843,8.80491,8.019214999999999Q8.9015086,8,9,8ZM9,12L15,12Q15.09849,12,15.19509,12.019210000000001Q15.29169,12.03843,15.38268,12.07612Q15.47368,12.11381,15.55557,12.16853Q15.63746,12.22325,15.70711,12.29289Q15.77675,12.36254,15.83147,12.44443Q15.88619,12.52632,15.92388,12.61732Q15.96157,12.70831,15.98078,12.80491Q16,12.90151,16,13Q16,13.09849,15.98078,13.19509Q15.96157,13.29169,15.92388,13.38268Q15.88619,13.47368,15.83147,13.55557Q15.77675,13.63746,15.70711,13.70711Q15.63746,13.77675,15.55557,13.83147Q15.47368,13.88619,15.38268,13.92388Q15.29169,13.96157,15.19509,13.98078Q15.09849,14,15,14L9,14Q8.9015086,14,8.80491,13.98078Q8.708311,13.96157,8.617317,13.92388Q8.526322,13.88619,8.44443,13.83147Q8.362537,13.77675,8.292893,13.70711Q8.223249,13.63746,8.16853,13.55557Q8.113812,13.47368,8.076121,13.38268Q8.03843,13.29169,8.019214999999999,13.19509Q8,13.09849,8,13Q8,12.90151,8.019214999999999,12.80491Q8.03843,12.70831,8.076121,12.61732Q8.113812,12.52632,8.16853,12.44443Q8.223249,12.36254,8.292893,12.29289Q8.362537,12.22325,8.44443,12.16853Q8.526322,12.11381,8.617317,12.07612Q8.708311,12.03843,8.80491,12.019210000000001Q8.9015086,12,9,12ZM9.000976562,16L13,16Q13.09849,16,13.19509,16.01921Q13.29169,16.038429999999998,13.38268,16.07612Q13.47368,16.11381,13.55557,16.16853Q13.63746,16.22325,13.70711,16.29289Q13.77675,16.36254,13.83147,16.44443Q13.88619,16.52632,13.92388,16.61732Q13.96157,16.70831,13.98078,16.80491Q14,16.901510000000002,14,17Q14,17.098489999999998,13.98078,17.19509Q13.96157,17.29169,13.92388,17.38268Q13.88619,17.47368,13.83147,17.55557Q13.77675,17.63746,13.70711,17.70711Q13.63746,17.77675,13.55557,17.83147Q13.47368,17.88619,13.38268,17.92388Q13.29169,17.961570000000002,13.19509,17.98078Q13.09849,18,13,18L9,18Q8.9015086,18,8.80491,17.98078Q8.708311,17.961570000000002,8.617317,17.92388Q8.526322,17.88619,8.44443,17.83147Q8.362537,17.77675,8.292893,17.70711Q8.223249,17.63746,8.16853,17.55557Q8.113812,17.47368,8.076121,17.38268Q8.03843,17.29169,8.019214999999999,17.19509Q8,17.098489999999998,8,17Q8,16.901510000000002,8.019214999999999,16.80491Q8.03843,16.70831,8.076121,16.61732Q8.113812,16.52632,8.16853,16.44443Q8.223249,16.36254,8.292893,16.29289Q8.362537,16.22325,8.44443,16.16853Q8.526322,16.11381,8.617317,16.07612Q8.708311,16.038429999999998,8.80491,16.01921Q8.9015086,16,9,16L9.000976562,16Z" fill-rule="evenodd" fill="#222222" fill-opacity="1"/></g></g></g></svg>