<svg xmlns="http://www.w3.org/2000/svg" xmlns:xlink="http://www.w3.org/1999/xlink" fill="none" version="1.1" width="24" height="24" viewBox="0 0 24 24"><defs><clipPath id="master_svg0_0_1665/0_286"><rect x="0" y="0" width="24" height="24" rx="0"/></clipPath></defs><g clip-path="url(#master_svg0_0_1665/0_286)"><g><path d="M13,9C13,9,13,3,13,3C13,3,21,3,21,3C21,3,21,9,21,9C21,9,13,9,13,9ZM3,13C3,13,3,3,3,3C3,3,11,3,11,3C11,3,11,13,11,13C11,13,3,13,3,13ZM13,21C13,21,13,11,13,11C13,11,21,11,21,11C21,11,21,21,21,21C21,21,13,21,13,21ZM3,21C3,21,3,15,3,15C3,15,11,15,11,15C11,15,11,21,11,21C11,21,3,21,3,21ZM5,11C5,11,9,11,9,11C9,11,9,5,9,5C9,5,5,5,5,5C5,5,5,11,5,11ZM15,19C15,19,19,19,19,19C19,19,19,13,19,13C19,13,15,13,15,13C15,13,15,19,15,19ZM15,7C15,7,19,7,19,7C19,7,19,5,19,5C19,5,15,5,15,5C15,5,15,7,15,7ZM5,19C5,19,9,19,9,19C9,19,9,17,9,17C9,17,5,17,5,17C5,17,5,19,5,19Z" fill="#222222" fill-opacity="1"/><path d="M11,13L3,13L3,3L11,3L11,13ZM21,9L13,9L13,3L21,3L21,9ZM5,11L9,11L9,5L5,5L5,11ZM19,5L19,7L15,7L15,5L19,5ZM21,21L13,21L13,11L21,11L21,21ZM15,19L19,19L19,13L15,13L15,19ZM11,21L3,21L3,15L11,15L11,21ZM9,17L9,19L5,19L5,17L9,17Z" fill-rule="evenodd" fill="#FFFFFF" fill-opacity="1"/></g></g></svg>