<svg xmlns="http://www.w3.org/2000/svg" xmlns:xlink="http://www.w3.org/1999/xlink" fill="none" version="1.1" width="24.7421875" height="25.0040283203125" viewBox="0 0 24.7421875 25.0040283203125"><g><g><path d="M24.7422296875,12.3708283203125Q24.7416296875,9.4319183203125,23.4190296875,6.8073683203125Q22.0965296875,4.1828283203125,19.7349296875,2.4336083203125Q17.3732296875,0.6843983203124999,14.4771296875,0.18437632031249995Q11.5811296875,-0.3156416796874999,8.769599687500001,0.5403943203125Q5.9581096875,1.3964343203125,3.8321196875,3.4255783203125Q1.7061306875,5.4547083203125,0.7200236875,8.2232583203125Q-0.26608031249999997,10.9917983203125,0.09845868749999998,13.9080283203125Q0.4630006875,16.8242283203125,2.1001396875,19.2646283203125Q3.8223896875,21.8333283203125,6.5515196875,23.2881283203125Q9.2806496875,24.7428283203125,12.3719296875,24.7407283203125Q15.4645296875,24.7428283203125,18.1936296875,23.2881283203125Q20.9228296875,21.8333283203125,22.6441296875,19.2660283203125Q24.7485296875,16.138728320312502,24.7422296875,12.3708283203125ZM18.5445296875,4.0407883203125Q20.5243296875,5.5071783203125,21.6330296875,7.7073683203125Q22.7417296875,9.9075483203125,22.7422296875,12.3713283203125Q22.7475296875,15.5300283203125,20.9848296875,18.1494283203125Q19.5403296875,20.3038283203125,17.2529296875,21.5232283203125Q14.9654296875,22.7425283203125,12.3733296875,22.7407283203125Q9.7797596875,22.7425283203125,7.4923096875,21.5232283203125Q5.2048496875,20.3038283203125,3.7613096875,18.1508283203125Q2.3886096875,16.1046283203125,2.0830096874999997,13.6599283203125Q1.7774126875,11.2152283203125,2.6040796875,8.8943283203125Q3.4307496875,6.5734183203125,5.2129996875,4.8723583203125Q6.9952396875,3.1712983203125,9.3521496875,2.4536683203125Q11.7090296875,1.7360403203125,14.1368296875,2.1552183203124997Q16.564729687499998,2.5743883203125,18.5445296875,4.0407883203125Z" fill-rule="evenodd" fill="#0B0A0A" fill-opacity="1"/></g><g><path d="M13.635611514091492,8.581185766830444C13.635611514091492,8.916235766830443,13.502511514091491,9.237555766830443,13.265611514091491,9.474465766830445C13.028711514091492,9.711385766830444,12.707311514091492,9.844485766830445,12.372311514091491,9.844485766830445C12.372311514091491,9.844485766830445,12.372311514091491,12.371075766830444,12.372311514091491,12.371075766830444C13.377411514091492,12.371075766830444,14.341411514091492,11.971785766830443,15.052111514091491,11.261045766830446C15.762911514091492,10.550295766830445,16.162211514091492,9.586325766830445,16.162211514091492,8.581185766830444C16.162211514091492,8.581185766830444,13.635611514091492,8.581185766830444,13.635611514091492,8.581185766830444ZM12.372311514091491,9.844485766830445C12.037241514091491,9.844485766830445,11.715921514091491,9.711385766830444,11.479001514091491,9.474465766830445C11.242091514091491,9.237555766830443,11.108991514091493,8.916235766830443,11.108991514091493,8.581185766830444C11.108991514091493,8.581185766830444,8.582401514091492,8.581185766830444,8.582401514091492,8.581185766830444C8.582401514091492,9.586325766830445,8.98169151409149,10.550295766830445,9.692431514091492,11.261045766830446C10.403171514091492,11.971785766830443,11.367151514091491,12.371075766830444,12.372311514091491,12.371075766830444C12.372311514091491,12.371075766830444,12.372311514091491,9.844485766830445,12.372311514091491,9.844485766830445ZM11.108991514091493,8.581185766830444C11.108991514091493,8.246135766830445,11.242091514091491,7.924815766830444,11.479001514091491,7.687895766830444C11.715921514091491,7.450985766830444,12.037241514091491,7.317885766830445,12.372311514091491,7.317885766830445C12.372311514091491,7.317885766830445,12.372311514091491,4.791295766830444,12.372311514091491,4.791295766830444C11.367151514091491,4.791295766830444,10.403171514091492,5.190586766830444,9.692431514091492,5.901325766830444C8.98169151409149,6.612075766830444,8.582401514091492,7.576045766830444,8.582401514091492,8.581185766830444C8.582401514091492,8.581185766830444,11.108991514091493,8.581185766830444,11.108991514091493,8.581185766830444ZM12.372311514091491,7.317885766830445C12.707311514091492,7.317885766830445,13.028711514091492,7.450985766830444,13.265611514091491,7.687895766830444C13.502511514091491,7.924815766830444,13.635611514091492,8.246135766830445,13.635611514091492,8.581185766830444C13.635611514091492,8.581185766830444,16.162211514091492,8.581185766830444,16.162211514091492,8.581185766830444C16.162211514091492,7.576045766830444,15.762911514091492,6.612075766830444,15.052111514091491,5.901325766830444C14.341411514091492,5.190586766830444,13.377411514091492,4.791295766830444,12.372311514091491,4.791295766830444C12.372311514091491,4.791295766830444,12.372311514091491,7.317885766830445,12.372311514091491,7.317885766830445ZM3.7389215140914915,19.768895766830447C3.7389215140914915,19.768895766830447,2.5274225140914917,19.408895766830444,2.5274225140914917,19.408895766830444C2.5274225140914917,19.408895766830444,2.3316115140914917,20.069595766830446,2.3316115140914917,20.069595766830446C2.3316115140914917,20.069595766830446,2.7800815140914916,20.591295766830445,2.7800815140914916,20.591295766830445C2.7800815140914916,20.591295766830445,3.7389215140914915,19.768895766830447,3.7389215140914915,19.768895766830447ZM21.00561151409149,19.768895766830447C21.00561151409149,19.768895766830447,21.96581151409149,20.591295766830445,21.96581151409149,20.591295766830445C21.96581151409149,20.591295766830445,22.41301151409149,20.069595766830446,22.41301151409149,20.069595766830446C22.41301151409149,20.069595766830446,22.217111514091492,19.408895766830444,22.217111514091492,19.408895766830444C22.217111514091492,19.408895766830444,21.00561151409149,19.768895766830447,21.00561151409149,19.768895766830447ZM8.582401514091492,17.424295766830443C8.582401514091492,17.424295766830443,16.162211514091492,17.424295766830443,16.162211514091492,17.424295766830443C16.162211514091492,17.424295766830443,16.162211514091492,14.897695766830445,16.162211514091492,14.897695766830445C16.162211514091492,14.897695766830445,8.582401514091492,14.897695766830445,8.582401514091492,14.897695766830445C8.582401514091492,14.897695766830445,8.582401514091492,17.424295766830443,8.582401514091492,17.424295766830443ZM8.582401514091492,14.897695766830445C7.222001514091492,14.897695766830445,5.897911514091492,15.336695766830445,4.807001514091492,16.149395766830445C3.7160915140914916,16.962195766830444,2.916613514091492,18.105395766830444,2.5274225140914917,19.408895766830444C2.5274225140914917,19.408895766830444,4.949161514091491,20.128995766830442,4.949161514091491,20.128995766830442C5.183191514091492,19.34729576683044,5.663111514091492,18.661895766830444,6.317641514091491,18.174595766830443C6.972181514091492,17.687395766830445,7.766411514091492,17.424195766830444,8.582401514091492,17.424295766830443C8.582401514091492,17.424295766830443,8.582401514091492,14.897695766830445,8.582401514091492,14.897695766830445ZM12.372311514091491,22.477395766830444C10.913801514091492,22.479095766830444,9.472321514091492,22.164295766830445,8.14733151409149,21.554695766830445C6.822351514091491,20.945095766830445,5.645421514091492,20.055195766830444,4.697761514091492,18.946495766830445C4.697761514091492,18.946495766830445,2.7800815140914916,20.591295766830445,2.7800815140914916,20.591295766830445C3.964911514091492,21.976595766830446,5.436011514091492,23.088395766830445,7.092001514091492,23.850195766830446C8.747991514091492,24.611995766830443,10.549481514091491,25.005695766830446,12.372311514091491,25.003995766830446C12.372311514091491,25.003995766830446,12.372311514091491,22.477395766830444,12.372311514091491,22.477395766830444ZM16.162211514091492,17.424295766830443C17.87651151409149,17.424295766830443,19.328011514091493,18.563795766830445,19.79541151409149,20.130195766830447C19.79541151409149,20.130195766830447,22.217111514091492,19.408895766830444,22.217111514091492,19.408895766830444C21.828011514091493,18.105595766830444,21.027511514091493,16.962595766830447,19.93681151409149,16.149795766830444C18.846211514091493,15.337095766830444,17.52241151409149,14.897895766830445,16.162211514091492,14.897695766830445C16.162211514091492,14.897695766830445,16.162211514091492,17.424295766830443,16.162211514091492,17.424295766830443ZM20.04681151409149,18.946495766830445C19.099211514091493,20.055195766830444,17.922211514091494,20.945095766830445,16.59721151409149,21.554695766830445C15.272211514091492,22.164295766830445,13.830811514091492,22.479095766830444,12.372311514091491,22.477395766830444C12.372311514091491,22.477395766830444,12.372311514091491,25.003995766830446,12.372311514091491,25.003995766830446C14.195111514091492,25.005695766830446,15.99661151409149,24.611995766830443,17.65261151409149,23.850195766830446C19.308611514091492,23.088395766830445,20.780911514091493,21.976595766830446,21.96581151409149,20.591295766830445C21.96581151409149,20.591295766830445,20.04681151409149,18.946495766830445,20.04681151409149,18.946495766830445Z" fill="#0B0A0A" fill-opacity="1"/></g></g></svg>