<svg xmlns="http://www.w3.org/2000/svg" xmlns:xlink="http://www.w3.org/1999/xlink" fill="none" version="1.1" width="24" height="24" viewBox="0 0 24 24"><defs><clipPath id="master_svg0_0_1668/0_277"><rect x="0" y="0" width="24" height="24" rx="0"/></clipPath></defs><g clip-path="url(#master_svg0_0_1668/0_277)"><g><g><path d="M3.63604,14.63604Q1,17.27208,1,21Q1,21.098489999999998,1.019215,21.19509Q1.03843,21.29169,1.076121,21.38268Q1.113812,21.47368,1.16853,21.55557Q1.223249,21.63746,1.2928929999999998,21.70711Q1.362537,21.77675,1.44443,21.83147Q1.526322,21.88619,1.617317,21.92388Q1.7083110000000001,21.961570000000002,1.80491,21.98078Q1.9015086,22,2,22Q2.0984914,22,2.19509,21.98078Q2.291689,21.961570000000002,2.382683,21.92388Q2.473678,21.88619,2.55557,21.83147Q2.637463,21.77675,2.707107,21.70711Q2.776751,21.63746,2.83147,21.55557Q2.8861879999999998,21.47368,2.923879,21.38268Q2.96157,21.29169,2.980785,21.19509Q3,21.098489999999998,3,21Q3,18.1005,5.05025,16.05025Q7.1005,14,10,14Q12.8995,14,14.9497,16.05025Q17,18.1005,17,21Q17,21.098489999999998,17.019199999999998,21.19509Q17.0384,21.29169,17.0761,21.38268Q17.113799999999998,21.47368,17.1685,21.55557Q17.2232,21.63746,17.2929,21.70711Q17.3625,21.77675,17.4444,21.83147Q17.5263,21.88619,17.6173,21.92388Q17.7083,21.961570000000002,17.8049,21.98078Q17.9015,22,18,22Q18.0985,22,18.1951,21.98078Q18.2917,21.961570000000002,18.3827,21.92388Q18.4737,21.88619,18.5556,21.83147Q18.6375,21.77675,18.7071,21.70711Q18.7767,21.63746,18.8315,21.55557Q18.8862,21.47368,18.9239,21.38268Q18.9616,21.29169,18.9808,21.19509Q19,21.098489999999998,19,21Q19,17.27208,16.364,14.63604Q13.7279,12,10,12Q6.27208,12,3.63604,14.63604Z" fill-rule="evenodd" fill="#222222" fill-opacity="1"/></g><g><path d="M14.24264,3.757359Q12.48528,2,10,2Q7.5147200000000005,2,5.757359,3.7573600000000003Q4,5.5147200000000005,4,8Q4,10.48528,5.75736,12.24264Q7.5147200000000005,14,10,14Q12.48528,14,14.24264,12.24264Q16,10.48528,16,8Q16,5.5147200000000005,14.24264,3.757359ZM7.17157,5.17157Q8.34315,4,10,4Q11.65685,4,12.82843,5.17157Q14,6.34315,14,8Q14,9.65686,12.82843,10.82843Q11.65685,12,10,12Q8.34315,12,7.17157,10.82843Q6,9.65685,6,8Q6,6.34315,7.17157,5.17157Z" fill-rule="evenodd" fill="#222222" fill-opacity="1"/></g><g><path d="M18.060129237060547,2.8399030476837157Q19.352169237060547,3.606222247683716,20.130699237060547,4.890940047683716Q20.909229237060547,6.175660047683715,20.99054923706055,7.675660047683715Q21.071879237060546,9.175660047683717,20.436809237060547,10.537030047683716Q20.06627923706055,11.331330047683716,19.502869237060548,11.969080047683716Q20.726109237060548,13.147070047683716,21.630239237060547,14.824200047683716Q22.999999237060546,17.36510004768372,22.999999237060546,20.000000047683717Q22.999999237060546,20.098500047683714,22.98078923706055,20.195100047683717Q22.961569237060548,20.291700047683715,22.923879237060547,20.382700047683716Q22.88618923706055,20.473700047683717,22.831469237060546,20.555600047683715Q22.776749237060546,20.637500047683716,22.707109237060546,20.707100047683717Q22.637459237060547,20.776700047683715,22.555569237060546,20.831500047683715Q22.473679237060548,20.886200047683715,22.382679237060547,20.923900047683716Q22.291689237060545,20.961600047683717,22.195089237060547,20.980800047683715Q22.098489237060548,21.000000047683717,21.999999237060546,21.000000047683717Q21.901509237060548,21.000000047683717,21.804909237060546,20.980800047683715Q21.708309237060547,20.961600047683717,21.617319237060546,20.923900047683716Q21.526319237060548,20.886200047683715,21.444429237060547,20.831500047683715Q21.362539237060545,20.776700047683715,21.292889237060546,20.707100047683717Q21.223249237060546,20.637500047683716,21.168529237060547,20.555600047683715Q21.113809237060547,20.473700047683717,21.076119237060546,20.382700047683716Q21.038429237060548,20.291700047683715,21.019219237060547,20.195100047683717Q20.999999237060546,20.098500047683714,20.999999237060546,20.000000047683717Q20.999999237060546,17.869900047683714,19.869759237060546,15.773300047683716Q18.85531923706055,13.891500047683715,17.400000237060546,12.800000047683715Q17.285780237060546,12.714330047683715,17.200097237060547,12.600130047683717Q17.14098923706055,12.521350047683717,17.098387237060546,12.432540047683716Q17.05578623706055,12.343740047683715,17.031326237060547,12.248340047683715Q17.006867237060547,12.152930047683716,17.00149123706055,12.054590047683716Q16.996114237060546,11.956240047683716,17.010027237060548,11.858740047683716Q17.023940237060547,11.761230047683716,17.056608237060548,11.668320047683716Q17.089276237060545,11.575400047683715,17.139443237060547,11.490640047683716Q17.189610237060545,11.405890047683716,17.255348237060545,11.332550047683716Q17.321087237060546,11.259200047683716,17.399870237060547,11.200100047683716Q18.200945237060548,10.599090047683717,18.624319237060547,9.691510047683716Q19.04769923706055,8.783940047683716,18.993489237060547,7.783940047683716Q18.939269237060547,6.783940047683716,18.420250237060547,5.9274600476837165Q17.901231237060546,5.070980047683716,17.039869237060547,4.5600970476837155Q16.927919237060546,4.493699047683716,16.836695237060546,4.400855047683716Q16.745472237060547,4.308011047683716,16.681054237060547,4.194909047683716Q16.616637237060548,4.081807047683716,16.583318237060546,3.9559840476837156Q16.549999237060547,3.830160047683716,16.549999237060547,3.700000047683716Q16.549999237060547,3.601508647683716,16.569214237060546,3.504910047683716Q16.588429237060545,3.408311047683716,16.626120237060547,3.3173170476837157Q16.663811237060546,3.2263220476837158,16.718529237060547,3.144430047683716Q16.773248237060546,3.062537047683716,16.842892237060546,2.9928930476837157Q16.912536237060547,2.923249047683716,16.994429237060547,2.868530047683716Q17.076321237060547,2.813812047683716,17.167316237060547,2.776121047683716Q17.258310237060545,2.738430047683716,17.354909237060546,2.719215047683716Q17.451507837060547,2.700000047683716,17.549999237060547,2.700000047683716Q17.824248237060548,2.700000047683716,18.060129237060547,2.8399030476837157Z" fill-rule="evenodd" fill="#222222" fill-opacity="1"/></g></g></g></svg>